<svg width="154" height="43" viewBox="0 0 154 43" fill="none" xmlns="http://www.w3.org/2000/svg">
<path d="M21.9575 53.4999C10.1247 54.4605 4.01184 42.2347 3.61887 32.0612C3.40055 26.7779 4.44847 21.4509 6.63164 16.648C8.46551 12.6309 11.1726 8.30826 15.1023 6.03777C13.2248 8.39559 11.6966 10.9717 10.5613 13.8099C10.5613 13.8535 10.5177 13.8972 10.5177 13.9408C10.4304 14.1592 10.474 14.3775 10.6487 14.5085C10.6923 14.9888 11.391 15.2071 11.7839 14.7268C11.8276 14.6831 11.8276 14.6831 11.8713 14.6395C12.0459 14.6395 12.2206 14.5521 12.3515 14.3775C12.3952 14.3338 12.4389 14.2902 12.4825 14.2028C12.3079 14.5958 12.1332 15.0324 11.9149 15.4254C11.6093 16.124 12.5699 16.7353 12.9628 16.0367C14.884 12.8493 16.8052 9.66183 18.7264 6.43074C18.8137 6.29975 18.8137 6.12509 18.7701 5.9941C19.2067 5.47014 19.6433 4.98985 20.1236 4.50955C20.4293 4.20391 20.2983 3.63628 19.8617 3.54895C19.818 3.54895 19.818 3.54895 19.7743 3.54895C19.8617 3.24331 19.7307 2.93767 19.3814 2.85034C18.8574 2.71935 18.3334 2.63202 17.7658 2.50103C17.7221 2.45737 17.6348 2.41371 17.5912 2.41371C16.6306 2.19539 15.7136 2.02074 14.7967 1.88974C11.9149 1.27846 9.03313 0.623506 6.15135 0.0122186C5.45273 -0.118772 5.19075 0.841823 5.8457 1.06014C6.93729 1.45311 8.07253 1.75875 9.20778 2.0644C8.68382 2.02073 8.15986 1.93341 7.6359 1.84608C7.06828 1.75875 6.50065 1.67143 5.88936 1.5841C5.40907 1.49677 5.14709 1.93341 5.19075 2.28272C4.79778 2.28272 4.44847 2.28272 4.0555 2.28272C3.44421 2.32638 3.26956 3.33064 3.92451 3.46163C6.84996 4.07291 9.81907 4.24757 12.7882 4.24757C5.45273 7.74064 1.34837 15.8184 0.344113 23.8088C-0.310838 29.1357 -0.00519384 34.681 1.04273 39.9206C1.95966 44.5489 3.83719 49.2209 7.50491 52.321C11.391 55.5957 16.5432 56.9056 21.5209 55.9887C22.0885 55.9014 22.0448 54.9844 21.5209 54.8534C20.9096 54.7225 20.2983 54.5478 19.687 54.3731C20.4729 54.4168 21.2589 54.3731 22.0448 54.2422C22.4815 54.2422 22.3941 53.4562 21.9575 53.4999ZM9.03313 9.92381C7.59224 11.8013 6.41333 13.9408 5.45273 16.1677C6.326 13.8535 7.50491 11.714 9.03313 9.92381ZM1.95966 38.698C1.61035 36.6021 1.39203 34.5063 1.30471 32.4541C1.17372 30.271 1.21738 27.9568 1.4357 25.6426C1.4357 27.2582 1.47936 28.8301 1.65402 30.3583C1.69768 30.6639 1.69768 31.0132 1.74134 31.3189C1.65402 33.2837 1.74134 35.2486 2.00332 37.1261C1.87233 37.2134 1.82867 37.3444 1.82867 37.5627C1.87233 37.9557 1.916 38.3487 1.95966 38.698ZM5.19075 13.5479C5.62738 12.7619 6.10768 12.0633 6.63164 11.3647C5.05976 13.7662 3.92451 16.5606 3.18223 19.3988C3.5752 17.3466 4.23016 15.3381 5.19075 13.5479ZM3.83719 45.2912C4.18649 46.0771 4.57946 46.8194 5.0161 47.518C5.14709 47.78 5.3654 48.1293 5.62738 48.5223C4.92877 47.518 4.31748 46.4264 3.83719 45.2912ZM8.42184 51.535C8.81481 51.7097 9.20778 51.797 9.60075 51.666C9.68808 51.7533 9.77541 51.797 9.86273 51.8843C10.6487 52.6703 11.5656 53.3689 12.5262 53.9365C10.998 53.3689 9.64442 52.583 8.42184 51.535Z" transform="translate(157.599 29.9766) rotate(132.442)" fill="#F2F2F2"/>
<path d="M8.26172 4.91211C8.29688 4.77148 8.38477 4.66602 8.52539 4.5957C8.67773 4.51367 8.83594 4.47266 9 4.47266C9.15234 4.47266 9.29883 4.50781 9.43945 4.57812C9.5918 4.63672 9.69141 4.73633 9.73828 4.87695C10.0312 6.61133 10.2246 8.1582 10.3184 9.51758C10.4238 10.8652 10.5117 12.0723 10.582 13.1387C10.5703 13.2793 10.5 13.3848 10.3711 13.4551C10.2539 13.5254 10.125 13.5605 9.98438 13.5605C9.83203 13.5605 9.69141 13.5312 9.5625 13.4727C9.44531 13.4141 9.38672 13.3145 9.38672 13.1738C9.35156 12.2246 9.29297 11.1992 9.21094 10.0977C9.12891 8.99609 9 7.79492 8.82422 6.49414C8.64844 6.98633 8.44922 7.51367 8.22656 8.07617C8.00391 8.62695 7.77539 9.18359 7.54102 9.74609C7.31836 10.3086 7.0957 10.8594 6.87305 11.3984C6.66211 11.9258 6.46875 12.4121 6.29297 12.8574C6.19922 13.0918 6.06445 13.2676 5.88867 13.3848C5.72461 13.4902 5.56055 13.543 5.39648 13.543C5.25586 13.543 5.12109 13.4609 4.99219 13.2969C4.875 13.1211 4.75195 12.8926 4.62305 12.6113C4.50586 12.3301 4.38281 12.0137 4.25391 11.6621C4.13672 11.2988 4.00781 10.9297 3.86719 10.5547C3.66797 10.0273 3.46289 9.49414 3.25195 8.95508C3.05273 8.41602 2.88281 7.90039 2.74219 7.4082C2.68359 7.8418 2.61914 8.30469 2.54883 8.79688C2.49023 9.27734 2.41406 9.77539 2.32031 10.291C2.23828 10.7949 2.12695 11.3047 1.98633 11.8203C1.85742 12.3359 1.6875 12.834 1.47656 13.3145C1.42969 13.4199 1.35352 13.4961 1.24805 13.543C1.1543 13.5898 1.05469 13.6133 0.949219 13.6133C0.785156 13.6133 0.626953 13.5664 0.474609 13.4727C0.333984 13.3672 0.263672 13.2266 0.263672 13.0508C0.263672 12.9922 0.269531 12.9512 0.28125 12.9277C0.515625 12.2949 0.708984 11.6387 0.861328 10.959C1.01367 10.2676 1.14258 9.58789 1.24805 8.91992C1.35352 8.24023 1.44727 7.58984 1.5293 6.96875C1.61133 6.33594 1.69922 5.75586 1.79297 5.22852C1.79297 5.08789 1.86328 4.9707 2.00391 4.87695C2.14453 4.7832 2.29688 4.73633 2.46094 4.73633C2.58984 4.73633 2.71875 4.76562 2.84766 4.82422C2.98828 4.87109 3.08203 4.95898 3.12891 5.08789C3.375 5.7793 3.60352 6.42383 3.81445 7.02148C4.03711 7.60742 4.24219 8.16406 4.42969 8.69141C4.62891 9.21875 4.81641 9.72852 4.99219 10.2207C5.16797 10.7012 5.34375 11.1816 5.51953 11.6621L6.80273 8.41016C7.02539 7.84766 7.25391 7.28516 7.48828 6.72266C7.72266 6.14844 7.98047 5.54492 8.26172 4.91211ZM14.4844 8.5332C14.5312 8.49805 14.584 8.46875 14.6426 8.44531C14.7012 8.41016 14.7656 8.39258 14.8359 8.39258C15.1406 8.41602 15.457 8.49805 15.7852 8.63867C16.1133 8.7793 16.4121 8.97852 16.6816 9.23633C16.9512 9.49414 17.1738 9.80469 17.3496 10.168C17.5254 10.5312 17.6133 10.9473 17.6133 11.416C17.6016 11.9082 17.5137 12.3418 17.3496 12.7168C17.1973 13.0801 16.9863 13.3848 16.7168 13.6309C16.459 13.877 16.1484 14.0586 15.7852 14.1758C15.4336 14.3047 15.0469 14.3691 14.625 14.3691C14.2969 14.3691 13.9629 14.3047 13.623 14.1758C13.2832 14.0586 12.9785 13.8828 12.709 13.6484C12.4395 13.4023 12.2168 13.1094 12.041 12.7695C11.8652 12.4297 11.7773 12.0371 11.7773 11.5918C11.7773 11.1934 11.8535 10.8066 12.0059 10.4316C12.1582 10.0449 12.3457 9.70508 12.5684 9.41211C12.8027 9.11914 13.0547 8.88477 13.3242 8.70898C13.6055 8.5332 13.8691 8.44531 14.1152 8.44531C14.2441 8.44531 14.3672 8.47461 14.4844 8.5332ZM14.5898 9.57031C14.3789 9.67578 14.1855 9.78711 14.0098 9.9043C13.8457 10.0098 13.6992 10.1387 13.5703 10.291C13.4531 10.4434 13.3594 10.6309 13.2891 10.8535C13.2305 11.0762 13.2012 11.3516 13.2012 11.6797C13.2012 11.9727 13.248 12.2129 13.3418 12.4004C13.4473 12.5879 13.5762 12.7402 13.7285 12.8574C13.8926 12.9629 14.0684 13.0391 14.2559 13.0859C14.4551 13.1211 14.6484 13.1387 14.8359 13.1387C15.2344 13.1387 15.5684 12.9805 15.8379 12.6641C16.1074 12.3477 16.2422 11.9609 16.2422 11.5039C16.2422 11.1523 16.1895 10.8652 16.084 10.6426C15.9902 10.4199 15.8613 10.2441 15.6973 10.1152C15.5449 9.97461 15.3691 9.86914 15.1699 9.79883C14.9707 9.7168 14.7773 9.64062 14.5898 9.57031ZM21.252 9.79883C21.7207 9.33008 22.2773 8.95508 22.9219 8.67383C23.5664 8.38086 24.2461 8.2168 24.9609 8.18164C25.1367 8.20508 25.2656 8.28711 25.3477 8.42773C25.4414 8.55664 25.4883 8.69727 25.4883 8.84961C25.4883 8.97852 25.4531 9.10156 25.3828 9.21875C25.3242 9.32422 25.2305 9.37695 25.1016 9.37695C24.3281 9.55273 23.6484 9.77539 23.0625 10.0449C22.4883 10.3145 22.0254 10.6719 21.6738 11.1172C21.6738 11.3516 21.6855 11.5859 21.709 11.8203C21.7441 12.043 21.7617 12.2773 21.7617 12.5234C21.7617 12.8281 21.75 13.1328 21.7266 13.4375C21.7148 13.7422 21.6797 14.041 21.6211 14.334C21.6094 14.4863 21.5332 14.5918 21.3926 14.6504C21.252 14.709 21.0996 14.7383 20.9355 14.7383C20.7715 14.7383 20.6191 14.6973 20.4785 14.6152C20.3496 14.5449 20.2852 14.4395 20.2852 14.2988C20.3203 13.9707 20.3496 13.6367 20.373 13.2969C20.4082 12.9453 20.4258 12.5996 20.4258 12.2598C20.4258 11.8027 20.3672 11.4219 20.25 11.1172C20.1445 10.8125 20.0449 10.5605 19.9512 10.3613C19.916 10.3027 19.8457 10.2207 19.7402 10.1152C19.6465 9.99805 19.5469 9.88086 19.4414 9.76367C19.3359 9.63477 19.2422 9.50586 19.1602 9.37695C19.0781 9.24805 19.0371 9.13672 19.0371 9.04297C19.0371 8.84375 19.1133 8.67383 19.2656 8.5332C19.4297 8.38086 19.6113 8.30469 19.8105 8.30469C20.0098 8.30469 20.2441 8.45117 20.5137 8.74414C20.7832 9.03711 21.0293 9.38867 21.252 9.79883ZM32.5547 9.13086C32.918 9.63477 33.0996 10.0742 33.0996 10.4492C33.0996 10.8477 32.8945 11.1113 32.4844 11.2402L28.8105 12.3301C28.9629 12.5645 29.1562 12.7461 29.3906 12.875C29.6367 13.0039 29.8828 13.0684 30.1289 13.0684C30.5156 13.0684 30.8789 13.0098 31.2188 12.8926C31.5703 12.7637 31.8984 12.541 32.2031 12.2246C32.2852 12.1426 32.3789 12.1016 32.4844 12.1016C32.625 12.1016 32.7656 12.1719 32.9062 12.3125C33.0586 12.4414 33.1348 12.5879 33.1348 12.752C33.1348 12.916 33.0527 13.0859 32.8887 13.2617C32.7363 13.4375 32.5312 13.6074 32.2734 13.7715C32.0156 13.9238 31.7227 14.0469 31.3945 14.1406C31.0664 14.2461 30.7324 14.2988 30.3926 14.2988C30.0527 14.2988 29.6895 14.2461 29.3027 14.1406C28.9277 14.0352 28.5762 13.8711 28.248 13.6484C27.9199 13.4141 27.6504 13.1152 27.4395 12.752C27.2285 12.3887 27.123 11.9434 27.123 11.416C27.123 10.8535 27.3047 10.209 27.668 9.48242C27.9023 9.02539 28.2598 8.69141 28.7402 8.48047C29.2324 8.25781 29.748 8.14648 30.2871 8.14648C30.7324 8.14648 31.1543 8.22852 31.5527 8.39258C31.9629 8.55664 32.2969 8.80273 32.5547 9.13086ZM28.5117 11.1523L31.7109 10.2207C31.6523 9.91602 31.4941 9.69336 31.2363 9.55273C30.9902 9.40039 30.7148 9.32422 30.4102 9.32422C30.0703 9.32422 29.7773 9.38867 29.5312 9.51758C29.2969 9.63477 29.1035 9.78711 28.9512 9.97461C28.7988 10.1621 28.6875 10.3613 28.6172 10.5723C28.5469 10.7832 28.5117 10.9766 28.5117 11.1523ZM41.2559 8.51562C41.3262 8.45703 41.4258 8.42773 41.5547 8.42773C41.9531 8.46289 42.3105 8.57422 42.627 8.76172C42.9434 8.9375 43.207 9.16016 43.418 9.42969C43.6406 9.6875 43.8047 9.97461 43.9102 10.291C44.0273 10.6074 44.0859 10.9121 44.0859 11.2051V11.293C44.168 11.5625 44.2559 11.7734 44.3496 11.9258C44.4434 12.0781 44.543 12.1953 44.6484 12.2773C44.7656 12.3594 44.877 12.4121 44.9824 12.4355C45.0996 12.4473 45.2168 12.4531 45.334 12.4531C45.4395 12.4531 45.5508 12.4297 45.668 12.3828C45.7969 12.3359 45.9434 12.3125 46.1074 12.3125C46.2598 12.3125 46.3828 12.377 46.4766 12.5059C46.582 12.623 46.6348 12.752 46.6348 12.8926C46.6348 13.0215 46.5938 13.1387 46.5117 13.2441C46.4414 13.3379 46.3418 13.4199 46.2129 13.4902C46.0957 13.5488 45.9609 13.5957 45.8086 13.6309C45.668 13.6543 45.5273 13.666 45.3867 13.666C44.9414 13.666 44.5547 13.5723 44.2266 13.3848C43.8984 13.1973 43.6406 12.9805 43.4531 12.7344C43.2188 13.0039 42.9375 13.2148 42.6094 13.3672C42.2812 13.5195 41.9355 13.5957 41.5723 13.5957C41.2441 13.5957 40.916 13.543 40.5879 13.4375C40.2598 13.332 39.9668 13.1738 39.709 12.9629C39.4512 12.752 39.2402 12.4941 39.0762 12.1895C38.9121 11.873 38.8301 11.5039 38.8301 11.082C38.8301 10.8359 38.8711 10.5781 38.9531 10.3086C39.0469 10.0391 39.1816 9.78125 39.3574 9.53516C39.5332 9.28906 39.7441 9.07227 39.9902 8.88477C40.248 8.69727 40.5469 8.56836 40.8867 8.49805H40.9922C41.1094 8.49805 41.1973 8.50391 41.2559 8.51562ZM41.3613 9.62305C40.9512 9.75195 40.6523 9.93945 40.4648 10.1855C40.2773 10.4199 40.1836 10.6953 40.1836 11.0117C40.1836 11.3867 40.2773 11.709 40.4648 11.9785C40.6641 12.2363 41.0273 12.3652 41.5547 12.3652C41.8594 12.3652 42.1289 12.2539 42.3633 12.0312C42.5977 11.8086 42.7148 11.5098 42.7148 11.1348C42.7148 10.877 42.6738 10.666 42.5918 10.502C42.5215 10.3262 42.4219 10.1855 42.293 10.0801C42.1758 9.96289 42.0352 9.875 41.8711 9.81641C41.707 9.74609 41.5371 9.68164 41.3613 9.62305ZM47.6367 5.01758C47.543 4.91211 47.4961 4.79492 47.4961 4.66602C47.4961 4.47852 47.5723 4.32617 47.7246 4.20898C47.8887 4.08008 48.0586 4.01562 48.2344 4.01562C48.4102 4.01562 48.5801 4.10938 48.7441 4.29688C48.9082 4.47266 49.0547 4.68359 49.1836 4.92969C49.3125 5.16406 49.4238 5.39258 49.5176 5.61523C49.6113 5.83789 49.6758 5.99023 49.7109 6.07227L49.7637 7.42578C49.7637 7.66016 49.7637 7.89453 49.7637 8.12891C49.7754 8.35156 49.7871 8.57422 49.7988 8.79688C49.998 8.65625 50.2383 8.54492 50.5195 8.46289C50.8125 8.36914 51.0938 8.32227 51.3633 8.32227C51.6445 8.32227 51.9375 8.38086 52.2422 8.49805C52.5469 8.61523 52.8281 8.78516 53.0859 9.00781C53.3438 9.23047 53.5547 9.50586 53.7188 9.83398C53.8828 10.1621 53.9648 10.5371 53.9648 10.959C53.9648 11.4277 53.8828 11.8438 53.7188 12.207C53.5664 12.5703 53.3496 12.8809 53.0684 13.1387C52.7871 13.3848 52.4531 13.5723 52.0664 13.7012C51.6797 13.8301 51.2578 13.8945 50.8008 13.8945C50.5781 13.8945 50.3672 13.8652 50.168 13.8066C49.9805 13.7363 49.8047 13.6426 49.6406 13.5254C49.582 13.6777 49.4941 13.7891 49.377 13.8594C49.2715 13.9297 49.1543 13.9648 49.0254 13.9648C48.8496 13.9648 48.6914 13.9121 48.5508 13.8066C48.4102 13.7012 48.3398 13.5488 48.3398 13.3496C48.375 12.7402 48.4043 12.0547 48.4277 11.293C48.4629 10.5195 48.4805 9.74609 48.4805 8.97266C48.4805 8.49219 48.4746 8.03516 48.4629 7.60156C48.4512 7.16797 48.4336 6.76367 48.4102 6.38867C48.3047 6.16602 48.1934 5.94336 48.0762 5.7207C47.959 5.49805 47.8125 5.26367 47.6367 5.01758ZM49.7812 11.0117C49.7812 11.1055 49.7754 11.1992 49.7637 11.293C49.7637 11.3867 49.7637 11.4746 49.7637 11.5566C49.7988 11.873 49.916 12.1484 50.1152 12.3828C50.3262 12.6055 50.6133 12.7168 50.9766 12.7168C51.4805 12.7168 51.8789 12.5703 52.1719 12.2773C52.4766 11.9844 52.6289 11.6152 52.6289 11.1699C52.6172 10.9004 52.5703 10.666 52.4883 10.4668C52.4062 10.2676 52.3066 10.1035 52.1895 9.97461C52.0723 9.83398 51.9434 9.72852 51.8027 9.6582C51.6621 9.58789 51.5273 9.55273 51.3984 9.55273C50.8594 9.58789 50.4727 9.73438 50.2383 9.99219C50.0039 10.2383 49.8516 10.5781 49.7812 11.0117ZM58.0781 8.5332C58.125 8.49805 58.1777 8.46875 58.2363 8.44531C58.2949 8.41016 58.3594 8.39258 58.4297 8.39258C58.7344 8.41602 59.0508 8.49805 59.3789 8.63867C59.707 8.7793 60.0059 8.97852 60.2754 9.23633C60.5449 9.49414 60.7676 9.80469 60.9434 10.168C61.1191 10.5312 61.207 10.9473 61.207 11.416C61.1953 11.9082 61.1074 12.3418 60.9434 12.7168C60.791 13.0801 60.5801 13.3848 60.3105 13.6309C60.0527 13.877 59.7422 14.0586 59.3789 14.1758C59.0273 14.3047 58.6406 14.3691 58.2188 14.3691C57.8906 14.3691 57.5566 14.3047 57.2168 14.1758C56.877 14.0586 56.5723 13.8828 56.3027 13.6484C56.0332 13.4023 55.8105 13.1094 55.6348 12.7695C55.459 12.4297 55.3711 12.0371 55.3711 11.5918C55.3711 11.1934 55.4473 10.8066 55.5996 10.4316C55.752 10.0449 55.9395 9.70508 56.1621 9.41211C56.3965 9.11914 56.6484 8.88477 56.918 8.70898C57.1992 8.5332 57.4629 8.44531 57.709 8.44531C57.8379 8.44531 57.9609 8.47461 58.0781 8.5332ZM58.1836 9.57031C57.9727 9.67578 57.7793 9.78711 57.6035 9.9043C57.4395 10.0098 57.293 10.1387 57.1641 10.291C57.0469 10.4434 56.9531 10.6309 56.8828 10.8535C56.8242 11.0762 56.7949 11.3516 56.7949 11.6797C56.7949 11.9727 56.8418 12.2129 56.9355 12.4004C57.041 12.5879 57.1699 12.7402 57.3223 12.8574C57.4863 12.9629 57.6621 13.0391 57.8496 13.0859C58.0488 13.1211 58.2422 13.1387 58.4297 13.1387C58.8281 13.1387 59.1621 12.9805 59.4316 12.6641C59.7012 12.3477 59.8359 11.9609 59.8359 11.5039C59.8359 11.1523 59.7832 10.8652 59.6777 10.6426C59.584 10.4199 59.4551 10.2441 59.291 10.1152C59.1387 9.97461 58.9629 9.86914 58.7637 9.79883C58.5645 9.7168 58.3711 9.64062 58.1836 9.57031ZM62.7539 12.0488C62.7539 11.6504 62.7539 11.293 62.7539 10.9766C62.7656 10.6484 62.7715 10.3379 62.7715 10.0449C62.7832 9.74023 62.7891 9.42969 62.7891 9.11328C62.8008 8.78516 62.8125 8.41602 62.8242 8.00586C62.8242 7.77148 62.9062 7.60156 63.0703 7.49609C63.2461 7.37891 63.4277 7.32031 63.6152 7.32031C63.7559 7.32031 63.8789 7.37305 63.9844 7.47852C64.1016 7.57227 64.1602 7.71289 64.1602 7.90039C64.1602 8.31055 64.1543 8.68555 64.1426 9.02539C64.1426 9.35352 64.1367 9.68164 64.125 10.0098C64.1133 10.3262 64.1016 10.6484 64.0898 10.9766C64.0898 11.3047 64.0898 11.668 64.0898 12.0664C64.0898 12.2773 64.125 12.459 64.1953 12.6113C64.2773 12.7637 64.377 12.8926 64.4941 12.998C64.623 13.1035 64.7578 13.1797 64.8984 13.2266C65.0391 13.2734 65.1738 13.2969 65.3027 13.2969C65.5488 13.2969 65.8242 13.2031 66.1289 13.0156C66.4453 12.8164 66.7148 12.5645 66.9375 12.2598C66.9141 11.8262 66.8965 11.4336 66.8848 11.082C66.873 10.7188 66.8672 10.3848 66.8672 10.0801C66.8672 9.76367 66.8672 9.43555 66.8672 9.0957C66.8672 8.75586 66.8906 8.45117 66.9375 8.18164C66.9844 7.90039 67.0664 7.67188 67.1836 7.49609C67.3008 7.32031 67.4824 7.23242 67.7285 7.23242C67.8809 7.25586 68.0215 7.32031 68.1504 7.42578C68.2793 7.51953 68.3438 7.6543 68.3438 7.83008C68.3086 8.25195 68.2734 8.70898 68.2383 9.20117C68.2031 9.68164 68.1855 10.1973 68.1855 10.748C68.1855 11.0293 68.1914 11.3281 68.2031 11.6445C68.2148 11.9492 68.2383 12.2598 68.2734 12.5762C68.3203 12.6934 68.3906 12.834 68.4844 12.998C68.5898 13.1621 68.6895 13.3262 68.7832 13.4902C68.8887 13.6543 68.9766 13.8125 69.0469 13.9648C69.1172 14.1055 69.1523 14.2168 69.1523 14.2988C69.1523 14.4863 69.0762 14.6445 68.9238 14.7734C68.7715 14.9023 68.6074 14.9668 68.4316 14.9668C68.3262 14.9668 68.2148 14.9199 68.0977 14.8262C67.9922 14.7441 67.8926 14.6387 67.7988 14.5098C67.7051 14.3809 67.6172 14.2461 67.5352 14.1055C67.4648 13.9766 67.4121 13.8594 67.377 13.7539C67.0723 14.0117 66.7207 14.2227 66.3223 14.3867C65.9238 14.5508 65.5078 14.6328 65.0742 14.6328C64.6992 14.6328 64.3652 14.5566 64.0723 14.4043C63.791 14.252 63.5508 14.0527 63.3516 13.8066C63.1523 13.5605 63 13.2852 62.8945 12.9805C62.8008 12.6641 62.7539 12.3535 62.7539 12.0488ZM71.8945 12.0488C71.9062 11.8145 71.9121 11.5859 71.9121 11.3633C71.9121 11.1406 71.918 10.9238 71.9297 10.7129L71.9824 9.48242H71.4023C71.2383 9.48242 71.0918 9.48242 70.9629 9.48242C70.8457 9.4707 70.7402 9.44727 70.6465 9.41211C70.5527 9.36523 70.4824 9.29492 70.4355 9.20117C70.3887 9.10742 70.3652 8.97266 70.3652 8.79688C70.3652 8.65625 70.3945 8.5332 70.4531 8.42773C70.5234 8.31055 70.6289 8.25195 70.7695 8.25195C70.9102 8.25195 71.0859 8.25781 71.2969 8.26953C71.5195 8.28125 71.7656 8.28125 72.0352 8.26953C72.0352 7.625 72.0234 6.98633 72 6.35352C71.9766 5.7207 71.9648 5.04688 71.9648 4.33203C71.9648 4.13281 72.0352 3.99219 72.1758 3.91016C72.3164 3.81641 72.4688 3.76953 72.6328 3.76953C72.8789 3.76953 73.0547 3.86328 73.1602 4.05078C73.2656 4.22656 73.3359 4.44336 73.3711 4.70117C73.4062 4.95898 73.4121 5.22852 73.3887 5.50977C73.377 5.7793 73.3711 6.00195 73.3711 6.17773C73.3711 6.91602 73.3535 7.60742 73.3184 8.25195C73.8809 8.25195 74.4141 8.24609 74.918 8.23438C75.4336 8.21094 75.832 8.18164 76.1133 8.14648C76.2539 8.16992 76.3535 8.24609 76.4121 8.375C76.4824 8.49219 76.5176 8.62109 76.5176 8.76172C76.5176 8.96094 76.4707 9.10742 76.377 9.20117C76.2949 9.29492 76.1309 9.36523 75.8848 9.41211C75.6504 9.45898 75.3223 9.48242 74.9004 9.48242C74.4902 9.48242 73.9512 9.48242 73.2832 9.48242C73.2598 9.86914 73.2422 10.2676 73.2305 10.6777C73.2305 11.0879 73.2305 11.5215 73.2305 11.9785C73.2305 12.4355 73.3125 12.7871 73.4766 13.0332C73.6406 13.2676 73.8516 13.3848 74.1094 13.3848C74.3906 13.3848 74.6426 13.2852 74.8652 13.0859C75.0879 12.875 75.3047 12.5996 75.5156 12.2598C75.5859 12.1426 75.7031 12.084 75.8672 12.084C76.0312 12.084 76.1777 12.1426 76.3066 12.2598C76.4473 12.377 76.5176 12.5176 76.5176 12.6816C76.5176 12.916 76.4355 13.1504 76.2715 13.3848C76.1074 13.6074 75.8965 13.8125 75.6387 14C75.3809 14.1875 75.0938 14.3398 74.7773 14.457C74.4609 14.5742 74.1562 14.6328 73.8633 14.6328C73.5 14.6328 73.1895 14.5566 72.9316 14.4043C72.6855 14.252 72.4863 14.0527 72.334 13.8066C72.1816 13.5605 72.0703 13.2852 72 12.9805C71.9297 12.6641 71.8945 12.3535 71.8945 12.0488ZM82.8984 8.84961C82.8047 8.7207 82.7578 8.60352 82.7578 8.49805C82.7578 8.32227 82.8398 8.16992 83.0039 8.04102C83.168 7.91211 83.3379 7.84766 83.5137 7.84766C83.6309 7.84766 83.7363 7.88281 83.8301 7.95312C83.9355 8.02344 84.0234 8.11133 84.0938 8.2168C84.1641 8.31055 84.2285 8.41602 84.2871 8.5332C84.3457 8.63867 84.3984 8.73242 84.4453 8.81445C84.6445 8.74414 84.8555 8.68555 85.0781 8.63867C85.3008 8.5918 85.5469 8.56836 85.8164 8.56836C86.0508 8.56836 86.2969 8.5918 86.5547 8.63867C86.8242 8.67383 87.0996 8.77344 87.3809 8.9375C87.6152 8.82031 87.8848 8.73242 88.1895 8.67383C88.4941 8.61523 88.8105 8.58594 89.1387 8.58594C89.3613 8.58594 89.6133 8.60352 89.8945 8.63867C90.1758 8.67383 90.4395 8.79102 90.6855 8.99023C90.9316 9.17773 91.1367 9.47656 91.3008 9.88672C91.4648 10.2852 91.5469 10.8477 91.5469 11.5742C91.5469 11.9258 91.541 12.2656 91.5293 12.5938C91.5176 12.9219 91.4824 13.2148 91.4238 13.4727C91.377 13.7188 91.3008 13.918 91.1953 14.0703C91.0898 14.2227 90.9434 14.2988 90.7559 14.2988C90.6035 14.2988 90.4512 14.252 90.2988 14.1582C90.1582 14.0645 90.0879 13.9355 90.0879 13.7715C90.0879 13.5723 90.1113 13.3262 90.1582 13.0332C90.2051 12.7402 90.2285 12.4414 90.2285 12.1367C90.2285 11.75 90.2227 11.4102 90.2109 11.1172C90.1992 10.8242 90.1523 10.584 90.0703 10.3965C89.9883 10.1973 89.8652 10.0508 89.7012 9.95703C89.5371 9.86328 89.3027 9.81641 88.998 9.81641C88.6816 9.81641 88.377 9.86914 88.084 9.97461L88.1367 10.1855C88.1719 10.3613 88.1953 10.5723 88.207 10.8184C88.2305 11.0527 88.2422 11.3047 88.2422 11.5742C88.2422 11.8672 88.2422 12.1777 88.2422 12.5059C88.2422 12.8223 88.2246 13.1152 88.1895 13.3848C88.1543 13.6426 88.084 13.8594 87.9785 14.0352C87.8848 14.2109 87.7383 14.2988 87.5391 14.2988C87.3398 14.2988 87.1699 14.2402 87.0293 14.123C86.9004 14.0059 86.8359 13.8535 86.8359 13.666C86.8359 13.3379 86.8535 12.957 86.8887 12.5234C86.9238 12.0898 86.9414 11.6973 86.9414 11.3457C86.9414 10.877 86.8594 10.5078 86.6953 10.2383C86.5312 9.95703 86.209 9.81641 85.7285 9.81641C85.459 9.81641 85.1953 9.86328 84.9375 9.95703V9.97461C84.9492 10.2793 84.9551 10.6074 84.9551 10.959C84.9668 11.2988 84.9727 11.6445 84.9727 11.9961C84.9727 12.3125 84.9727 12.6113 84.9727 12.8926C84.9727 13.1738 84.9492 13.4199 84.9023 13.6309C84.8555 13.8418 84.7734 14.0117 84.6562 14.1406C84.5508 14.2695 84.3867 14.334 84.1641 14.334C84 14.3105 83.8652 14.252 83.7598 14.1582C83.6543 14.0645 83.6016 13.9414 83.6016 13.7891C83.6016 13.4375 83.6133 13.0684 83.6367 12.6816C83.6602 12.2949 83.6719 11.8789 83.6719 11.4336C83.6719 11.2109 83.666 11.0117 83.6543 10.8359C83.6543 10.6602 83.6484 10.4902 83.6367 10.3262C83.5078 10.127 83.3906 9.9043 83.2852 9.6582C83.1914 9.40039 83.0625 9.13086 82.8984 8.84961ZM98.4727 9.13086C98.8359 9.63477 99.0176 10.0742 99.0176 10.4492C99.0176 10.8477 98.8125 11.1113 98.4023 11.2402L94.7285 12.3301C94.8809 12.5645 95.0742 12.7461 95.3086 12.875C95.5547 13.0039 95.8008 13.0684 96.0469 13.0684C96.4336 13.0684 96.7969 13.0098 97.1367 12.8926C97.4883 12.7637 97.8164 12.541 98.1211 12.2246C98.2031 12.1426 98.2969 12.1016 98.4023 12.1016C98.543 12.1016 98.6836 12.1719 98.8242 12.3125C98.9766 12.4414 99.0527 12.5879 99.0527 12.752C99.0527 12.916 98.9707 13.0859 98.8066 13.2617C98.6543 13.4375 98.4492 13.6074 98.1914 13.7715C97.9336 13.9238 97.6406 14.0469 97.3125 14.1406C96.9844 14.2461 96.6504 14.2988 96.3105 14.2988C95.9707 14.2988 95.6074 14.2461 95.2207 14.1406C94.8457 14.0352 94.4941 13.8711 94.166 13.6484C93.8379 13.4141 93.5684 13.1152 93.3574 12.752C93.1465 12.3887 93.041 11.9434 93.041 11.416C93.041 10.8535 93.2227 10.209 93.5859 9.48242C93.8203 9.02539 94.1777 8.69141 94.6582 8.48047C95.1504 8.25781 95.666 8.14648 96.2051 8.14648C96.6504 8.14648 97.0723 8.22852 97.4707 8.39258C97.8809 8.55664 98.2148 8.80273 98.4727 9.13086ZM94.4297 11.1523L97.6289 10.2207C97.5703 9.91602 97.4121 9.69336 97.1543 9.55273C96.9082 9.40039 96.6328 9.32422 96.3281 9.32422C95.9883 9.32422 95.6953 9.38867 95.4492 9.51758C95.2148 9.63477 95.0215 9.78711 94.8691 9.97461C94.7168 10.1621 94.6055 10.3613 94.5352 10.5723C94.4648 10.7832 94.4297 10.9766 94.4297 11.1523Z" transform="translate(0 5.00003)" fill="#F2F2F2"/>
</svg>
