<svg width="193" height="36" viewBox="0 0 193 36" fill="none" xmlns="http://www.w3.org/2000/svg">
<path d="M17.9245 43.8924C8.26508 44.6805 3.27497 34.6502 2.95418 26.3036C2.77596 21.9691 3.63141 17.5988 5.41359 13.6583C6.91062 10.3627 9.12053 6.81627 12.3285 4.95351C10.7958 6.88791 9.54825 9.00143 8.62152 11.3299C8.62152 11.3657 8.58587 11.4015 8.58587 11.4373C8.51459 11.6165 8.55023 11.7956 8.69281 11.903C8.72845 12.2971 9.29875 12.4762 9.61954 12.0821C9.65518 12.0463 9.65518 12.0463 9.69083 12.0105C9.8334 12.0105 9.97598 11.9389 10.0829 11.7956C10.1186 11.7597 10.1542 11.7239 10.1898 11.6523C10.0473 11.9747 9.90469 12.3329 9.72647 12.6553C9.47696 13.2285 10.2611 13.73 10.5819 13.1568C12.1502 10.5418 13.7186 7.92676 15.2869 5.27591C15.3582 5.16844 15.3582 5.02515 15.3225 4.91768C15.679 4.48781 16.0354 4.09377 16.4275 3.69972C16.677 3.44897 16.57 2.98328 16.2136 2.91163C16.178 2.91163 16.178 2.91163 16.1423 2.91163C16.2136 2.66088 16.1067 2.41012 15.8215 2.33848C15.3938 2.23101 14.9661 2.15936 14.5027 2.0519C14.4671 2.01607 14.3958 1.98025 14.3601 1.98025C13.576 1.80114 12.8275 1.65785 12.079 1.55038C9.72647 1.04887 7.37399 0.511537 5.02151 0.0100244C4.45121 -0.0974426 4.23735 0.690649 4.77201 0.86976C5.6631 1.19216 6.58983 1.44292 7.51657 1.69367C7.08884 1.65785 6.66112 1.58621 6.2334 1.51456C5.77003 1.44292 5.30666 1.37127 4.80765 1.29963C4.41557 1.22798 4.20171 1.58621 4.23735 1.87279C3.91656 1.87279 3.63141 1.87279 3.31062 1.87279C2.81161 1.90861 2.66903 2.73252 3.20369 2.83999C5.59181 3.3415 8.01558 3.48479 10.4393 3.48479C4.45121 6.35058 1.10071 12.9777 0.280909 19.5332C-0.253745 23.9035 -0.00423987 28.453 0.851207 32.7516C1.59972 36.5488 3.1324 40.3818 6.12646 42.9252C9.29875 45.6118 13.5047 46.6865 17.5681 45.9342C18.0314 45.8626 17.9958 45.1103 17.5681 45.0029C17.0691 44.8954 16.57 44.7521 16.071 44.6088C16.7126 44.6446 17.3542 44.6088 17.9958 44.5014C18.3522 44.5014 18.2809 43.8566 17.9245 43.8924ZM7.37399 8.14169C6.19775 9.68205 5.23537 11.4373 4.45121 13.2643C5.16409 11.3657 6.12646 9.61041 7.37399 8.14169ZM1.59972 31.7486C1.31457 30.0291 1.13636 28.3097 1.06507 26.626C0.958138 24.8349 0.993782 22.9363 1.172 21.0377C1.172 22.3632 1.20764 23.6528 1.35022 24.9065C1.38586 25.1573 1.38586 25.4439 1.42151 25.6946C1.35022 27.3066 1.42151 28.9186 1.63537 30.459C1.52844 30.5306 1.49279 30.6381 1.49279 30.8172C1.52844 31.1396 1.56408 31.462 1.59972 31.7486ZM4.23735 11.1149C4.59379 10.4701 4.98587 9.89699 5.41359 9.32383C4.13042 11.2941 3.20369 13.5867 2.59775 15.9151C2.91854 14.2315 3.45319 12.5837 4.23735 11.1149ZM3.1324 37.1578C3.41755 37.8026 3.73834 38.4116 4.09478 38.9847C4.20171 39.1996 4.37993 39.4862 4.59379 39.8086C4.02349 38.9847 3.52448 38.0892 3.1324 37.1578ZM6.87498 42.2804C7.19577 42.4237 7.51657 42.4953 7.83736 42.3878C7.90865 42.4595 7.97993 42.4953 8.05122 42.5669C8.69281 43.2118 9.44132 43.7849 10.2255 44.2506C8.97795 43.7849 7.873 43.1401 6.87498 42.2804Z" transform="matrix(-0.581524 0.813529 -0.821578 -0.570097 169.532 23.6311)" fill="#F2F2F2"/>
<path d="M38.8769 6.7347C38.7703 6.68081 38.717 6.68081 38.6104 6.62692C39.0901 6.3575 39.1434 5.49533 38.5038 5.27979C38.344 5.2259 38.1841 5.17202 38.0775 5.11813C37.9709 4.63316 37.3847 4.41762 36.9583 4.68705C34.4535 3.82488 32.002 2.90883 29.5505 1.99278C28.6979 1.66946 27.8984 1.29226 27.0458 0.968952C26.9392 0.915067 26.7793 0.915067 26.6727 0.968952C25.82 0.645639 24.9673 0.322327 24.1679 0.0528993C23.635 -0.162643 23.2619 0.322327 23.3152 0.75341C23.2086 0.75341 23.1553 0.75341 23.0487 0.699525C22.9955 0.699525 22.9422 0.699525 22.8356 0.699525C22.5691 0.645639 22.3559 0.807296 22.2493 0.968952H22.196C21.2901 0.699525 20.917 2.10055 21.823 2.36997C23.635 3.0166 25.4469 3.60934 27.2589 4.25597C27.4188 4.41762 27.5254 4.47151 28.005 4.68705C28.1649 4.74093 28.3248 4.74093 28.4314 4.63316C29.5505 5.01036 30.6164 5.38756 31.7356 5.81864C21.7697 8.1896 13.4026 15.518 8.55292 24.6786C7.27388 27.0495 6.2613 29.5282 5.4619 32.007C0.185846 42.0297 -2.31895 54.7466 2.79723 65.1465C2.95711 65.5237 3.59663 65.2543 3.43675 64.8771C2.69064 63.0989 2.1577 61.2129 1.78465 59.3808C2.47747 61.5901 3.59663 63.6916 5.19543 65.7393C5.56849 66.2242 6.20801 65.7932 6.2613 65.3082C6.74094 65.6854 7.59364 65.1465 7.22058 64.4999C6.47448 63.2067 5.88825 61.8056 5.40861 60.3507C4.44932 54.4772 4.12956 48.442 4.71579 42.5146C4.92897 41.2753 5.24873 40.0898 5.56849 38.8504C6.63436 35.9945 7.96669 33.3002 9.5122 30.7137C12.6032 25.5946 16.2805 20.5833 20.544 16.3802C21.1835 15.7336 21.8763 15.1408 22.6224 14.5481C25.0206 12.8776 27.5787 11.4227 30.2434 10.2373C28.6446 11.9077 27.1523 13.7398 25.82 15.5719C25.5002 15.9491 25.82 16.4341 26.1931 16.5957C25.9799 17.2424 26.8859 17.7273 27.4188 17.2962C28.005 16.8113 28.538 16.3263 29.0709 15.8952C29.3374 16.1647 29.7637 16.2724 30.0835 15.9491C30.6697 15.4103 31.1494 14.8175 31.6823 14.2248C33.9206 11.9616 36.4254 9.91394 39.0901 8.08183C39.5697 7.70463 39.4631 6.95024 38.8769 6.7347ZM1.94453 51.1363C1.94453 54.8544 2.69064 58.5725 4.34274 62.0212C4.34274 62.0751 4.34274 62.1289 4.39603 62.2367C2.42417 58.7881 1.78465 55.0161 1.94453 51.1363ZM36.7985 7.54298C36.905 7.59686 36.9583 7.59686 37.0649 7.65075C36.8518 7.81241 36.5853 7.97406 36.3721 8.13572C36.532 7.97406 36.6386 7.75852 36.7985 7.54298ZM9.40562 28.3428C9.67208 27.75 9.99184 27.2112 10.2583 26.6723C10.9511 25.7024 11.6972 24.7324 12.4966 23.8164C11.4308 25.2713 10.3649 26.834 9.40562 28.3428ZM14.4152 18.3201C18.8919 12.9854 24.8074 8.944 31.4691 7.21967C31.2026 7.38132 30.8829 7.54298 30.6164 7.70463C24.2745 9.48285 18.7853 13.3087 14.4152 18.3201ZM21.9296 13.3626C20.917 14.0631 19.9044 14.8175 18.9451 15.5719C20.1709 14.4942 21.5032 13.4704 22.8889 12.5543C22.6224 12.8238 22.2493 13.0932 21.9296 13.3626Z" transform="matrix(0.36231 0.932058 -0.935605 0.353049 182.728 -16)" fill="#F2F2F2"/>
<path d="M1.01953 4.45508C1.37109 4.51367 1.82812 4.55469 2.39062 4.57812C2.95312 4.60156 3.5332 4.61328 4.13086 4.61328C4.72852 4.61328 5.29688 4.5957 5.83594 4.56055C6.375 4.51367 6.80859 4.45508 7.13672 4.38477C7.28906 4.23242 7.44141 4.12109 7.59375 4.05078C7.74609 3.98047 7.92188 3.91602 8.12109 3.85742C8.26172 3.89258 8.38477 4.00391 8.49023 4.19141C8.60742 4.36719 8.66602 4.55469 8.66602 4.75391C8.66602 4.95313 8.63086 5.12305 8.56055 5.26367C8.49023 5.39258 8.36719 5.47461 8.19141 5.50977C7.78125 5.60352 7.32422 5.68555 6.82031 5.75586C6.31641 5.82617 5.80078 5.87305 5.27344 5.89648V7.8125C5.27344 8.39844 5.27344 9.01953 5.27344 9.67578C5.27344 10.332 5.26758 10.9531 5.25586 11.5391C5.25586 12.125 5.25 12.6465 5.23828 13.1035C5.22656 13.5488 5.21484 13.8535 5.20312 14.0176C5.16797 14.1582 5.07422 14.2578 4.92188 14.3164C4.78125 14.3867 4.62891 14.4219 4.46484 14.4219C4.30078 14.4219 4.14844 14.3809 4.00781 14.2988C3.86719 14.2168 3.79688 14.1113 3.79688 13.9824C3.79688 13.8887 3.79688 13.7422 3.79688 13.543C3.79688 13.332 3.80273 13.0566 3.81445 12.7168L3.91992 7.91797C3.93164 7.50781 3.9375 7.13867 3.9375 6.81055C3.9375 6.4707 3.9375 6.17773 3.9375 5.93164C3.41016 5.93164 2.92969 5.93164 2.49609 5.93164C2.07422 5.91992 1.70508 5.89062 1.38867 5.84375C1.08398 5.78516 0.84375 5.69727 0.667969 5.58008C0.503906 5.46289 0.421875 5.28711 0.421875 5.05273C0.421875 4.88867 0.474609 4.74805 0.580078 4.63086C0.685547 4.51367 0.832031 4.45508 1.01953 4.45508ZM9.80859 6.10742C9.72656 6.01367 9.68555 5.89648 9.68555 5.75586C9.68555 5.58008 9.75 5.42773 9.87891 5.29883C10.0078 5.1582 10.1719 5.08789 10.3711 5.08789C10.6758 5.08789 10.9277 5.23438 11.127 5.52734C11.3262 5.80859 11.4785 6.14258 11.584 6.5293C11.7012 6.91602 11.7832 7.31445 11.8301 7.72461C11.8887 8.13477 11.9297 8.46289 11.9531 8.70898C12.1406 8.66211 12.3281 8.62109 12.5156 8.58594C12.7031 8.55078 12.9082 8.5332 13.1309 8.5332C13.3184 8.5332 13.5645 8.55078 13.8691 8.58594C14.1855 8.60938 14.4902 8.7207 14.7832 8.91992C15.0762 9.10742 15.3281 9.41211 15.5391 9.83398C15.75 10.2559 15.8555 10.8594 15.8555 11.6445C15.8555 12.0195 15.8496 12.377 15.8379 12.7168C15.8262 13.0566 15.791 13.3613 15.7324 13.6309C15.6855 13.9004 15.6094 14.1113 15.5039 14.2637C15.3984 14.4277 15.252 14.5098 15.0645 14.5098C14.9121 14.5098 14.7598 14.4629 14.6074 14.3691C14.4668 14.2754 14.3965 14.1465 14.3965 13.9824C14.3965 13.7832 14.4199 13.5312 14.4668 13.2266C14.5137 12.9102 14.5371 12.582 14.5371 12.2422C14.5371 11.8086 14.5254 11.4395 14.502 11.1348C14.4785 10.8184 14.4199 10.5605 14.3262 10.3613C14.2324 10.1621 14.0859 10.0215 13.8867 9.93945C13.6875 9.8457 13.4121 9.79883 13.0605 9.79883C13.002 9.79883 12.9434 9.80469 12.8848 9.81641C12.8262 9.81641 12.7676 9.81641 12.709 9.81641L12.0059 9.99219C12.0059 10.6367 11.9941 11.2871 11.9707 11.9434C11.9473 12.5996 11.9062 13.209 11.8477 13.7715C11.8242 13.9707 11.7422 14.123 11.6016 14.2285C11.4609 14.3457 11.3086 14.4043 11.1445 14.4043C10.9805 14.4043 10.8398 14.3574 10.7227 14.2637C10.6055 14.1816 10.5469 14.0527 10.5469 13.877C10.5469 13.2676 10.5645 12.6406 10.5996 11.9961C10.6465 11.3516 10.6699 10.7188 10.6699 10.0977C10.6699 9.72266 10.6699 9.37109 10.6699 9.04297C10.6816 8.71484 10.6641 8.39844 10.6172 8.09375C10.5703 7.77734 10.4824 7.46094 10.3535 7.14453C10.2363 6.81641 10.0547 6.4707 9.80859 6.10742ZM22.8164 9.13086C23.1797 9.63477 23.3613 10.0742 23.3613 10.4492C23.3613 10.8477 23.1562 11.1113 22.7461 11.2402L19.0723 12.3301C19.2246 12.5645 19.418 12.7461 19.6523 12.875C19.8984 13.0039 20.1445 13.0684 20.3906 13.0684C20.7773 13.0684 21.1406 13.0098 21.4805 12.8926C21.832 12.7637 22.1602 12.541 22.4648 12.2246C22.5469 12.1426 22.6406 12.1016 22.7461 12.1016C22.8867 12.1016 23.0273 12.1719 23.168 12.3125C23.3203 12.4414 23.3965 12.5879 23.3965 12.752C23.3965 12.916 23.3145 13.0859 23.1504 13.2617C22.998 13.4375 22.793 13.6074 22.5352 13.7715C22.2773 13.9238 21.9844 14.0469 21.6562 14.1406C21.3281 14.2461 20.9941 14.2988 20.6543 14.2988C20.3145 14.2988 19.9512 14.2461 19.5645 14.1406C19.1895 14.0352 18.8379 13.8711 18.5098 13.6484C18.1816 13.4141 17.9121 13.1152 17.7012 12.752C17.4902 12.3887 17.3848 11.9434 17.3848 11.416C17.3848 10.8535 17.5664 10.209 17.9297 9.48242C18.1641 9.02539 18.5215 8.69141 19.002 8.48047C19.4941 8.25781 20.0098 8.14648 20.5488 8.14648C20.9941 8.14648 21.416 8.22852 21.8145 8.39258C22.2246 8.55664 22.5586 8.80273 22.8164 9.13086ZM18.7734 11.1523L21.9727 10.2207C21.9141 9.91602 21.7559 9.69336 21.498 9.55273C21.252 9.40039 20.9766 9.32422 20.6719 9.32422C20.332 9.32422 20.0391 9.38867 19.793 9.51758C19.5586 9.63477 19.3652 9.78711 19.2129 9.97461C19.0605 10.1621 18.9492 10.3613 18.8789 10.5723C18.8086 10.7832 18.7734 10.9766 18.7734 11.1523ZM27.0527 9.79883C27.5215 9.33008 28.0781 8.95508 28.7227 8.67383C29.3672 8.38086 30.0469 8.2168 30.7617 8.18164C30.9375 8.20508 31.0664 8.28711 31.1484 8.42773C31.2422 8.55664 31.2891 8.69727 31.2891 8.84961C31.2891 8.97852 31.2539 9.10156 31.1836 9.21875C31.125 9.32422 31.0312 9.37695 30.9023 9.37695C30.1289 9.55273 29.4492 9.77539 28.8633 10.0449C28.2891 10.3145 27.8262 10.6719 27.4746 11.1172C27.4746 11.3516 27.4863 11.5859 27.5098 11.8203C27.5449 12.043 27.5625 12.2773 27.5625 12.5234C27.5625 12.8281 27.5508 13.1328 27.5273 13.4375C27.5156 13.7422 27.4805 14.041 27.4219 14.334C27.4102 14.4863 27.334 14.5918 27.1934 14.6504C27.0527 14.709 26.9004 14.7383 26.7363 14.7383C26.5723 14.7383 26.4199 14.6973 26.2793 14.6152C26.1504 14.5449 26.0859 14.4395 26.0859 14.2988C26.1211 13.9707 26.1504 13.6367 26.1738 13.2969C26.209 12.9453 26.2266 12.5996 26.2266 12.2598C26.2266 11.8027 26.168 11.4219 26.0508 11.1172C25.9453 10.8125 25.8457 10.5605 25.752 10.3613C25.7168 10.3027 25.6465 10.2207 25.541 10.1152C25.4473 9.99805 25.3477 9.88086 25.2422 9.76367C25.1367 9.63477 25.043 9.50586 24.9609 9.37695C24.8789 9.24805 24.8379 9.13672 24.8379 9.04297C24.8379 8.84375 24.9141 8.67383 25.0664 8.5332C25.2305 8.38086 25.4121 8.30469 25.6113 8.30469C25.8105 8.30469 26.0449 8.45117 26.3145 8.74414C26.584 9.03711 26.8301 9.38867 27.0527 9.79883ZM38.3555 9.13086C38.7188 9.63477 38.9004 10.0742 38.9004 10.4492C38.9004 10.8477 38.6953 11.1113 38.2852 11.2402L34.6113 12.3301C34.7637 12.5645 34.957 12.7461 35.1914 12.875C35.4375 13.0039 35.6836 13.0684 35.9297 13.0684C36.3164 13.0684 36.6797 13.0098 37.0195 12.8926C37.3711 12.7637 37.6992 12.541 38.0039 12.2246C38.0859 12.1426 38.1797 12.1016 38.2852 12.1016C38.4258 12.1016 38.5664 12.1719 38.707 12.3125C38.8594 12.4414 38.9355 12.5879 38.9355 12.752C38.9355 12.916 38.8535 13.0859 38.6895 13.2617C38.5371 13.4375 38.332 13.6074 38.0742 13.7715C37.8164 13.9238 37.5234 14.0469 37.1953 14.1406C36.8672 14.2461 36.5332 14.2988 36.1934 14.2988C35.8535 14.2988 35.4902 14.2461 35.1035 14.1406C34.7285 14.0352 34.377 13.8711 34.0488 13.6484C33.7207 13.4141 33.4512 13.1152 33.2402 12.752C33.0293 12.3887 32.9238 11.9434 32.9238 11.416C32.9238 10.8535 33.1055 10.209 33.4688 9.48242C33.7031 9.02539 34.0605 8.69141 34.541 8.48047C35.0332 8.25781 35.5488 8.14648 36.0879 8.14648C36.5332 8.14648 36.9551 8.22852 37.3535 8.39258C37.7637 8.55664 38.0977 8.80273 38.3555 9.13086ZM34.3125 11.1523L37.5117 10.2207C37.4531 9.91602 37.2949 9.69336 37.0371 9.55273C36.791 9.40039 36.5156 9.32422 36.2109 9.32422C35.8711 9.32422 35.5781 9.38867 35.332 9.51758C35.0977 9.63477 34.9043 9.78711 34.752 9.97461C34.5996 10.1621 34.4883 10.3613 34.418 10.5723C34.3477 10.7832 34.3125 10.9766 34.3125 11.1523ZM41.3438 3.1543C41.3789 2.86133 41.4844 2.64453 41.6602 2.50391C41.8359 2.35156 42.0586 2.27539 42.3281 2.27539C42.4336 2.27539 42.5508 2.29297 42.6797 2.32812C42.8203 2.36328 42.9492 2.42773 43.0664 2.52148C43.1953 2.60352 43.3008 2.71484 43.3828 2.85547C43.4766 2.98438 43.5234 3.14844 43.5234 3.34766C43.5234 3.57031 43.5 3.81055 43.4531 4.06836C43.4062 4.31445 43.3359 4.56055 43.2422 4.80664C43.1484 5.05273 43.0254 5.28711 42.873 5.50977C42.7324 5.73242 42.5625 5.93164 42.3633 6.10742C42.2578 6.22461 42.1406 6.2832 42.0117 6.2832C41.8828 6.2832 41.7598 6.23047 41.6426 6.125C41.5371 6.01953 41.4844 5.89648 41.4844 5.75586C41.4844 5.67383 41.5078 5.60352 41.5547 5.54492C41.7305 5.3457 41.8711 5.1582 41.9766 4.98242C42.0938 4.79492 42.1875 4.5957 42.2578 4.38477C41.9414 4.38477 41.707 4.2793 41.5547 4.06836C41.4023 3.8457 41.3262 3.60547 41.3262 3.34766C41.3262 3.26563 41.332 3.20117 41.3438 3.1543ZM45.668 10.2559C45.5508 10.0918 45.4922 9.86328 45.4922 9.57031C45.4922 9.24219 45.5508 8.9375 45.668 8.65625C45.7852 8.36328 45.9551 8.11133 46.1777 7.90039C46.4004 7.68945 46.6758 7.52539 47.0039 7.4082C47.332 7.2793 47.7129 7.21484 48.1465 7.21484C48.416 7.21484 48.6973 7.25586 48.9902 7.33789C49.2832 7.4082 49.5469 7.50195 49.7812 7.61914C50.0273 7.73633 50.2266 7.87109 50.3789 8.02344C50.5312 8.16406 50.6074 8.30469 50.6074 8.44531C50.6074 8.64453 50.5312 8.80273 50.3789 8.91992C50.2266 9.03711 50.0859 9.0957 49.957 9.0957C49.9102 9.0957 49.8516 9.08398 49.7812 9.06055C49.3828 8.86133 49.0312 8.7207 48.7266 8.63867C48.4219 8.55664 48.1523 8.51562 47.918 8.51562C47.543 8.51562 47.2617 8.62109 47.0742 8.83203C46.8984 9.03125 46.8105 9.2832 46.8105 9.58789C46.8105 9.86914 46.9102 10.0859 47.1094 10.2383C47.3086 10.3789 47.5547 10.502 47.8477 10.6074C48.1523 10.7012 48.4805 10.7949 48.832 10.8887C49.1836 10.9707 49.5059 11.0938 49.7988 11.2578C50.1035 11.4219 50.3555 11.6387 50.5547 11.9082C50.7539 12.166 50.8535 12.5234 50.8535 12.9805C50.8535 13.6016 50.625 14.0586 50.168 14.3516C49.7227 14.6562 49.1133 14.8086 48.3398 14.8086C48.0234 14.8086 47.6953 14.791 47.3555 14.7559C47.0156 14.7207 46.7051 14.6621 46.4238 14.5801C46.1543 14.5098 45.9316 14.4102 45.7559 14.2812C45.5801 14.1523 45.4922 13.9883 45.4922 13.7891C45.4922 13.6367 45.5332 13.4961 45.6152 13.3672C45.709 13.2266 45.832 13.1562 45.9844 13.1562C46.0078 13.1562 46.0254 13.1621 46.0371 13.1738C46.0488 13.1738 46.0664 13.1738 46.0898 13.1738C46.5 13.3613 46.8867 13.4902 47.25 13.5605C47.6133 13.6191 47.9297 13.6484 48.1992 13.6484C48.7266 13.6484 49.0957 13.584 49.3066 13.4551C49.5176 13.3262 49.623 13.1445 49.623 12.9102C49.623 12.7227 49.5469 12.5645 49.3945 12.4355C49.2539 12.2949 49.0723 12.1836 48.8496 12.1016C48.6387 12.0078 48.4043 11.9258 48.1465 11.8555C47.9004 11.7852 47.6719 11.7148 47.4609 11.6445C47.1328 11.5391 46.8105 11.3867 46.4941 11.1875C46.1895 10.9883 45.9141 10.6777 45.668 10.2559ZM56.8125 8.84961C56.7188 8.7207 56.6719 8.60352 56.6719 8.49805C56.6719 8.32227 56.7539 8.16992 56.918 8.04102C57.082 7.91211 57.252 7.84766 57.4277 7.84766C57.5449 7.84766 57.6504 7.88281 57.7441 7.95312C57.8496 8.02344 57.9375 8.11133 58.0078 8.2168C58.0781 8.31055 58.1426 8.41602 58.2012 8.5332C58.2598 8.63867 58.3125 8.73242 58.3594 8.81445C58.5586 8.74414 58.7695 8.68555 58.9922 8.63867C59.2148 8.5918 59.4609 8.56836 59.7305 8.56836C59.9648 8.56836 60.2109 8.5918 60.4688 8.63867C60.7383 8.67383 61.0137 8.77344 61.2949 8.9375C61.5293 8.82031 61.7988 8.73242 62.1035 8.67383C62.4082 8.61523 62.7246 8.58594 63.0527 8.58594C63.2754 8.58594 63.5273 8.60352 63.8086 8.63867C64.0898 8.67383 64.3535 8.79102 64.5996 8.99023C64.8457 9.17773 65.0508 9.47656 65.2148 9.88672C65.3789 10.2852 65.4609 10.8477 65.4609 11.5742C65.4609 11.9258 65.4551 12.2656 65.4434 12.5938C65.4316 12.9219 65.3965 13.2148 65.3379 13.4727C65.291 13.7188 65.2148 13.918 65.1094 14.0703C65.0039 14.2227 64.8574 14.2988 64.6699 14.2988C64.5176 14.2988 64.3652 14.252 64.2129 14.1582C64.0723 14.0645 64.002 13.9355 64.002 13.7715C64.002 13.5723 64.0254 13.3262 64.0723 13.0332C64.1191 12.7402 64.1426 12.4414 64.1426 12.1367C64.1426 11.75 64.1367 11.4102 64.125 11.1172C64.1133 10.8242 64.0664 10.584 63.9844 10.3965C63.9023 10.1973 63.7793 10.0508 63.6152 9.95703C63.4512 9.86328 63.2168 9.81641 62.9121 9.81641C62.5957 9.81641 62.291 9.86914 61.998 9.97461L62.0508 10.1855C62.0859 10.3613 62.1094 10.5723 62.1211 10.8184C62.1445 11.0527 62.1562 11.3047 62.1562 11.5742C62.1562 11.8672 62.1562 12.1777 62.1562 12.5059C62.1562 12.8223 62.1387 13.1152 62.1035 13.3848C62.0684 13.6426 61.998 13.8594 61.8926 14.0352C61.7988 14.2109 61.6523 14.2988 61.4531 14.2988C61.2539 14.2988 61.084 14.2402 60.9434 14.123C60.8145 14.0059 60.75 13.8535 60.75 13.666C60.75 13.3379 60.7676 12.957 60.8027 12.5234C60.8379 12.0898 60.8555 11.6973 60.8555 11.3457C60.8555 10.877 60.7734 10.5078 60.6094 10.2383C60.4453 9.95703 60.123 9.81641 59.6426 9.81641C59.373 9.81641 59.1094 9.86328 58.8516 9.95703V9.97461C58.8633 10.2793 58.8691 10.6074 58.8691 10.959C58.8809 11.2988 58.8867 11.6445 58.8867 11.9961C58.8867 12.3125 58.8867 12.6113 58.8867 12.8926C58.8867 13.1738 58.8633 13.4199 58.8164 13.6309C58.7695 13.8418 58.6875 14.0117 58.5703 14.1406C58.4648 14.2695 58.3008 14.334 58.0781 14.334C57.9141 14.3105 57.7793 14.252 57.6738 14.1582C57.5684 14.0645 57.5156 13.9414 57.5156 13.7891C57.5156 13.4375 57.5273 13.0684 57.5508 12.6816C57.5742 12.2949 57.5859 11.8789 57.5859 11.4336C57.5859 11.2109 57.5801 11.0117 57.5684 10.8359C57.5684 10.6602 57.5625 10.4902 57.5508 10.3262C57.4219 10.127 57.3047 9.9043 57.1992 9.6582C57.1055 9.40039 56.9766 9.13086 56.8125 8.84961ZM69.5742 8.5332C69.6211 8.49805 69.6738 8.46875 69.7324 8.44531C69.791 8.41016 69.8555 8.39258 69.9258 8.39258C70.2305 8.41602 70.5469 8.49805 70.875 8.63867C71.2031 8.7793 71.502 8.97852 71.7715 9.23633C72.041 9.49414 72.2637 9.80469 72.4395 10.168C72.6152 10.5312 72.7031 10.9473 72.7031 11.416C72.6914 11.9082 72.6035 12.3418 72.4395 12.7168C72.2871 13.0801 72.0762 13.3848 71.8066 13.6309C71.5488 13.877 71.2383 14.0586 70.875 14.1758C70.5234 14.3047 70.1367 14.3691 69.7148 14.3691C69.3867 14.3691 69.0527 14.3047 68.7129 14.1758C68.373 14.0586 68.0684 13.8828 67.7988 13.6484C67.5293 13.4023 67.3066 13.1094 67.1309 12.7695C66.9551 12.4297 66.8672 12.0371 66.8672 11.5918C66.8672 11.1934 66.9434 10.8066 67.0957 10.4316C67.248 10.0449 67.4355 9.70508 67.6582 9.41211C67.8926 9.11914 68.1445 8.88477 68.4141 8.70898C68.6953 8.5332 68.959 8.44531 69.2051 8.44531C69.334 8.44531 69.457 8.47461 69.5742 8.5332ZM69.6797 9.57031C69.4688 9.67578 69.2754 9.78711 69.0996 9.9043C68.9355 10.0098 68.7891 10.1387 68.6602 10.291C68.543 10.4434 68.4492 10.6309 68.3789 10.8535C68.3203 11.0762 68.291 11.3516 68.291 11.6797C68.291 11.9727 68.3379 12.2129 68.4316 12.4004C68.5371 12.5879 68.666 12.7402 68.8184 12.8574C68.9824 12.9629 69.1582 13.0391 69.3457 13.0859C69.5449 13.1211 69.7383 13.1387 69.9258 13.1387C70.3242 13.1387 70.6582 12.9805 70.9277 12.6641C71.1973 12.3477 71.332 11.9609 71.332 11.5039C71.332 11.1523 71.2793 10.8652 71.1738 10.6426C71.0801 10.4199 70.9512 10.2441 70.7871 10.1152C70.6348 9.97461 70.459 9.86914 70.2598 9.79883C70.0605 9.7168 69.8672 9.64062 69.6797 9.57031ZM76.3418 9.79883C76.8105 9.33008 77.3672 8.95508 78.0117 8.67383C78.6562 8.38086 79.3359 8.2168 80.0508 8.18164C80.2266 8.20508 80.3555 8.28711 80.4375 8.42773C80.5312 8.55664 80.5781 8.69727 80.5781 8.84961C80.5781 8.97852 80.543 9.10156 80.4727 9.21875C80.4141 9.32422 80.3203 9.37695 80.1914 9.37695C79.418 9.55273 78.7383 9.77539 78.1523 10.0449C77.5781 10.3145 77.1152 10.6719 76.7637 11.1172C76.7637 11.3516 76.7754 11.5859 76.7988 11.8203C76.834 12.043 76.8516 12.2773 76.8516 12.5234C76.8516 12.8281 76.8398 13.1328 76.8164 13.4375C76.8047 13.7422 76.7695 14.041 76.7109 14.334C76.6992 14.4863 76.623 14.5918 76.4824 14.6504C76.3418 14.709 76.1895 14.7383 76.0254 14.7383C75.8613 14.7383 75.709 14.6973 75.5684 14.6152C75.4395 14.5449 75.375 14.4395 75.375 14.2988C75.4102 13.9707 75.4395 13.6367 75.4629 13.2969C75.498 12.9453 75.5156 12.5996 75.5156 12.2598C75.5156 11.8027 75.457 11.4219 75.3398 11.1172C75.2344 10.8125 75.1348 10.5605 75.041 10.3613C75.0059 10.3027 74.9355 10.2207 74.8301 10.1152C74.7363 9.99805 74.6367 9.88086 74.5312 9.76367C74.4258 9.63477 74.332 9.50586 74.25 9.37695C74.168 9.24805 74.127 9.13672 74.127 9.04297C74.127 8.84375 74.2031 8.67383 74.3555 8.5332C74.5195 8.38086 74.7012 8.30469 74.9004 8.30469C75.0996 8.30469 75.334 8.45117 75.6035 8.74414C75.873 9.03711 76.1191 9.38867 76.3418 9.79883ZM87.6445 9.13086C88.0078 9.63477 88.1895 10.0742 88.1895 10.4492C88.1895 10.8477 87.9844 11.1113 87.5742 11.2402L83.9004 12.3301C84.0527 12.5645 84.2461 12.7461 84.4805 12.875C84.7266 13.0039 84.9727 13.0684 85.2188 13.0684C85.6055 13.0684 85.9688 13.0098 86.3086 12.8926C86.6602 12.7637 86.9883 12.541 87.293 12.2246C87.375 12.1426 87.4688 12.1016 87.5742 12.1016C87.7148 12.1016 87.8555 12.1719 87.9961 12.3125C88.1484 12.4414 88.2246 12.5879 88.2246 12.752C88.2246 12.916 88.1426 13.0859 87.9785 13.2617C87.8262 13.4375 87.6211 13.6074 87.3633 13.7715C87.1055 13.9238 86.8125 14.0469 86.4844 14.1406C86.1562 14.2461 85.8223 14.2988 85.4824 14.2988C85.1426 14.2988 84.7793 14.2461 84.3926 14.1406C84.0176 14.0352 83.666 13.8711 83.3379 13.6484C83.0098 13.4141 82.7402 13.1152 82.5293 12.752C82.3184 12.3887 82.2129 11.9434 82.2129 11.416C82.2129 10.8535 82.3945 10.209 82.7578 9.48242C82.9922 9.02539 83.3496 8.69141 83.8301 8.48047C84.3223 8.25781 84.8379 8.14648 85.377 8.14648C85.8223 8.14648 86.2441 8.22852 86.6426 8.39258C87.0527 8.55664 87.3867 8.80273 87.6445 9.13086ZM83.6016 11.1523L86.8008 10.2207C86.7422 9.91602 86.584 9.69336 86.3262 9.55273C86.0801 9.40039 85.8047 9.32422 85.5 9.32422C85.1602 9.32422 84.8672 9.38867 84.6211 9.51758C84.3867 9.63477 84.1934 9.78711 84.041 9.97461C83.8887 10.1621 83.7773 10.3613 83.707 10.5723C83.6367 10.7832 83.6016 10.9766 83.6016 11.1523ZM91.4766 12.084C91.6289 12.084 91.8398 12.0957 92.1094 12.1191C92.3789 12.1426 92.6426 12.2188 92.9004 12.3477C93.1582 12.4648 93.3809 12.6523 93.5684 12.9102C93.7559 13.168 93.8496 13.5254 93.8496 13.9824C93.8496 14.4043 93.7031 14.7793 93.4102 15.1074C93.1172 15.4473 92.707 15.6172 92.1797 15.6172C91.9336 15.6172 91.7051 15.5645 91.4941 15.459C91.2832 15.3535 91.1016 15.2188 90.9492 15.0547C90.7969 14.9023 90.6738 14.7266 90.5801 14.5273C90.498 14.3398 90.457 14.1582 90.457 13.9824C90.4688 13.8184 90.498 13.6602 90.5449 13.5078C90.5918 13.3555 90.6797 13.2324 90.8086 13.1387L91.0195 12.998C90.9609 12.916 90.9316 12.8281 90.9316 12.7344C90.9316 12.5586 90.9785 12.4121 91.0723 12.2949C91.1777 12.166 91.3125 12.0957 91.4766 12.084ZM91.8281 13.209C91.8516 13.2441 91.8633 13.2969 91.8633 13.3672C91.8633 13.4609 91.8223 13.5723 91.7402 13.7012C91.6582 13.8301 91.6172 13.9297 91.6172 14C91.6172 14.1289 91.6699 14.2344 91.7754 14.3164C91.8926 14.4102 92.0098 14.457 92.127 14.457C92.3613 14.457 92.5195 14.3984 92.6016 14.2812C92.6953 14.1641 92.7422 14.0645 92.7422 13.9824C92.7422 13.8066 92.7129 13.666 92.6543 13.5605C92.6074 13.4551 92.5371 13.3789 92.4434 13.332C92.3613 13.2734 92.2617 13.2383 92.1445 13.2266C92.0391 13.2148 91.9336 13.209 91.8281 13.209ZM91.4414 3.64648V3.59375C91.4414 3.46484 91.5117 3.36523 91.6523 3.29492C91.793 3.21289 91.957 3.17188 92.1445 3.17188C92.3086 3.17188 92.4727 3.20117 92.6367 3.25977C92.8008 3.31836 92.9297 3.41211 93.0234 3.54102C93.0234 3.70508 93.0117 3.8457 92.9883 3.96289C92.9766 4.08008 92.9648 4.17969 92.9531 4.26172L92.8125 4.77148C92.8477 5.13477 92.877 5.43359 92.9004 5.66797C92.9355 5.90234 92.9648 6.125 92.9883 6.33594C93.0117 6.53516 93.0293 6.74609 93.041 6.96875C93.0527 7.19141 93.0586 7.47266 93.0586 7.8125C93.0586 8.19922 93.0469 8.58594 93.0234 8.97266C93 9.35938 92.9531 9.71094 92.8828 10.0273C92.8242 10.332 92.7305 10.584 92.6016 10.7832C92.4844 10.9707 92.3262 11.0645 92.127 11.0645C91.9629 11.0645 91.8164 11.0176 91.6875 10.9238C91.5586 10.8184 91.4941 10.7012 91.4941 10.5723C91.4941 10.5254 91.5 10.4902 91.5117 10.4668C91.6055 10.1504 91.6641 9.85742 91.6875 9.58789C91.7109 9.31836 91.7227 9.06641 91.7227 8.83203C91.7227 8.1875 91.7109 7.67188 91.6875 7.28516C91.6758 6.88672 91.6582 6.52344 91.6348 6.19531C91.6113 5.85547 91.582 5.50391 91.5469 5.14062C91.5117 4.76562 91.4766 4.26758 91.4414 3.64648ZM101.285 10.9941H101.373C101.525 10.9941 101.701 11.0176 101.9 11.0645C102.1 11.1113 102.281 11.1875 102.445 11.293C102.609 11.3984 102.75 11.5449 102.867 11.7324C102.984 11.9199 103.043 12.1543 103.043 12.4355C103.043 12.6699 102.996 12.8691 102.902 13.0332C102.82 13.1973 102.709 13.332 102.568 13.4375C102.428 13.543 102.275 13.6191 102.111 13.666C101.947 13.7129 101.789 13.7363 101.637 13.7363C101.496 13.7363 101.355 13.7012 101.215 13.6309C101.074 13.5605 100.951 13.4727 100.846 13.3672C100.74 13.25 100.652 13.127 100.582 12.998C100.512 12.8574 100.477 12.7227 100.477 12.5938C100.477 12.4766 100.518 12.3301 100.6 12.1543C100.693 11.9668 100.805 11.8379 100.934 11.7676C100.863 11.6973 100.828 11.5977 100.828 11.4688C100.828 11.3633 100.863 11.2637 100.934 11.1699C101.004 11.0762 101.121 11.0176 101.285 10.9941ZM101.285 4.31445H101.373C101.525 4.31445 101.701 4.33789 101.9 4.38477C102.1 4.43164 102.281 4.50781 102.445 4.61328C102.609 4.71875 102.75 4.86523 102.867 5.05273C102.984 5.24023 103.043 5.47461 103.043 5.75586C103.043 5.99023 102.996 6.18945 102.902 6.35352C102.82 6.51758 102.709 6.65234 102.568 6.75781C102.428 6.86328 102.275 6.93945 102.111 6.98633C101.947 7.0332 101.789 7.05664 101.637 7.05664C101.496 7.05664 101.355 7.02148 101.215 6.95117C101.074 6.88086 100.951 6.79297 100.846 6.6875C100.74 6.57031 100.652 6.44727 100.582 6.31836C100.512 6.17773 100.477 6.04297 100.477 5.91406C100.477 5.79688 100.518 5.65039 100.6 5.47461C100.693 5.28711 100.805 5.1582 100.934 5.08789C100.863 5.01758 100.828 4.91797 100.828 4.78906C100.828 4.68359 100.863 4.58398 100.934 4.49023C101.004 4.39648 101.121 4.33789 101.285 4.31445ZM104.941 4.24414C104.895 4.15039 104.871 4.07422 104.871 4.01562C104.871 3.82813 104.959 3.67578 105.135 3.55859C105.322 3.44141 105.51 3.38281 105.697 3.38281C105.814 3.38281 105.943 3.4707 106.084 3.64648C106.236 3.81055 106.383 4.02734 106.523 4.29688C106.676 4.55469 106.816 4.83594 106.945 5.14062C107.086 5.44531 107.209 5.73828 107.314 6.01953C107.514 6.55859 107.678 7.12695 107.807 7.72461C107.936 8.31055 108 8.9082 108 9.51758C108 10.209 107.941 10.8594 107.824 11.4688C107.707 12.0781 107.555 12.6406 107.367 13.1562C107.191 13.6719 106.986 14.1348 106.752 14.5449C106.529 14.9551 106.312 15.3066 106.102 15.5996C106.008 15.7051 105.891 15.7578 105.75 15.7578C105.574 15.7578 105.393 15.6992 105.205 15.582C105.029 15.4766 104.941 15.3418 104.941 15.1777C104.941 15.1309 104.965 15.0605 105.012 14.9668C105.199 14.6738 105.393 14.334 105.592 13.9473C105.803 13.5605 105.99 13.1445 106.154 12.6992C106.318 12.2539 106.453 11.791 106.559 11.3105C106.676 10.8184 106.734 10.3145 106.734 9.79883C106.734 9.23633 106.682 8.69727 106.576 8.18164C106.471 7.66602 106.33 7.17383 106.154 6.70508C105.99 6.23633 105.803 5.79688 105.592 5.38672C105.381 4.96484 105.164 4.58398 104.941 4.24414Z" fill="#F2F2F2"/>
</svg>
