<svg width="413" height="76" viewBox="0 0 413 76" fill="none" xmlns="http://www.w3.org/2000/svg">
<path d="M29.9829 39.3232C29.7654 35.2569 27.199 31.5331 25.2416 28.0661C23.4581 24.8987 21.5877 21.7742 19.4997 18.7352C22.2402 13.9841 25.6766 9.57548 29.4174 5.50925C29.8959 4.99562 29.113 4.26798 28.678 4.78161C28.678 4.78161 28.678 4.78161 28.6345 4.82441C28.5475 4.82441 28.504 4.86721 28.417 4.91001C24.2846 7.94898 20.4567 11.5444 17.3248 15.6106C15.6283 13.2137 13.6709 10.988 11.5394 8.93344C10.4955 7.86338 9.45151 6.87892 8.32054 5.89447C9.495 6.23689 10.626 6.5365 11.8004 6.87892C12.0179 6.96453 12.2354 6.87892 12.3659 6.75052C12.4964 6.70771 12.6269 6.66491 12.6704 6.5365C12.7574 6.5365 12.8009 6.57931 12.8879 6.57931C13.0619 6.62211 13.1924 6.57931 13.3229 6.5365C13.3664 6.5365 13.3664 6.5365 13.4099 6.5365C14.1494 6.66491 14.4539 5.63765 13.7144 5.42364C13.1489 5.25243 12.5834 5.08122 12.0179 4.91001C8.75553 3.83995 5.62361 2.55588 2.62219 1.0578C2.5352 0.886586 2.4482 0.758179 2.4047 0.629772C2.18721 0.330155 1.79572 0.330155 1.57822 0.501365C1.31723 0.372957 1.05624 0.24455 0.795245 0.0733406C0.229761 -0.226276 -0.248726 0.458562 0.142763 0.929389C0.447255 1.31461 0.751746 1.74263 0.96924 2.21346C0.838744 2.29907 0.751746 2.42747 0.751746 2.59868C0.229761 2.64149 0.0992646 3.58314 0.708248 3.66874C0.838744 3.71155 1.01274 3.71155 1.14324 3.75435C2.4917 7.34975 3.92716 10.9452 6.31959 14.0269C6.66758 14.4978 7.45056 14.1125 7.14607 13.5561C7.10257 13.4277 7.01557 13.3421 6.97207 13.2137C7.40706 13.5133 8.01605 12.9569 7.75505 12.4432C6.97207 11.0308 6.1891 9.61828 5.49311 8.163C5.18862 7.39255 4.92763 6.62211 4.62314 5.80886C8.75552 9.31866 12.5834 13.2137 15.9763 17.4083C14.8454 19.0348 13.8014 20.7469 12.9314 22.5446C11.235 25.926 10.104 29.5642 9.669 33.3308C9.27751 36.6266 9.5385 39.9224 10.0605 43.2182C9.7125 45.9147 9.7995 48.6113 11.1045 51.051C15.0628 58.2846 24.5021 54.3896 27.9385 48.8681C29.461 46.4284 30.0264 43.9458 29.8959 41.5061C29.9829 40.7784 30.0264 40.0508 29.9829 39.3232ZM4.18815 2.9839C3.97066 2.9411 3.70966 2.8555 3.44867 2.76989C3.40517 2.72709 3.40517 2.64149 3.36167 2.59868C3.62267 2.72709 3.92716 2.8555 4.18815 2.9839ZM4.40564 5.33804C4.31865 5.12402 4.27515 4.91001 4.18815 4.696C4.40564 4.78161 4.62314 4.82441 4.88413 4.91001C4.66664 4.95282 4.49264 5.12402 4.40564 5.33804ZM5.31912 5.08122C5.27562 5.03842 5.23212 5.03842 5.23212 4.99562C5.36262 5.03842 5.49311 5.08122 5.62361 5.12402C6.0151 5.38084 6.36309 5.68046 6.75458 5.93727C6.79808 5.98007 6.79808 6.02288 6.88508 6.06568C8.88602 7.77777 10.7565 9.61828 12.4964 11.5444C10.278 9.23306 7.92905 7.05013 5.31912 5.08122ZM19.0212 15.1826C18.6732 15.6534 18.3688 16.167 18.0643 16.6807C18.0208 16.6379 18.0208 16.5951 17.9773 16.5523C18.3253 16.0814 18.6732 15.6534 19.0212 15.1826ZM17.6293 19.5484C17.6293 19.5912 17.6293 19.5912 17.6293 19.5484C16.4113 21.9454 15.3673 24.3851 14.4104 26.8676C14.3669 26.9961 14.3234 27.1245 14.2799 27.2529C14.5844 26.3968 14.8889 25.5408 15.1933 24.7275C15.8893 22.9726 16.7158 21.2605 17.6293 19.5484ZM10.8 39.1519C10.8 39.1519 10.8 39.1947 10.8 39.1519C10.7565 39.2803 10.7565 39.4088 10.713 39.5372C10.539 37.6539 10.539 35.7705 10.713 33.8872C11.061 30.4202 12.0614 26.9961 13.5404 23.8287C14.4104 21.9026 15.4978 20.0621 16.6723 18.35C16.7593 18.4356 16.8463 18.564 16.8898 18.6496C15.9763 20.2761 15.1498 21.9882 14.4104 23.7431C12.5399 28.3657 11.0175 33.8444 10.8 39.1519ZM12.1484 48.6113C12.8879 50.2378 14.0189 51.6502 15.6283 52.5063C14.9324 52.3351 14.2799 52.0783 13.8014 51.6502C12.8879 50.8798 12.4094 49.7669 12.1484 48.6113ZM15.4978 53.5764C15.7153 53.6192 15.8893 53.662 16.1068 53.662C17.3248 53.7904 18.5863 53.8332 19.8912 53.7048C18.3688 54.09 16.8463 54.0472 15.4978 53.5764ZM22.5881 51.2222C21.5007 51.8215 20.2827 52.1639 18.9777 52.2067C18.3253 52.2067 17.7598 52.1211 17.1943 51.9927C15.6283 51.3506 14.3234 49.8953 13.6274 48.0548C12.4094 44.8875 12.5834 41.2921 12.8879 37.9963C13.2794 34.3153 14.1929 30.6771 15.4978 27.1673C16.3243 24.9415 17.3248 22.8014 18.4123 20.7041C18.9777 21.4745 19.5432 22.2878 20.1087 23.101C20.5437 23.7431 20.9787 24.4279 21.4137 25.0699C23.7626 30.1634 25.5461 35.6849 26.1115 41.0781C26.59 44.8019 25.9375 48.9537 22.5881 51.2222ZM27.547 45.4439C27.4165 45.7435 27.2425 46.0431 27.112 46.3427C27.9385 42.7473 27.112 38.8951 26.1985 35.3853C25.8505 34.0585 25.4591 32.6888 25.0241 31.4047C27.199 35.8134 28.4605 40.6072 27.547 45.4439Z" transform="translate(93.6927) rotate(83.9401)" fill="#F2F2F2"/>
<path d="M8.26172 4.91211C8.29688 4.77148 8.38477 4.66602 8.52539 4.5957C8.67773 4.51367 8.83594 4.47266 9 4.47266C9.15234 4.47266 9.29883 4.50781 9.43945 4.57812C9.5918 4.63672 9.69141 4.73633 9.73828 4.87695C10.0312 6.61133 10.2246 8.1582 10.3184 9.51758C10.4238 10.8652 10.5117 12.0723 10.582 13.1387C10.5703 13.2793 10.5 13.3848 10.3711 13.4551C10.2539 13.5254 10.125 13.5605 9.98438 13.5605C9.83203 13.5605 9.69141 13.5312 9.5625 13.4727C9.44531 13.4141 9.38672 13.3145 9.38672 13.1738C9.35156 12.2246 9.29297 11.1992 9.21094 10.0977C9.12891 8.99609 9 7.79492 8.82422 6.49414C8.64844 6.98633 8.44922 7.51367 8.22656 8.07617C8.00391 8.62695 7.77539 9.18359 7.54102 9.74609C7.31836 10.3086 7.0957 10.8594 6.87305 11.3984C6.66211 11.9258 6.46875 12.4121 6.29297 12.8574C6.19922 13.0918 6.06445 13.2676 5.88867 13.3848C5.72461 13.4902 5.56055 13.543 5.39648 13.543C5.25586 13.543 5.12109 13.4609 4.99219 13.2969C4.875 13.1211 4.75195 12.8926 4.62305 12.6113C4.50586 12.3301 4.38281 12.0137 4.25391 11.6621C4.13672 11.2988 4.00781 10.9297 3.86719 10.5547C3.66797 10.0273 3.46289 9.49414 3.25195 8.95508C3.05273 8.41602 2.88281 7.90039 2.74219 7.4082C2.68359 7.8418 2.61914 8.30469 2.54883 8.79688C2.49023 9.27734 2.41406 9.77539 2.32031 10.291C2.23828 10.7949 2.12695 11.3047 1.98633 11.8203C1.85742 12.3359 1.6875 12.834 1.47656 13.3145C1.42969 13.4199 1.35352 13.4961 1.24805 13.543C1.1543 13.5898 1.05469 13.6133 0.949219 13.6133C0.785156 13.6133 0.626953 13.5664 0.474609 13.4727C0.333984 13.3672 0.263672 13.2266 0.263672 13.0508C0.263672 12.9922 0.269531 12.9512 0.28125 12.9277C0.515625 12.2949 0.708984 11.6387 0.861328 10.959C1.01367 10.2676 1.14258 9.58789 1.24805 8.91992C1.35352 8.24023 1.44727 7.58984 1.5293 6.96875C1.61133 6.33594 1.69922 5.75586 1.79297 5.22852C1.79297 5.08789 1.86328 4.9707 2.00391 4.87695C2.14453 4.7832 2.29688 4.73633 2.46094 4.73633C2.58984 4.73633 2.71875 4.76562 2.84766 4.82422C2.98828 4.87109 3.08203 4.95898 3.12891 5.08789C3.375 5.7793 3.60352 6.42383 3.81445 7.02148C4.03711 7.60742 4.24219 8.16406 4.42969 8.69141C4.62891 9.21875 4.81641 9.72852 4.99219 10.2207C5.16797 10.7012 5.34375 11.1816 5.51953 11.6621L6.80273 8.41016C7.02539 7.84766 7.25391 7.28516 7.48828 6.72266C7.72266 6.14844 7.98047 5.54492 8.26172 4.91211ZM15.0117 16.9355C14.6719 17.2051 14.2793 17.3398 13.834 17.3398C13.4473 17.3398 13.0605 17.2461 12.6738 17.0586C12.2988 16.8711 12 16.6191 11.7773 16.3027C11.7305 16.2559 11.707 16.1914 11.707 16.1094C11.707 15.957 11.7598 15.793 11.8652 15.6172C11.9824 15.4531 12.1172 15.3711 12.2695 15.3711C12.3281 15.3711 12.3867 15.3887 12.4453 15.4238C12.6562 15.6113 12.873 15.7578 13.0957 15.8633C13.3301 15.9688 13.5527 16.0215 13.7637 16.0215C14.1504 16.0215 14.4609 15.7754 14.6953 15.2832C14.9414 14.8027 15.1348 14.0938 15.2754 13.1562C15.0996 13.2148 14.918 13.2617 14.7305 13.2969C14.5547 13.3203 14.3672 13.332 14.168 13.332C13.9922 13.332 13.752 13.3203 13.4473 13.2969C13.1426 13.2734 12.8379 13.168 12.5332 12.9805C12.2285 12.793 11.9648 12.5 11.7422 12.1016C11.5195 11.6914 11.4082 11.0996 11.4082 10.3262C11.4082 10.1152 11.4141 9.89844 11.4258 9.67578C11.4375 9.45312 11.4492 9.23633 11.4609 9.02539C11.4844 8.80273 11.5078 8.59766 11.5312 8.41016C11.5547 8.21094 11.5781 8.04102 11.6016 7.90039C11.625 7.71289 11.6953 7.57812 11.8125 7.49609C11.9297 7.41406 12.0586 7.37305 12.1992 7.37305C12.3633 7.37305 12.5156 7.41992 12.6562 7.51367C12.7969 7.60742 12.8672 7.73633 12.8672 7.90039C12.8672 8.11133 12.8438 8.36914 12.7969 8.67383C12.75 8.97852 12.7266 9.29492 12.7266 9.62305C12.7266 10.0801 12.7383 10.4668 12.7617 10.7832C12.7852 11.0879 12.8496 11.3398 12.9551 11.5391C13.0605 11.7266 13.2129 11.8613 13.4121 11.9434C13.623 12.0254 13.9043 12.0664 14.2559 12.0664C14.4668 12.0664 14.6543 12.0371 14.8184 11.9785C14.9941 11.9199 15.1992 11.8613 15.4336 11.8027C15.5039 10.9238 15.5391 10.0391 15.5391 9.14844C15.5391 8.75 15.5332 8.36914 15.5215 8.00586C15.5098 7.63086 15.4922 7.29102 15.4688 6.98633C15.4688 6.85742 15.5332 6.75195 15.6621 6.66992C15.791 6.57617 15.9492 6.5293 16.1367 6.5293C16.2773 6.5293 16.4121 6.55859 16.541 6.61719C16.6699 6.66406 16.7578 6.75195 16.8047 6.88086C16.8281 7.15039 16.8457 7.4375 16.8574 7.74219C16.8691 8.03516 16.875 8.33398 16.875 8.63867C16.875 9.45898 16.834 10.3086 16.752 11.1875C16.6816 12.0547 16.5645 12.875 16.4004 13.6484C16.248 14.4219 16.0547 15.1016 15.8203 15.6875C15.5859 16.2734 15.3164 16.6895 15.0117 16.9355ZM22.8867 4.98242C22.793 4.85352 22.7461 4.73633 22.7461 4.63086C22.7461 4.45508 22.8281 4.30273 22.9922 4.17383C23.1562 4.04492 23.3262 3.98047 23.502 3.98047C23.666 3.98047 23.8242 4.0625 23.9766 4.22656C24.1406 4.39063 24.2871 4.58984 24.416 4.82422C24.5449 5.04688 24.6621 5.28125 24.7676 5.52734C24.873 5.76172 24.9609 5.95508 25.0312 6.10742C25.0664 6.61133 25.0898 7.12109 25.1016 7.63672C25.1133 8.14062 25.1191 8.65625 25.1191 9.18359C25.1191 10.0273 25.1074 10.8418 25.084 11.627C25.0723 12.4004 25.0547 13.1387 25.0312 13.8418C25.0195 14.0176 24.9609 14.1465 24.8555 14.2285C24.75 14.3223 24.6211 14.3691 24.4688 14.3691C24.293 14.3691 24.1172 14.3164 23.9414 14.2109C23.7773 14.1055 23.6953 13.959 23.6953 13.7715C23.6953 13.2793 23.7129 12.7227 23.748 12.1016C23.7949 11.4688 23.8184 10.8125 23.8184 10.1328C23.8184 9.48828 23.8125 8.84961 23.8008 8.2168C23.7891 7.57227 23.7656 6.98633 23.7305 6.45898C23.625 6.23633 23.502 5.99609 23.3613 5.73828C23.2207 5.48047 23.0625 5.22852 22.8867 4.98242ZM29.127 8.51562C29.1973 8.45703 29.2969 8.42773 29.4258 8.42773C29.8242 8.46289 30.1816 8.57422 30.498 8.76172C30.8145 8.9375 31.0781 9.16016 31.2891 9.42969C31.5117 9.6875 31.6758 9.97461 31.7812 10.291C31.8984 10.6074 31.957 10.9121 31.957 11.2051V11.293C32.0391 11.5625 32.127 11.7734 32.2207 11.9258C32.3145 12.0781 32.4141 12.1953 32.5195 12.2773C32.6367 12.3594 32.748 12.4121 32.8535 12.4355C32.9707 12.4473 33.0879 12.4531 33.2051 12.4531C33.3105 12.4531 33.4219 12.4297 33.5391 12.3828C33.668 12.3359 33.8145 12.3125 33.9785 12.3125C34.1309 12.3125 34.2539 12.377 34.3477 12.5059C34.4531 12.623 34.5059 12.752 34.5059 12.8926C34.5059 13.0215 34.4648 13.1387 34.3828 13.2441C34.3125 13.3379 34.2129 13.4199 34.084 13.4902C33.9668 13.5488 33.832 13.5957 33.6797 13.6309C33.5391 13.6543 33.3984 13.666 33.2578 13.666C32.8125 13.666 32.4258 13.5723 32.0977 13.3848C31.7695 13.1973 31.5117 12.9805 31.3242 12.7344C31.0898 13.0039 30.8086 13.2148 30.4805 13.3672C30.1523 13.5195 29.8066 13.5957 29.4434 13.5957C29.1152 13.5957 28.7871 13.543 28.459 13.4375C28.1309 13.332 27.8379 13.1738 27.5801 12.9629C27.3223 12.752 27.1113 12.4941 26.9473 12.1895C26.7832 11.873 26.7012 11.5039 26.7012 11.082C26.7012 10.8359 26.7422 10.5781 26.8242 10.3086C26.918 10.0391 27.0527 9.78125 27.2285 9.53516C27.4043 9.28906 27.6152 9.07227 27.8613 8.88477C28.1191 8.69727 28.418 8.56836 28.7578 8.49805H28.8633C28.9805 8.49805 29.0684 8.50391 29.127 8.51562ZM29.2324 9.62305C28.8223 9.75195 28.5234 9.93945 28.3359 10.1855C28.1484 10.4199 28.0547 10.6953 28.0547 11.0117C28.0547 11.3867 28.1484 11.709 28.3359 11.9785C28.5352 12.2363 28.8984 12.3652 29.4258 12.3652C29.7305 12.3652 30 12.2539 30.2344 12.0312C30.4688 11.8086 30.5859 11.5098 30.5859 11.1348C30.5859 10.877 30.5449 10.666 30.4629 10.502C30.3926 10.3262 30.293 10.1855 30.1641 10.0801C30.0469 9.96289 29.9062 9.875 29.7422 9.81641C29.5781 9.74609 29.4082 9.68164 29.2324 9.62305ZM36.7031 12.0488C36.7148 11.8145 36.7207 11.5859 36.7207 11.3633C36.7207 11.1406 36.7266 10.9238 36.7383 10.7129L36.791 9.48242H36.2109C36.0469 9.48242 35.9004 9.48242 35.7715 9.48242C35.6543 9.4707 35.5488 9.44727 35.4551 9.41211C35.3613 9.36523 35.291 9.29492 35.2441 9.20117C35.1973 9.10742 35.1738 8.97266 35.1738 8.79688C35.1738 8.65625 35.2031 8.5332 35.2617 8.42773C35.332 8.31055 35.4375 8.25195 35.5781 8.25195C35.7188 8.25195 35.8945 8.25781 36.1055 8.26953C36.3281 8.28125 36.5742 8.28125 36.8438 8.26953C36.8438 7.625 36.832 6.98633 36.8086 6.35352C36.7852 5.7207 36.7734 5.04688 36.7734 4.33203C36.7734 4.13281 36.8438 3.99219 36.9844 3.91016C37.125 3.81641 37.2773 3.76953 37.4414 3.76953C37.6875 3.76953 37.8633 3.86328 37.9688 4.05078C38.0742 4.22656 38.1445 4.44336 38.1797 4.70117C38.2148 4.95898 38.2207 5.22852 38.1973 5.50977C38.1855 5.7793 38.1797 6.00195 38.1797 6.17773C38.1797 6.91602 38.1621 7.60742 38.127 8.25195C38.6895 8.25195 39.2227 8.24609 39.7266 8.23438C40.2422 8.21094 40.6406 8.18164 40.9219 8.14648C41.0625 8.16992 41.1621 8.24609 41.2207 8.375C41.291 8.49219 41.3262 8.62109 41.3262 8.76172C41.3262 8.96094 41.2793 9.10742 41.1855 9.20117C41.1035 9.29492 40.9395 9.36523 40.6934 9.41211C40.459 9.45898 40.1309 9.48242 39.709 9.48242C39.2988 9.48242 38.7598 9.48242 38.0918 9.48242C38.0684 9.86914 38.0508 10.2676 38.0391 10.6777C38.0391 11.0879 38.0391 11.5215 38.0391 11.9785C38.0391 12.4355 38.1211 12.7871 38.2852 13.0332C38.4492 13.2676 38.6602 13.3848 38.918 13.3848C39.1992 13.3848 39.4512 13.2852 39.6738 13.0859C39.8965 12.875 40.1133 12.5996 40.3242 12.2598C40.3945 12.1426 40.5117 12.084 40.6758 12.084C40.8398 12.084 40.9863 12.1426 41.1152 12.2598C41.2559 12.377 41.3262 12.5176 41.3262 12.6816C41.3262 12.916 41.2441 13.1504 41.0801 13.3848C40.916 13.6074 40.7051 13.8125 40.4473 14C40.1895 14.1875 39.9023 14.3398 39.5859 14.457C39.2695 14.5742 38.9648 14.6328 38.6719 14.6328C38.3086 14.6328 37.998 14.5566 37.7402 14.4043C37.4941 14.252 37.2949 14.0527 37.1426 13.8066C36.9902 13.5605 36.8789 13.2852 36.8086 12.9805C36.7383 12.6641 36.7031 12.3535 36.7031 12.0488ZM48.6562 9.13086C49.0195 9.63477 49.2012 10.0742 49.2012 10.4492C49.2012 10.8477 48.9961 11.1113 48.5859 11.2402L44.9121 12.3301C45.0645 12.5645 45.2578 12.7461 45.4922 12.875C45.7383 13.0039 45.9844 13.0684 46.2305 13.0684C46.6172 13.0684 46.9805 13.0098 47.3203 12.8926C47.6719 12.7637 48 12.541 48.3047 12.2246C48.3867 12.1426 48.4805 12.1016 48.5859 12.1016C48.7266 12.1016 48.8672 12.1719 49.0078 12.3125C49.1602 12.4414 49.2363 12.5879 49.2363 12.752C49.2363 12.916 49.1543 13.0859 48.9902 13.2617C48.8379 13.4375 48.6328 13.6074 48.375 13.7715C48.1172 13.9238 47.8242 14.0469 47.4961 14.1406C47.168 14.2461 46.834 14.2988 46.4941 14.2988C46.1543 14.2988 45.791 14.2461 45.4043 14.1406C45.0293 14.0352 44.6777 13.8711 44.3496 13.6484C44.0215 13.4141 43.752 13.1152 43.541 12.752C43.3301 12.3887 43.2246 11.9434 43.2246 11.416C43.2246 10.8535 43.4062 10.209 43.7695 9.48242C44.0039 9.02539 44.3613 8.69141 44.8418 8.48047C45.334 8.25781 45.8496 8.14648 46.3887 8.14648C46.834 8.14648 47.2559 8.22852 47.6543 8.39258C48.0645 8.55664 48.3984 8.80273 48.6562 9.13086ZM44.6133 11.1523L47.8125 10.2207C47.7539 9.91602 47.5957 9.69336 47.3379 9.55273C47.0918 9.40039 46.8164 9.32422 46.5117 9.32422C46.1719 9.32422 45.8789 9.38867 45.6328 9.51758C45.3984 9.63477 45.2051 9.78711 45.0527 9.97461C44.9004 10.1621 44.7891 10.3613 44.7188 10.5723C44.6484 10.7832 44.6133 10.9766 44.6133 11.1523ZM50.8711 10.2559C50.7539 10.0918 50.6953 9.86328 50.6953 9.57031C50.6953 9.24219 50.7539 8.9375 50.8711 8.65625C50.9883 8.36328 51.1582 8.11133 51.3809 7.90039C51.6035 7.68945 51.8789 7.52539 52.207 7.4082C52.5352 7.2793 52.916 7.21484 53.3496 7.21484C53.6191 7.21484 53.9004 7.25586 54.1934 7.33789C54.4863 7.4082 54.75 7.50195 54.9844 7.61914C55.2305 7.73633 55.4297 7.87109 55.582 8.02344C55.7344 8.16406 55.8105 8.30469 55.8105 8.44531C55.8105 8.64453 55.7344 8.80273 55.582 8.91992C55.4297 9.03711 55.2891 9.0957 55.1602 9.0957C55.1133 9.0957 55.0547 9.08398 54.9844 9.06055C54.5859 8.86133 54.2344 8.7207 53.9297 8.63867C53.625 8.55664 53.3555 8.51562 53.1211 8.51562C52.7461 8.51562 52.4648 8.62109 52.2773 8.83203C52.1016 9.03125 52.0137 9.2832 52.0137 9.58789C52.0137 9.86914 52.1133 10.0859 52.3125 10.2383C52.5117 10.3789 52.7578 10.502 53.0508 10.6074C53.3555 10.7012 53.6836 10.7949 54.0352 10.8887C54.3867 10.9707 54.709 11.0938 55.002 11.2578C55.3066 11.4219 55.5586 11.6387 55.7578 11.9082C55.957 12.166 56.0566 12.5234 56.0566 12.9805C56.0566 13.6016 55.8281 14.0586 55.3711 14.3516C54.9258 14.6562 54.3164 14.8086 53.543 14.8086C53.2266 14.8086 52.8984 14.791 52.5586 14.7559C52.2188 14.7207 51.9082 14.6621 51.627 14.5801C51.3574 14.5098 51.1348 14.4102 50.959 14.2812C50.7832 14.1523 50.6953 13.9883 50.6953 13.7891C50.6953 13.6367 50.7363 13.4961 50.8184 13.3672C50.9121 13.2266 51.0352 13.1562 51.1875 13.1562C51.2109 13.1562 51.2285 13.1621 51.2402 13.1738C51.252 13.1738 51.2695 13.1738 51.293 13.1738C51.7031 13.3613 52.0898 13.4902 52.4531 13.5605C52.8164 13.6191 53.1328 13.6484 53.4023 13.6484C53.9297 13.6484 54.2988 13.584 54.5098 13.4551C54.7207 13.3262 54.8262 13.1445 54.8262 12.9102C54.8262 12.7227 54.75 12.5645 54.5977 12.4355C54.457 12.2949 54.2754 12.1836 54.0527 12.1016C53.8418 12.0078 53.6074 11.9258 53.3496 11.8555C53.1035 11.7852 52.875 11.7148 52.6641 11.6445C52.3359 11.5391 52.0137 11.3867 51.6973 11.1875C51.3926 10.9883 51.1172 10.6777 50.8711 10.2559ZM58.6758 12.0488C58.6875 11.8145 58.6934 11.5859 58.6934 11.3633C58.6934 11.1406 58.6992 10.9238 58.7109 10.7129L58.7637 9.48242H58.1836C58.0195 9.48242 57.873 9.48242 57.7441 9.48242C57.627 9.4707 57.5215 9.44727 57.4277 9.41211C57.334 9.36523 57.2637 9.29492 57.2168 9.20117C57.1699 9.10742 57.1465 8.97266 57.1465 8.79688C57.1465 8.65625 57.1758 8.5332 57.2344 8.42773C57.3047 8.31055 57.4102 8.25195 57.5508 8.25195C57.6914 8.25195 57.8672 8.25781 58.0781 8.26953C58.3008 8.28125 58.5469 8.28125 58.8164 8.26953C58.8164 7.625 58.8047 6.98633 58.7812 6.35352C58.7578 5.7207 58.7461 5.04688 58.7461 4.33203C58.7461 4.13281 58.8164 3.99219 58.957 3.91016C59.0977 3.81641 59.25 3.76953 59.4141 3.76953C59.6602 3.76953 59.8359 3.86328 59.9414 4.05078C60.0469 4.22656 60.1172 4.44336 60.1523 4.70117C60.1875 4.95898 60.1934 5.22852 60.1699 5.50977C60.1582 5.7793 60.1523 6.00195 60.1523 6.17773C60.1523 6.91602 60.1348 7.60742 60.0996 8.25195C60.6621 8.25195 61.1953 8.24609 61.6992 8.23438C62.2148 8.21094 62.6133 8.18164 62.8945 8.14648C63.0352 8.16992 63.1348 8.24609 63.1934 8.375C63.2637 8.49219 63.2988 8.62109 63.2988 8.76172C63.2988 8.96094 63.252 9.10742 63.1582 9.20117C63.0762 9.29492 62.9121 9.36523 62.666 9.41211C62.4316 9.45898 62.1035 9.48242 61.6816 9.48242C61.2715 9.48242 60.7324 9.48242 60.0645 9.48242C60.041 9.86914 60.0234 10.2676 60.0117 10.6777C60.0117 11.0879 60.0117 11.5215 60.0117 11.9785C60.0117 12.4355 60.0938 12.7871 60.2578 13.0332C60.4219 13.2676 60.6328 13.3848 60.8906 13.3848C61.1719 13.3848 61.4238 13.2852 61.6465 13.0859C61.8691 12.875 62.0859 12.5996 62.2969 12.2598C62.3672 12.1426 62.4844 12.084 62.6484 12.084C62.8125 12.084 62.959 12.1426 63.0879 12.2598C63.2285 12.377 63.2988 12.5176 63.2988 12.6816C63.2988 12.916 63.2168 13.1504 63.0527 13.3848C62.8887 13.6074 62.6777 13.8125 62.4199 14C62.1621 14.1875 61.875 14.3398 61.5586 14.457C61.2422 14.5742 60.9375 14.6328 60.6445 14.6328C60.2812 14.6328 59.9707 14.5566 59.7129 14.4043C59.4668 14.252 59.2676 14.0527 59.1152 13.8066C58.9629 13.5605 58.8516 13.2852 58.7812 12.9805C58.7109 12.6641 58.6758 12.3535 58.6758 12.0488ZM69.9258 10.2559C69.8086 10.0918 69.75 9.86328 69.75 9.57031C69.75 9.24219 69.8086 8.9375 69.9258 8.65625C70.043 8.36328 70.2129 8.11133 70.4355 7.90039C70.6582 7.68945 70.9336 7.52539 71.2617 7.4082C71.5898 7.2793 71.9707 7.21484 72.4043 7.21484C72.6738 7.21484 72.9551 7.25586 73.248 7.33789C73.541 7.4082 73.8047 7.50195 74.0391 7.61914C74.2852 7.73633 74.4844 7.87109 74.6367 8.02344C74.7891 8.16406 74.8652 8.30469 74.8652 8.44531C74.8652 8.64453 74.7891 8.80273 74.6367 8.91992C74.4844 9.03711 74.3438 9.0957 74.2148 9.0957C74.168 9.0957 74.1094 9.08398 74.0391 9.06055C73.6406 8.86133 73.2891 8.7207 72.9844 8.63867C72.6797 8.55664 72.4102 8.51562 72.1758 8.51562C71.8008 8.51562 71.5195 8.62109 71.332 8.83203C71.1562 9.03125 71.0684 9.2832 71.0684 9.58789C71.0684 9.86914 71.168 10.0859 71.3672 10.2383C71.5664 10.3789 71.8125 10.502 72.1055 10.6074C72.4102 10.7012 72.7383 10.7949 73.0898 10.8887C73.4414 10.9707 73.7637 11.0938 74.0566 11.2578C74.3613 11.4219 74.6133 11.6387 74.8125 11.9082C75.0117 12.166 75.1113 12.5234 75.1113 12.9805C75.1113 13.6016 74.8828 14.0586 74.4258 14.3516C73.9805 14.6562 73.3711 14.8086 72.5977 14.8086C72.2812 14.8086 71.9531 14.791 71.6133 14.7559C71.2734 14.7207 70.9629 14.6621 70.6816 14.5801C70.4121 14.5098 70.1895 14.4102 70.0137 14.2812C69.8379 14.1523 69.75 13.9883 69.75 13.7891C69.75 13.6367 69.791 13.4961 69.873 13.3672C69.9668 13.2266 70.0898 13.1562 70.2422 13.1562C70.2656 13.1562 70.2832 13.1621 70.2949 13.1738C70.3066 13.1738 70.3242 13.1738 70.3477 13.1738C70.7578 13.3613 71.1445 13.4902 71.5078 13.5605C71.8711 13.6191 72.1875 13.6484 72.457 13.6484C72.9844 13.6484 73.3535 13.584 73.5645 13.4551C73.7754 13.3262 73.8809 13.1445 73.8809 12.9102C73.8809 12.7227 73.8047 12.5645 73.6523 12.4355C73.5117 12.2949 73.3301 12.1836 73.1074 12.1016C72.8965 12.0078 72.6621 11.9258 72.4043 11.8555C72.1582 11.7852 71.9297 11.7148 71.7188 11.6445C71.3906 11.5391 71.0684 11.3867 70.752 11.1875C70.4473 10.9883 70.1719 10.6777 69.9258 10.2559ZM77.7305 12.0488C77.7422 11.8145 77.748 11.5859 77.748 11.3633C77.748 11.1406 77.7539 10.9238 77.7656 10.7129L77.8184 9.48242H77.2383C77.0742 9.48242 76.9277 9.48242 76.7988 9.48242C76.6816 9.4707 76.5762 9.44727 76.4824 9.41211C76.3887 9.36523 76.3184 9.29492 76.2715 9.20117C76.2246 9.10742 76.2012 8.97266 76.2012 8.79688C76.2012 8.65625 76.2305 8.5332 76.2891 8.42773C76.3594 8.31055 76.4648 8.25195 76.6055 8.25195C76.7461 8.25195 76.9219 8.25781 77.1328 8.26953C77.3555 8.28125 77.6016 8.28125 77.8711 8.26953C77.8711 7.625 77.8594 6.98633 77.8359 6.35352C77.8125 5.7207 77.8008 5.04688 77.8008 4.33203C77.8008 4.13281 77.8711 3.99219 78.0117 3.91016C78.1523 3.81641 78.3047 3.76953 78.4688 3.76953C78.7148 3.76953 78.8906 3.86328 78.9961 4.05078C79.1016 4.22656 79.1719 4.44336 79.207 4.70117C79.2422 4.95898 79.248 5.22852 79.2246 5.50977C79.2129 5.7793 79.207 6.00195 79.207 6.17773C79.207 6.91602 79.1895 7.60742 79.1543 8.25195C79.7168 8.25195 80.25 8.24609 80.7539 8.23438C81.2695 8.21094 81.668 8.18164 81.9492 8.14648C82.0898 8.16992 82.1895 8.24609 82.248 8.375C82.3184 8.49219 82.3535 8.62109 82.3535 8.76172C82.3535 8.96094 82.3066 9.10742 82.2129 9.20117C82.1309 9.29492 81.9668 9.36523 81.7207 9.41211C81.4863 9.45898 81.1582 9.48242 80.7363 9.48242C80.3262 9.48242 79.7871 9.48242 79.1191 9.48242C79.0957 9.86914 79.0781 10.2676 79.0664 10.6777C79.0664 11.0879 79.0664 11.5215 79.0664 11.9785C79.0664 12.4355 79.1484 12.7871 79.3125 13.0332C79.4766 13.2676 79.6875 13.3848 79.9453 13.3848C80.2266 13.3848 80.4785 13.2852 80.7012 13.0859C80.9238 12.875 81.1406 12.5996 81.3516 12.2598C81.4219 12.1426 81.5391 12.084 81.7031 12.084C81.8672 12.084 82.0137 12.1426 82.1426 12.2598C82.2832 12.377 82.3535 12.5176 82.3535 12.6816C82.3535 12.916 82.2715 13.1504 82.1074 13.3848C81.9434 13.6074 81.7324 13.8125 81.4746 14C81.2168 14.1875 80.9297 14.3398 80.6133 14.457C80.2969 14.5742 79.9922 14.6328 79.6992 14.6328C79.3359 14.6328 79.0254 14.5566 78.7676 14.4043C78.5215 14.252 78.3223 14.0527 78.1699 13.8066C78.0176 13.5605 77.9062 13.2852 77.8359 12.9805C77.7656 12.6641 77.7305 12.3535 77.7305 12.0488ZM84.3398 12.0488C84.3398 11.6504 84.3398 11.293 84.3398 10.9766C84.3516 10.6484 84.3574 10.3379 84.3574 10.0449C84.3691 9.74023 84.375 9.42969 84.375 9.11328C84.3867 8.78516 84.3984 8.41602 84.4102 8.00586C84.4102 7.77148 84.4922 7.60156 84.6562 7.49609C84.832 7.37891 85.0137 7.32031 85.2012 7.32031C85.3418 7.32031 85.4648 7.37305 85.5703 7.47852C85.6875 7.57227 85.7461 7.71289 85.7461 7.90039C85.7461 8.31055 85.7402 8.68555 85.7285 9.02539C85.7285 9.35352 85.7227 9.68164 85.7109 10.0098C85.6992 10.3262 85.6875 10.6484 85.6758 10.9766C85.6758 11.3047 85.6758 11.668 85.6758 12.0664C85.6758 12.2773 85.7109 12.459 85.7812 12.6113C85.8633 12.7637 85.9629 12.8926 86.0801 12.998C86.209 13.1035 86.3438 13.1797 86.4844 13.2266C86.625 13.2734 86.7598 13.2969 86.8887 13.2969C87.1348 13.2969 87.4102 13.2031 87.7148 13.0156C88.0312 12.8164 88.3008 12.5645 88.5234 12.2598C88.5 11.8262 88.4824 11.4336 88.4707 11.082C88.459 10.7188 88.4531 10.3848 88.4531 10.0801C88.4531 9.76367 88.4531 9.43555 88.4531 9.0957C88.4531 8.75586 88.4766 8.45117 88.5234 8.18164C88.5703 7.90039 88.6523 7.67188 88.7695 7.49609C88.8867 7.32031 89.0684 7.23242 89.3145 7.23242C89.4668 7.25586 89.6074 7.32031 89.7363 7.42578C89.8652 7.51953 89.9297 7.6543 89.9297 7.83008C89.8945 8.25195 89.8594 8.70898 89.8242 9.20117C89.7891 9.68164 89.7715 10.1973 89.7715 10.748C89.7715 11.0293 89.7773 11.3281 89.7891 11.6445C89.8008 11.9492 89.8242 12.2598 89.8594 12.5762C89.9062 12.6934 89.9766 12.834 90.0703 12.998C90.1758 13.1621 90.2754 13.3262 90.3691 13.4902C90.4746 13.6543 90.5625 13.8125 90.6328 13.9648C90.7031 14.1055 90.7383 14.2168 90.7383 14.2988C90.7383 14.4863 90.6621 14.6445 90.5098 14.7734C90.3574 14.9023 90.1934 14.9668 90.0176 14.9668C89.9121 14.9668 89.8008 14.9199 89.6836 14.8262C89.5781 14.7441 89.4785 14.6387 89.3848 14.5098C89.291 14.3809 89.2031 14.2461 89.1211 14.1055C89.0508 13.9766 88.998 13.8594 88.9629 13.7539C88.6582 14.0117 88.3066 14.2227 87.9082 14.3867C87.5098 14.5508 87.0938 14.6328 86.6602 14.6328C86.2852 14.6328 85.9512 14.5566 85.6582 14.4043C85.377 14.252 85.1367 14.0527 84.9375 13.8066C84.7383 13.5605 84.5859 13.2852 84.4805 12.9805C84.3867 12.6641 84.3398 12.3535 84.3398 12.0488ZM93.2695 6.81055C93.2578 6.75195 93.252 6.69922 93.252 6.65234C93.252 6.59375 93.252 6.53516 93.252 6.47656C93.252 6.19531 93.2988 5.89648 93.3926 5.58008C93.4863 5.26367 93.6387 4.97656 93.8496 4.71875C94.0605 4.44922 94.3359 4.22656 94.6758 4.05078C95.0156 3.875 95.4316 3.78711 95.9238 3.78711C96.123 3.78711 96.3457 3.83398 96.5918 3.92773C96.8496 4.02148 97.0898 4.15039 97.3125 4.31445C97.5469 4.47852 97.7402 4.67188 97.8926 4.89453C98.0566 5.11719 98.1387 5.35156 98.1387 5.59766C98.1387 5.79688 98.0625 5.95508 97.9102 6.07227C97.7578 6.18945 97.5996 6.24805 97.4355 6.24805C97.2715 6.24805 97.1426 6.18945 97.0488 6.07227C96.9551 5.94336 96.8613 5.80859 96.7676 5.66797C96.6738 5.52734 96.5684 5.39844 96.4512 5.28125C96.334 5.15234 96.1641 5.08789 95.9414 5.08789C95.4375 5.08789 95.0801 5.22266 94.8691 5.49219C94.6699 5.75 94.5703 6.04297 94.5703 6.37109C94.5703 6.67578 94.5879 6.97461 94.623 7.26758C94.6699 7.56055 94.7109 7.82422 94.7461 8.05859C94.7578 8.46875 94.793 8.84961 94.8516 9.20117C95.4141 9.20117 95.959 9.19531 96.4863 9.18359C97.0137 9.16016 97.418 9.13086 97.6992 9.0957C97.8398 9.11914 97.9395 9.19531 97.998 9.32422C98.0684 9.44141 98.1035 9.57031 98.1035 9.71094C98.1035 9.92188 98.0332 10.0801 97.8926 10.1855C97.7637 10.291 97.5645 10.3613 97.2949 10.3965C97.0254 10.4316 96.6914 10.4492 96.293 10.4492C95.9062 10.4375 95.4492 10.4316 94.9219 10.4316C94.9219 10.7129 94.9219 11.0059 94.9219 11.3105C94.9336 11.6152 94.9395 11.9375 94.9395 12.2773C94.9395 12.4531 94.9453 12.6641 94.957 12.9102C94.9688 13.1562 94.957 13.3906 94.9219 13.6133C94.8984 13.8242 94.8281 14.0059 94.7109 14.1582C94.6055 14.3223 94.4297 14.4043 94.1836 14.4043C94.0195 14.4043 93.873 14.3516 93.7441 14.2461C93.6152 14.1523 93.5508 14.0117 93.5508 13.8242C93.5508 13.3672 93.5625 12.9512 93.5859 12.5762C93.6094 12.1895 93.6211 11.8203 93.6211 11.4688C93.6211 11.293 93.6211 11.123 93.6211 10.959C93.6211 10.7832 93.6152 10.6074 93.6035 10.4316H92.9883C92.8242 10.4316 92.6777 10.4316 92.5488 10.4316C92.4199 10.4199 92.3086 10.3965 92.2148 10.3613C92.1328 10.3145 92.0684 10.2441 92.0215 10.1504C91.9746 10.0566 91.9512 9.92188 91.9512 9.74609C91.9512 9.60547 91.9805 9.48242 92.0391 9.37695C92.1094 9.25977 92.2148 9.20117 92.3555 9.20117C92.4258 9.20117 92.502 9.20703 92.584 9.21875C92.666 9.21875 92.7539 9.21875 92.8477 9.21875H93.5156C93.457 8.87891 93.416 8.51562 93.3926 8.12891C93.3691 7.74219 93.3281 7.30273 93.2695 6.81055ZM100.336 6.81055C100.324 6.75195 100.318 6.69922 100.318 6.65234C100.318 6.59375 100.318 6.53516 100.318 6.47656C100.318 6.19531 100.365 5.89648 100.459 5.58008C100.553 5.26367 100.705 4.97656 100.916 4.71875C101.127 4.44922 101.402 4.22656 101.742 4.05078C102.082 3.875 102.498 3.78711 102.99 3.78711C103.189 3.78711 103.412 3.83398 103.658 3.92773C103.916 4.02148 104.156 4.15039 104.379 4.31445C104.613 4.47852 104.807 4.67188 104.959 4.89453C105.123 5.11719 105.205 5.35156 105.205 5.59766C105.205 5.79688 105.129 5.95508 104.977 6.07227C104.824 6.18945 104.666 6.24805 104.502 6.24805C104.338 6.24805 104.209 6.18945 104.115 6.07227C104.021 5.94336 103.928 5.80859 103.834 5.66797C103.74 5.52734 103.635 5.39844 103.518 5.28125C103.4 5.15234 103.23 5.08789 103.008 5.08789C102.504 5.08789 102.146 5.22266 101.936 5.49219C101.736 5.75 101.637 6.04297 101.637 6.37109C101.637 6.67578 101.654 6.97461 101.689 7.26758C101.736 7.56055 101.777 7.82422 101.812 8.05859C101.824 8.46875 101.859 8.84961 101.918 9.20117C102.48 9.20117 103.025 9.19531 103.553 9.18359C104.08 9.16016 104.484 9.13086 104.766 9.0957C104.906 9.11914 105.006 9.19531 105.064 9.32422C105.135 9.44141 105.17 9.57031 105.17 9.71094C105.17 9.92188 105.1 10.0801 104.959 10.1855C104.83 10.291 104.631 10.3613 104.361 10.3965C104.092 10.4316 103.758 10.4492 103.359 10.4492C102.973 10.4375 102.516 10.4316 101.988 10.4316C101.988 10.7129 101.988 11.0059 101.988 11.3105C102 11.6152 102.006 11.9375 102.006 12.2773C102.006 12.4531 102.012 12.6641 102.023 12.9102C102.035 13.1562 102.023 13.3906 101.988 13.6133C101.965 13.8242 101.895 14.0059 101.777 14.1582C101.672 14.3223 101.496 14.4043 101.25 14.4043C101.086 14.4043 100.939 14.3516 100.811 14.2461C100.682 14.1523 100.617 14.0117 100.617 13.8242C100.617 13.3672 100.629 12.9512 100.652 12.5762C100.676 12.1895 100.688 11.8203 100.688 11.4688C100.688 11.293 100.688 11.123 100.688 10.959C100.688 10.7832 100.682 10.6074 100.67 10.4316H100.055C99.8906 10.4316 99.7441 10.4316 99.6152 10.4316C99.4863 10.4199 99.375 10.3965 99.2812 10.3613C99.1992 10.3145 99.1348 10.2441 99.0879 10.1504C99.041 10.0566 99.0176 9.92188 99.0176 9.74609C99.0176 9.60547 99.0469 9.48242 99.1055 9.37695C99.1758 9.25977 99.2812 9.20117 99.4219 9.20117C99.4922 9.20117 99.5684 9.20703 99.6504 9.21875C99.7324 9.21875 99.8203 9.21875 99.9141 9.21875H100.582C100.523 8.87891 100.482 8.51562 100.459 8.12891C100.436 7.74219 100.395 7.30273 100.336 6.81055Z" transform="translate(0 39)" fill="white"/>
<path d="M17.286 9.78223C17.2451 9.74276 17.2042 9.7033 17.1225 9.66383C17.1634 9.50597 17.1634 9.30864 16.9999 9.11131C14.2213 6.42764 11.4836 3.74396 8.70499 1.06028C8.66413 0.902422 8.66413 0.705093 8.66413 0.547229C8.62327 -0.0447578 7.68345 -0.242087 7.52 0.389366C7.47914 0.665627 7.39742 0.941887 7.35656 1.21815C6.90708 1.21815 6.58018 1.7312 6.90708 2.16533C6.94794 2.24426 7.02966 2.32319 7.07052 2.36266C6.17156 6.42764 5.0683 10.6505 5.80381 14.7155C5.88553 15.1101 6.21243 15.189 6.4576 15.0706C6.4576 15.1101 6.4576 15.1101 6.4576 15.1496C6.4576 15.3864 6.41673 15.5837 6.41673 15.8205C6.37587 16.373 7.07052 16.452 7.35656 16.0968C7.56086 16.0968 7.80604 16.0178 7.92862 15.8205C8.25552 15.9389 8.66413 15.781 8.74586 15.3469C8.9093 13.5315 9.07275 11.7555 9.19534 9.94009C10.2169 12.4264 11.1976 15.2285 11.647 18.0306C11.4427 19.1356 11.075 20.2012 10.5438 21.1878C9.19534 23.5953 6.86621 25.3318 5.10916 27.4629C3.63813 29.1994 2.37142 31.1727 1.4316 33.2644C-0.325462 37.3688 -0.652356 42.0258 1.51332 46.0513C3.43382 49.5638 6.94794 52.129 11.1158 52.3658C11.7696 52.4053 11.7696 51.5371 11.2793 51.3397C10.4621 51.024 9.68568 50.6293 8.95017 50.1558C9.11361 49.919 9.11361 49.6032 8.78672 49.4848C8.01034 49.1691 7.31569 48.7745 6.6619 48.3009C6.62104 48.2219 6.53932 48.1825 6.49846 48.1035C6.21243 47.6694 5.92639 47.2747 5.64036 46.8406C4.37364 44.8279 3.27038 42.5783 3.27038 40.2104C3.31124 36.8558 5.19088 34.0142 7.27483 31.3306C10.2169 29.6335 11.9739 26.7525 12.7095 23.5558C13.6084 21.543 14.1396 19.3724 14.1396 17.0439C14.0988 15.3864 13.8536 13.7683 13.3224 12.2291C12.8729 10.3742 11.9739 8.59826 10.4212 7.01962C10.3395 6.90123 10.2169 6.86176 10.0943 6.86176C10.0534 6.66443 9.93085 6.38817 9.88999 6.15137C10.4212 6.86176 11.0341 7.53268 11.647 8.16413C12.7095 9.34811 13.8127 10.4926 14.9568 11.5977C15.3246 11.9528 15.7741 11.7161 15.8967 11.3609C15.9375 11.3609 15.9784 11.3609 16.0193 11.4003C16.4687 11.4793 16.8774 11.0451 16.7139 10.6505C17.2042 10.8083 17.7355 10.1769 17.286 9.78223ZM6.17156 49.2086C6.33501 49.3664 6.4576 49.4848 6.62104 49.6427C6.86621 49.919 7.15225 50.1558 7.43828 50.3925C4.29192 48.8928 2.04452 45.7356 1.30901 42.381C1.26815 42.2626 1.26815 42.1442 1.22729 42.0258C1.88108 44.8673 3.67899 47.4721 6.17156 49.2086ZM1.88108 35.0403C2.73917 32.5145 4.2102 30.1466 5.88553 28.1733C6.82535 27.0288 7.8469 26.0027 8.82758 24.9371C6.4576 28.2522 3.39296 31.3306 1.88108 35.0403ZM11.7288 23.2401C11.1158 24.503 10.3803 25.687 9.52223 26.8315C10.3803 25.5291 11.1567 24.1083 11.8105 22.6481C11.8105 22.8454 11.7696 23.0427 11.7288 23.2401Z" transform="translate(227.005 1) rotate(33.6329)" fill="#F2F2F2"/>
<path d="M8.26172 4.91211C8.29688 4.77148 8.38477 4.66602 8.52539 4.5957C8.67773 4.51367 8.83594 4.47266 9 4.47266C9.15234 4.47266 9.29883 4.50781 9.43945 4.57812C9.5918 4.63672 9.69141 4.73633 9.73828 4.87695C10.0312 6.61133 10.2246 8.1582 10.3184 9.51758C10.4238 10.8652 10.5117 12.0723 10.582 13.1387C10.5703 13.2793 10.5 13.3848 10.3711 13.4551C10.2539 13.5254 10.125 13.5605 9.98438 13.5605C9.83203 13.5605 9.69141 13.5312 9.5625 13.4727C9.44531 13.4141 9.38672 13.3145 9.38672 13.1738C9.35156 12.2246 9.29297 11.1992 9.21094 10.0977C9.12891 8.99609 9 7.79492 8.82422 6.49414C8.64844 6.98633 8.44922 7.51367 8.22656 8.07617C8.00391 8.62695 7.77539 9.18359 7.54102 9.74609C7.31836 10.3086 7.0957 10.8594 6.87305 11.3984C6.66211 11.9258 6.46875 12.4121 6.29297 12.8574C6.19922 13.0918 6.06445 13.2676 5.88867 13.3848C5.72461 13.4902 5.56055 13.543 5.39648 13.543C5.25586 13.543 5.12109 13.4609 4.99219 13.2969C4.875 13.1211 4.75195 12.8926 4.62305 12.6113C4.50586 12.3301 4.38281 12.0137 4.25391 11.6621C4.13672 11.2988 4.00781 10.9297 3.86719 10.5547C3.66797 10.0273 3.46289 9.49414 3.25195 8.95508C3.05273 8.41602 2.88281 7.90039 2.74219 7.4082C2.68359 7.8418 2.61914 8.30469 2.54883 8.79688C2.49023 9.27734 2.41406 9.77539 2.32031 10.291C2.23828 10.7949 2.12695 11.3047 1.98633 11.8203C1.85742 12.3359 1.6875 12.834 1.47656 13.3145C1.42969 13.4199 1.35352 13.4961 1.24805 13.543C1.1543 13.5898 1.05469 13.6133 0.949219 13.6133C0.785156 13.6133 0.626953 13.5664 0.474609 13.4727C0.333984 13.3672 0.263672 13.2266 0.263672 13.0508C0.263672 12.9922 0.269531 12.9512 0.28125 12.9277C0.515625 12.2949 0.708984 11.6387 0.861328 10.959C1.01367 10.2676 1.14258 9.58789 1.24805 8.91992C1.35352 8.24023 1.44727 7.58984 1.5293 6.96875C1.61133 6.33594 1.69922 5.75586 1.79297 5.22852C1.79297 5.08789 1.86328 4.9707 2.00391 4.87695C2.14453 4.7832 2.29688 4.73633 2.46094 4.73633C2.58984 4.73633 2.71875 4.76562 2.84766 4.82422C2.98828 4.87109 3.08203 4.95898 3.12891 5.08789C3.375 5.7793 3.60352 6.42383 3.81445 7.02148C4.03711 7.60742 4.24219 8.16406 4.42969 8.69141C4.62891 9.21875 4.81641 9.72852 4.99219 10.2207C5.16797 10.7012 5.34375 11.1816 5.51953 11.6621L6.80273 8.41016C7.02539 7.84766 7.25391 7.28516 7.48828 6.72266C7.72266 6.14844 7.98047 5.54492 8.26172 4.91211ZM15.0117 16.9355C14.6719 17.2051 14.2793 17.3398 13.834 17.3398C13.4473 17.3398 13.0605 17.2461 12.6738 17.0586C12.2988 16.8711 12 16.6191 11.7773 16.3027C11.7305 16.2559 11.707 16.1914 11.707 16.1094C11.707 15.957 11.7598 15.793 11.8652 15.6172C11.9824 15.4531 12.1172 15.3711 12.2695 15.3711C12.3281 15.3711 12.3867 15.3887 12.4453 15.4238C12.6562 15.6113 12.873 15.7578 13.0957 15.8633C13.3301 15.9688 13.5527 16.0215 13.7637 16.0215C14.1504 16.0215 14.4609 15.7754 14.6953 15.2832C14.9414 14.8027 15.1348 14.0938 15.2754 13.1562C15.0996 13.2148 14.918 13.2617 14.7305 13.2969C14.5547 13.3203 14.3672 13.332 14.168 13.332C13.9922 13.332 13.752 13.3203 13.4473 13.2969C13.1426 13.2734 12.8379 13.168 12.5332 12.9805C12.2285 12.793 11.9648 12.5 11.7422 12.1016C11.5195 11.6914 11.4082 11.0996 11.4082 10.3262C11.4082 10.1152 11.4141 9.89844 11.4258 9.67578C11.4375 9.45312 11.4492 9.23633 11.4609 9.02539C11.4844 8.80273 11.5078 8.59766 11.5312 8.41016C11.5547 8.21094 11.5781 8.04102 11.6016 7.90039C11.625 7.71289 11.6953 7.57812 11.8125 7.49609C11.9297 7.41406 12.0586 7.37305 12.1992 7.37305C12.3633 7.37305 12.5156 7.41992 12.6562 7.51367C12.7969 7.60742 12.8672 7.73633 12.8672 7.90039C12.8672 8.11133 12.8438 8.36914 12.7969 8.67383C12.75 8.97852 12.7266 9.29492 12.7266 9.62305C12.7266 10.0801 12.7383 10.4668 12.7617 10.7832C12.7852 11.0879 12.8496 11.3398 12.9551 11.5391C13.0605 11.7266 13.2129 11.8613 13.4121 11.9434C13.623 12.0254 13.9043 12.0664 14.2559 12.0664C14.4668 12.0664 14.6543 12.0371 14.8184 11.9785C14.9941 11.9199 15.1992 11.8613 15.4336 11.8027C15.5039 10.9238 15.5391 10.0391 15.5391 9.14844C15.5391 8.75 15.5332 8.36914 15.5215 8.00586C15.5098 7.63086 15.4922 7.29102 15.4688 6.98633C15.4688 6.85742 15.5332 6.75195 15.6621 6.66992C15.791 6.57617 15.9492 6.5293 16.1367 6.5293C16.2773 6.5293 16.4121 6.55859 16.541 6.61719C16.6699 6.66406 16.7578 6.75195 16.8047 6.88086C16.8281 7.15039 16.8457 7.4375 16.8574 7.74219C16.8691 8.03516 16.875 8.33398 16.875 8.63867C16.875 9.45898 16.834 10.3086 16.752 11.1875C16.6816 12.0547 16.5645 12.875 16.4004 13.6484C16.248 14.4219 16.0547 15.1016 15.8203 15.6875C15.5859 16.2734 15.3164 16.6895 15.0117 16.9355ZM27.1055 8.11133C27.293 8.16992 27.4277 8.26953 27.5098 8.41016C27.5918 8.55078 27.6328 8.69727 27.6328 8.84961C27.6328 9.00195 27.5801 9.14258 27.4746 9.27148C27.3691 9.38867 27.2461 9.44727 27.1055 9.44727C26.9766 9.44727 26.8418 9.44141 26.7012 9.42969C26.5605 9.41797 26.4141 9.41211 26.2617 9.41211C25.9219 9.41211 25.5938 9.45898 25.2773 9.55273C24.9727 9.64648 24.7266 9.8457 24.5391 10.1504C24.3867 10.3848 24.2812 10.6133 24.2227 10.8359C24.1641 11.0469 24.1348 11.2461 24.1348 11.4336C24.1348 11.9023 24.293 12.2773 24.6094 12.5586C24.9258 12.8281 25.2891 12.9629 25.6992 12.9629C26.0859 12.9629 26.4023 12.9043 26.6484 12.7871C26.9062 12.6582 27.1875 12.4355 27.4922 12.1191C27.5742 12.0371 27.668 11.9961 27.7734 11.9961C27.9141 11.9961 28.0547 12.0664 28.1953 12.207C28.3477 12.3359 28.4238 12.4824 28.4238 12.6465C28.4238 12.7988 28.3535 12.9688 28.2129 13.1562C28.0723 13.3438 27.8789 13.5195 27.6328 13.6836C27.3984 13.8359 27.1289 13.9648 26.8242 14.0703C26.5312 14.1758 26.2266 14.2285 25.9102 14.2285C25.582 14.2285 25.2305 14.1758 24.8555 14.0703C24.4805 13.9766 24.1348 13.8184 23.8184 13.5957C23.502 13.3613 23.2383 13.0684 23.0273 12.7168C22.8164 12.3652 22.7109 11.9316 22.7109 11.416C22.7109 10.8301 22.8984 10.1973 23.2734 9.51758C23.4375 9.22461 23.6367 8.98438 23.8711 8.79688C24.1172 8.60938 24.375 8.46289 24.6445 8.35742C24.9141 8.24023 25.1895 8.16406 25.4707 8.12891C25.7637 8.08203 26.0449 8.05859 26.3145 8.05859C26.6074 8.05859 26.8711 8.07617 27.1055 8.11133ZM31.8691 8.51562C31.9395 8.45703 32.0391 8.42773 32.168 8.42773C32.5664 8.46289 32.9238 8.57422 33.2402 8.76172C33.5566 8.9375 33.8203 9.16016 34.0312 9.42969C34.2539 9.6875 34.418 9.97461 34.5234 10.291C34.6406 10.6074 34.6992 10.9121 34.6992 11.2051V11.293C34.7812 11.5625 34.8691 11.7734 34.9629 11.9258C35.0566 12.0781 35.1562 12.1953 35.2617 12.2773C35.3789 12.3594 35.4902 12.4121 35.5957 12.4355C35.7129 12.4473 35.8301 12.4531 35.9473 12.4531C36.0527 12.4531 36.1641 12.4297 36.2812 12.3828C36.4102 12.3359 36.5566 12.3125 36.7207 12.3125C36.873 12.3125 36.9961 12.377 37.0898 12.5059C37.1953 12.623 37.248 12.752 37.248 12.8926C37.248 13.0215 37.207 13.1387 37.125 13.2441C37.0547 13.3379 36.9551 13.4199 36.8262 13.4902C36.709 13.5488 36.5742 13.5957 36.4219 13.6309C36.2812 13.6543 36.1406 13.666 36 13.666C35.5547 13.666 35.168 13.5723 34.8398 13.3848C34.5117 13.1973 34.2539 12.9805 34.0664 12.7344C33.832 13.0039 33.5508 13.2148 33.2227 13.3672C32.8945 13.5195 32.5488 13.5957 32.1855 13.5957C31.8574 13.5957 31.5293 13.543 31.2012 13.4375C30.873 13.332 30.5801 13.1738 30.3223 12.9629C30.0645 12.752 29.8535 12.4941 29.6895 12.1895C29.5254 11.873 29.4434 11.5039 29.4434 11.082C29.4434 10.8359 29.4844 10.5781 29.5664 10.3086C29.6602 10.0391 29.7949 9.78125 29.9707 9.53516C30.1465 9.28906 30.3574 9.07227 30.6035 8.88477C30.8613 8.69727 31.1602 8.56836 31.5 8.49805H31.6055C31.7227 8.49805 31.8105 8.50391 31.8691 8.51562ZM31.9746 9.62305C31.5645 9.75195 31.2656 9.93945 31.0781 10.1855C30.8906 10.4199 30.7969 10.6953 30.7969 11.0117C30.7969 11.3867 30.8906 11.709 31.0781 11.9785C31.2773 12.2363 31.6406 12.3652 32.168 12.3652C32.4727 12.3652 32.7422 12.2539 32.9766 12.0312C33.2109 11.8086 33.3281 11.5098 33.3281 11.1348C33.3281 10.877 33.2871 10.666 33.2051 10.502C33.1348 10.3262 33.0352 10.1855 32.9062 10.0801C32.7891 9.96289 32.6484 9.875 32.4844 9.81641C32.3203 9.74609 32.1504 9.68164 31.9746 9.62305ZM40.4824 9.79883C40.9512 9.33008 41.5078 8.95508 42.1523 8.67383C42.7969 8.38086 43.4766 8.2168 44.1914 8.18164C44.3672 8.20508 44.4961 8.28711 44.5781 8.42773C44.6719 8.55664 44.7188 8.69727 44.7188 8.84961C44.7188 8.97852 44.6836 9.10156 44.6133 9.21875C44.5547 9.32422 44.4609 9.37695 44.332 9.37695C43.5586 9.55273 42.8789 9.77539 42.293 10.0449C41.7188 10.3145 41.2559 10.6719 40.9043 11.1172C40.9043 11.3516 40.916 11.5859 40.9395 11.8203C40.9746 12.043 40.9922 12.2773 40.9922 12.5234C40.9922 12.8281 40.9805 13.1328 40.957 13.4375C40.9453 13.7422 40.9102 14.041 40.8516 14.334C40.8398 14.4863 40.7637 14.5918 40.623 14.6504C40.4824 14.709 40.3301 14.7383 40.166 14.7383C40.002 14.7383 39.8496 14.6973 39.709 14.6152C39.5801 14.5449 39.5156 14.4395 39.5156 14.2988C39.5508 13.9707 39.5801 13.6367 39.6035 13.2969C39.6387 12.9453 39.6562 12.5996 39.6562 12.2598C39.6562 11.8027 39.5977 11.4219 39.4805 11.1172C39.375 10.8125 39.2754 10.5605 39.1816 10.3613C39.1465 10.3027 39.0762 10.2207 38.9707 10.1152C38.877 9.99805 38.7773 9.88086 38.6719 9.76367C38.5664 9.63477 38.4727 9.50586 38.3906 9.37695C38.3086 9.24805 38.2676 9.13672 38.2676 9.04297C38.2676 8.84375 38.3438 8.67383 38.4961 8.5332C38.6602 8.38086 38.8418 8.30469 39.041 8.30469C39.2402 8.30469 39.4746 8.45117 39.7441 8.74414C40.0137 9.03711 40.2598 9.38867 40.4824 9.79883ZM51.7852 9.13086C52.1484 9.63477 52.3301 10.0742 52.3301 10.4492C52.3301 10.8477 52.125 11.1113 51.7148 11.2402L48.041 12.3301C48.1934 12.5645 48.3867 12.7461 48.6211 12.875C48.8672 13.0039 49.1133 13.0684 49.3594 13.0684C49.7461 13.0684 50.1094 13.0098 50.4492 12.8926C50.8008 12.7637 51.1289 12.541 51.4336 12.2246C51.5156 12.1426 51.6094 12.1016 51.7148 12.1016C51.8555 12.1016 51.9961 12.1719 52.1367 12.3125C52.2891 12.4414 52.3652 12.5879 52.3652 12.752C52.3652 12.916 52.2832 13.0859 52.1191 13.2617C51.9668 13.4375 51.7617 13.6074 51.5039 13.7715C51.2461 13.9238 50.9531 14.0469 50.625 14.1406C50.2969 14.2461 49.9629 14.2988 49.623 14.2988C49.2832 14.2988 48.9199 14.2461 48.5332 14.1406C48.1582 14.0352 47.8066 13.8711 47.4785 13.6484C47.1504 13.4141 46.8809 13.1152 46.6699 12.752C46.459 12.3887 46.3535 11.9434 46.3535 11.416C46.3535 10.8535 46.5352 10.209 46.8984 9.48242C47.1328 9.02539 47.4902 8.69141 47.9707 8.48047C48.4629 8.25781 48.9785 8.14648 49.5176 8.14648C49.9629 8.14648 50.3848 8.22852 50.7832 8.39258C51.1934 8.55664 51.5273 8.80273 51.7852 9.13086ZM47.7422 11.1523L50.9414 10.2207C50.8828 9.91602 50.7246 9.69336 50.4668 9.55273C50.2207 9.40039 49.9453 9.32422 49.6406 9.32422C49.3008 9.32422 49.0078 9.38867 48.7617 9.51758C48.5273 9.63477 48.334 9.78711 48.1816 9.97461C48.0293 10.1621 47.918 10.3613 47.8477 10.5723C47.7773 10.7832 47.7422 10.9766 47.7422 11.1523ZM59.2734 9.13086C59.6367 9.63477 59.8184 10.0742 59.8184 10.4492C59.8184 10.8477 59.6133 11.1113 59.2031 11.2402L55.5293 12.3301C55.6816 12.5645 55.875 12.7461 56.1094 12.875C56.3555 13.0039 56.6016 13.0684 56.8477 13.0684C57.2344 13.0684 57.5977 13.0098 57.9375 12.8926C58.2891 12.7637 58.6172 12.541 58.9219 12.2246C59.0039 12.1426 59.0977 12.1016 59.2031 12.1016C59.3438 12.1016 59.4844 12.1719 59.625 12.3125C59.7773 12.4414 59.8535 12.5879 59.8535 12.752C59.8535 12.916 59.7715 13.0859 59.6074 13.2617C59.4551 13.4375 59.25 13.6074 58.9922 13.7715C58.7344 13.9238 58.4414 14.0469 58.1133 14.1406C57.7852 14.2461 57.4512 14.2988 57.1113 14.2988C56.7715 14.2988 56.4082 14.2461 56.0215 14.1406C55.6465 14.0352 55.2949 13.8711 54.9668 13.6484C54.6387 13.4141 54.3691 13.1152 54.1582 12.752C53.9473 12.3887 53.8418 11.9434 53.8418 11.416C53.8418 10.8535 54.0234 10.209 54.3867 9.48242C54.6211 9.02539 54.9785 8.69141 55.459 8.48047C55.9512 8.25781 56.4668 8.14648 57.0059 8.14648C57.4512 8.14648 57.873 8.22852 58.2715 8.39258C58.6816 8.55664 59.0156 8.80273 59.2734 9.13086ZM55.2305 11.1523L58.4297 10.2207C58.3711 9.91602 58.2129 9.69336 57.9551 9.55273C57.709 9.40039 57.4336 9.32422 57.1289 9.32422C56.7891 9.32422 56.4961 9.38867 56.25 9.51758C56.0156 9.63477 55.8223 9.78711 55.6699 9.97461C55.5176 10.1621 55.4062 10.3613 55.3359 10.5723C55.2656 10.7832 55.2305 10.9766 55.2305 11.1523ZM63.5098 9.79883C63.9785 9.33008 64.5352 8.95508 65.1797 8.67383C65.8242 8.38086 66.5039 8.2168 67.2188 8.18164C67.3945 8.20508 67.5234 8.28711 67.6055 8.42773C67.6992 8.55664 67.7461 8.69727 67.7461 8.84961C67.7461 8.97852 67.7109 9.10156 67.6406 9.21875C67.582 9.32422 67.4883 9.37695 67.3594 9.37695C66.5859 9.55273 65.9062 9.77539 65.3203 10.0449C64.7461 10.3145 64.2832 10.6719 63.9316 11.1172C63.9316 11.3516 63.9434 11.5859 63.9668 11.8203C64.002 12.043 64.0195 12.2773 64.0195 12.5234C64.0195 12.8281 64.0078 13.1328 63.9844 13.4375C63.9727 13.7422 63.9375 14.041 63.8789 14.334C63.8672 14.4863 63.791 14.5918 63.6504 14.6504C63.5098 14.709 63.3574 14.7383 63.1934 14.7383C63.0293 14.7383 62.877 14.6973 62.7363 14.6152C62.6074 14.5449 62.543 14.4395 62.543 14.2988C62.5781 13.9707 62.6074 13.6367 62.6309 13.2969C62.666 12.9453 62.6836 12.5996 62.6836 12.2598C62.6836 11.8027 62.625 11.4219 62.5078 11.1172C62.4023 10.8125 62.3027 10.5605 62.209 10.3613C62.1738 10.3027 62.1035 10.2207 61.998 10.1152C61.9043 9.99805 61.8047 9.88086 61.6992 9.76367C61.5938 9.63477 61.5 9.50586 61.418 9.37695C61.3359 9.24805 61.2949 9.13672 61.2949 9.04297C61.2949 8.84375 61.3711 8.67383 61.5234 8.5332C61.6875 8.38086 61.8691 8.30469 62.0684 8.30469C62.2676 8.30469 62.502 8.45117 62.7715 8.74414C63.041 9.03711 63.2871 9.38867 63.5098 9.79883ZM74.1094 10.2559C73.9922 10.0918 73.9336 9.86328 73.9336 9.57031C73.9336 9.24219 73.9922 8.9375 74.1094 8.65625C74.2266 8.36328 74.3965 8.11133 74.6191 7.90039C74.8418 7.68945 75.1172 7.52539 75.4453 7.4082C75.7734 7.2793 76.1543 7.21484 76.5879 7.21484C76.8574 7.21484 77.1387 7.25586 77.4316 7.33789C77.7246 7.4082 77.9883 7.50195 78.2227 7.61914C78.4688 7.73633 78.668 7.87109 78.8203 8.02344C78.9727 8.16406 79.0488 8.30469 79.0488 8.44531C79.0488 8.64453 78.9727 8.80273 78.8203 8.91992C78.668 9.03711 78.5273 9.0957 78.3984 9.0957C78.3516 9.0957 78.293 9.08398 78.2227 9.06055C77.8242 8.86133 77.4727 8.7207 77.168 8.63867C76.8633 8.55664 76.5938 8.51562 76.3594 8.51562C75.9844 8.51562 75.7031 8.62109 75.5156 8.83203C75.3398 9.03125 75.252 9.2832 75.252 9.58789C75.252 9.86914 75.3516 10.0859 75.5508 10.2383C75.75 10.3789 75.9961 10.502 76.2891 10.6074C76.5938 10.7012 76.9219 10.7949 77.2734 10.8887C77.625 10.9707 77.9473 11.0938 78.2402 11.2578C78.5449 11.4219 78.7969 11.6387 78.9961 11.9082C79.1953 12.166 79.2949 12.5234 79.2949 12.9805C79.2949 13.6016 79.0664 14.0586 78.6094 14.3516C78.1641 14.6562 77.5547 14.8086 76.7812 14.8086C76.4648 14.8086 76.1367 14.791 75.7969 14.7559C75.457 14.7207 75.1465 14.6621 74.8652 14.5801C74.5957 14.5098 74.373 14.4102 74.1973 14.2812C74.0215 14.1523 73.9336 13.9883 73.9336 13.7891C73.9336 13.6367 73.9746 13.4961 74.0566 13.3672C74.1504 13.2266 74.2734 13.1562 74.4258 13.1562C74.4492 13.1562 74.4668 13.1621 74.4785 13.1738C74.4902 13.1738 74.5078 13.1738 74.5312 13.1738C74.9414 13.3613 75.3281 13.4902 75.6914 13.5605C76.0547 13.6191 76.3711 13.6484 76.6406 13.6484C77.168 13.6484 77.5371 13.584 77.748 13.4551C77.959 13.3262 78.0645 13.1445 78.0645 12.9102C78.0645 12.7227 77.9883 12.5645 77.8359 12.4355C77.6953 12.2949 77.5137 12.1836 77.291 12.1016C77.0801 12.0078 76.8457 11.9258 76.5879 11.8555C76.3418 11.7852 76.1133 11.7148 75.9023 11.6445C75.5742 11.5391 75.252 11.3867 74.9355 11.1875C74.6309 10.9883 74.3555 10.6777 74.1094 10.2559ZM83.3906 8.5332C83.4375 8.49805 83.4902 8.46875 83.5488 8.44531C83.6074 8.41016 83.6719 8.39258 83.7422 8.39258C84.0469 8.41602 84.3633 8.49805 84.6914 8.63867C85.0195 8.7793 85.3184 8.97852 85.5879 9.23633C85.8574 9.49414 86.0801 9.80469 86.2559 10.168C86.4316 10.5312 86.5195 10.9473 86.5195 11.416C86.5078 11.9082 86.4199 12.3418 86.2559 12.7168C86.1035 13.0801 85.8926 13.3848 85.623 13.6309C85.3652 13.877 85.0547 14.0586 84.6914 14.1758C84.3398 14.3047 83.9531 14.3691 83.5312 14.3691C83.2031 14.3691 82.8691 14.3047 82.5293 14.1758C82.1895 14.0586 81.8848 13.8828 81.6152 13.6484C81.3457 13.4023 81.123 13.1094 80.9473 12.7695C80.7715 12.4297 80.6836 12.0371 80.6836 11.5918C80.6836 11.1934 80.7598 10.8066 80.9121 10.4316C81.0645 10.0449 81.252 9.70508 81.4746 9.41211C81.709 9.11914 81.9609 8.88477 82.2305 8.70898C82.5117 8.5332 82.7754 8.44531 83.0215 8.44531C83.1504 8.44531 83.2734 8.47461 83.3906 8.5332ZM83.4961 9.57031C83.2852 9.67578 83.0918 9.78711 82.916 9.9043C82.752 10.0098 82.6055 10.1387 82.4766 10.291C82.3594 10.4434 82.2656 10.6309 82.1953 10.8535C82.1367 11.0762 82.1074 11.3516 82.1074 11.6797C82.1074 11.9727 82.1543 12.2129 82.248 12.4004C82.3535 12.5879 82.4824 12.7402 82.6348 12.8574C82.7988 12.9629 82.9746 13.0391 83.1621 13.0859C83.3613 13.1211 83.5547 13.1387 83.7422 13.1387C84.1406 13.1387 84.4746 12.9805 84.7441 12.6641C85.0137 12.3477 85.1484 11.9609 85.1484 11.5039C85.1484 11.1523 85.0957 10.8652 84.9902 10.6426C84.8965 10.4199 84.7676 10.2441 84.6035 10.1152C84.4512 9.97461 84.2754 9.86914 84.0762 9.79883C83.877 9.7168 83.6836 9.64062 83.4961 9.57031ZM93.4805 6.81055C93.4688 6.75195 93.4629 6.69922 93.4629 6.65234C93.4629 6.59375 93.4629 6.53516 93.4629 6.47656C93.4629 6.19531 93.5098 5.89648 93.6035 5.58008C93.6973 5.26367 93.8496 4.97656 94.0605 4.71875C94.2715 4.44922 94.5469 4.22656 94.8867 4.05078C95.2266 3.875 95.6426 3.78711 96.1348 3.78711C96.334 3.78711 96.5566 3.83398 96.8027 3.92773C97.0605 4.02148 97.3008 4.15039 97.5234 4.31445C97.7578 4.47852 97.9512 4.67188 98.1035 4.89453C98.2676 5.11719 98.3496 5.35156 98.3496 5.59766C98.3496 5.79688 98.2734 5.95508 98.1211 6.07227C97.9688 6.18945 97.8105 6.24805 97.6465 6.24805C97.4824 6.24805 97.3535 6.18945 97.2598 6.07227C97.166 5.94336 97.0723 5.80859 96.9785 5.66797C96.8848 5.52734 96.7793 5.39844 96.6621 5.28125C96.5449 5.15234 96.375 5.08789 96.1523 5.08789C95.6484 5.08789 95.291 5.22266 95.0801 5.49219C94.8809 5.75 94.7812 6.04297 94.7812 6.37109C94.7812 6.67578 94.7988 6.97461 94.834 7.26758C94.8809 7.56055 94.9219 7.82422 94.957 8.05859C94.9688 8.46875 95.0039 8.84961 95.0625 9.20117C95.625 9.20117 96.1699 9.19531 96.6973 9.18359C97.2246 9.16016 97.6289 9.13086 97.9102 9.0957C98.0508 9.11914 98.1504 9.19531 98.209 9.32422C98.2793 9.44141 98.3145 9.57031 98.3145 9.71094C98.3145 9.92188 98.2441 10.0801 98.1035 10.1855C97.9746 10.291 97.7754 10.3613 97.5059 10.3965C97.2363 10.4316 96.9023 10.4492 96.5039 10.4492C96.1172 10.4375 95.6602 10.4316 95.1328 10.4316C95.1328 10.7129 95.1328 11.0059 95.1328 11.3105C95.1445 11.6152 95.1504 11.9375 95.1504 12.2773C95.1504 12.4531 95.1562 12.6641 95.168 12.9102C95.1797 13.1562 95.168 13.3906 95.1328 13.6133C95.1094 13.8242 95.0391 14.0059 94.9219 14.1582C94.8164 14.3223 94.6406 14.4043 94.3945 14.4043C94.2305 14.4043 94.084 14.3516 93.9551 14.2461C93.8262 14.1523 93.7617 14.0117 93.7617 13.8242C93.7617 13.3672 93.7734 12.9512 93.7969 12.5762C93.8203 12.1895 93.832 11.8203 93.832 11.4688C93.832 11.293 93.832 11.123 93.832 10.959C93.832 10.7832 93.8262 10.6074 93.8145 10.4316H93.1992C93.0352 10.4316 92.8887 10.4316 92.7598 10.4316C92.6309 10.4199 92.5195 10.3965 92.4258 10.3613C92.3438 10.3145 92.2793 10.2441 92.2324 10.1504C92.1855 10.0566 92.1621 9.92188 92.1621 9.74609C92.1621 9.60547 92.1914 9.48242 92.25 9.37695C92.3203 9.25977 92.4258 9.20117 92.5664 9.20117C92.6367 9.20117 92.7129 9.20703 92.7949 9.21875C92.877 9.21875 92.9648 9.21875 93.0586 9.21875H93.7266C93.668 8.87891 93.627 8.51562 93.6035 8.12891C93.5801 7.74219 93.5391 7.30273 93.4805 6.81055ZM101.689 8.51562C101.76 8.45703 101.859 8.42773 101.988 8.42773C102.387 8.46289 102.744 8.57422 103.061 8.76172C103.377 8.9375 103.641 9.16016 103.852 9.42969C104.074 9.6875 104.238 9.97461 104.344 10.291C104.461 10.6074 104.52 10.9121 104.52 11.2051V11.293C104.602 11.5625 104.689 11.7734 104.783 11.9258C104.877 12.0781 104.977 12.1953 105.082 12.2773C105.199 12.3594 105.311 12.4121 105.416 12.4355C105.533 12.4473 105.65 12.4531 105.768 12.4531C105.873 12.4531 105.984 12.4297 106.102 12.3828C106.23 12.3359 106.377 12.3125 106.541 12.3125C106.693 12.3125 106.816 12.377 106.91 12.5059C107.016 12.623 107.068 12.752 107.068 12.8926C107.068 13.0215 107.027 13.1387 106.945 13.2441C106.875 13.3379 106.775 13.4199 106.646 13.4902C106.529 13.5488 106.395 13.5957 106.242 13.6309C106.102 13.6543 105.961 13.666 105.82 13.666C105.375 13.666 104.988 13.5723 104.66 13.3848C104.332 13.1973 104.074 12.9805 103.887 12.7344C103.652 13.0039 103.371 13.2148 103.043 13.3672C102.715 13.5195 102.369 13.5957 102.006 13.5957C101.678 13.5957 101.35 13.543 101.021 13.4375C100.693 13.332 100.4 13.1738 100.143 12.9629C99.8848 12.752 99.6738 12.4941 99.5098 12.1895C99.3457 11.873 99.2637 11.5039 99.2637 11.082C99.2637 10.8359 99.3047 10.5781 99.3867 10.3086C99.4805 10.0391 99.6152 9.78125 99.791 9.53516C99.9668 9.28906 100.178 9.07227 100.424 8.88477C100.682 8.69727 100.98 8.56836 101.32 8.49805H101.426C101.543 8.49805 101.631 8.50391 101.689 8.51562ZM101.795 9.62305C101.385 9.75195 101.086 9.93945 100.898 10.1855C100.711 10.4199 100.617 10.6953 100.617 11.0117C100.617 11.3867 100.711 11.709 100.898 11.9785C101.098 12.2363 101.461 12.3652 101.988 12.3652C102.293 12.3652 102.562 12.2539 102.797 12.0312C103.031 11.8086 103.148 11.5098 103.148 11.1348C103.148 10.877 103.107 10.666 103.025 10.502C102.955 10.3262 102.855 10.1855 102.727 10.0801C102.609 9.96289 102.469 9.875 102.305 9.81641C102.141 9.74609 101.971 9.68164 101.795 9.62305ZM110.303 9.79883C110.771 9.33008 111.328 8.95508 111.973 8.67383C112.617 8.38086 113.297 8.2168 114.012 8.18164C114.188 8.20508 114.316 8.28711 114.398 8.42773C114.492 8.55664 114.539 8.69727 114.539 8.84961C114.539 8.97852 114.504 9.10156 114.434 9.21875C114.375 9.32422 114.281 9.37695 114.152 9.37695C113.379 9.55273 112.699 9.77539 112.113 10.0449C111.539 10.3145 111.076 10.6719 110.725 11.1172C110.725 11.3516 110.736 11.5859 110.76 11.8203C110.795 12.043 110.812 12.2773 110.812 12.5234C110.812 12.8281 110.801 13.1328 110.777 13.4375C110.766 13.7422 110.73 14.041 110.672 14.334C110.66 14.4863 110.584 14.5918 110.443 14.6504C110.303 14.709 110.15 14.7383 109.986 14.7383C109.822 14.7383 109.67 14.6973 109.529 14.6152C109.4 14.5449 109.336 14.4395 109.336 14.2988C109.371 13.9707 109.4 13.6367 109.424 13.2969C109.459 12.9453 109.477 12.5996 109.477 12.2598C109.477 11.8027 109.418 11.4219 109.301 11.1172C109.195 10.8125 109.096 10.5605 109.002 10.3613C108.967 10.3027 108.896 10.2207 108.791 10.1152C108.697 9.99805 108.598 9.88086 108.492 9.76367C108.387 9.63477 108.293 9.50586 108.211 9.37695C108.129 9.24805 108.088 9.13672 108.088 9.04297C108.088 8.84375 108.164 8.67383 108.316 8.5332C108.48 8.38086 108.662 8.30469 108.861 8.30469C109.061 8.30469 109.295 8.45117 109.564 8.74414C109.834 9.03711 110.08 9.38867 110.303 9.79883Z" transform="translate(132 55)" fill="white"/>
<path d="M27.3922 31.8627C26.9484 28.1751 25.924 24.5559 24.4217 21.1756C24.012 20.2537 23.5681 19.366 23.0901 18.5124C22.8511 18.0002 22.6121 17.4881 22.3731 16.9759C19.0952 10.5227 13.2225 3.38659 5.4718 2.87443C6.22297 2.87443 7.00828 2.84029 7.75945 2.80614C10.0471 2.73786 12.3689 2.66957 14.6565 2.53299C15.237 2.49885 15.237 1.67939 14.6565 1.64525C14.3492 1.6111 14.0761 1.6111 13.7688 1.57696C13.7346 1.54282 13.6664 1.54282 13.5981 1.54282C13.3591 1.50867 13.0859 1.50867 12.8469 1.47453C13.1542 1.44038 13.4273 1.44038 13.7346 1.3721C14.2809 1.30381 14.3151 0.586784 13.8371 0.484353C13.7688 0.416065 13.6664 0.381921 13.5298 0.381921C13.1201 0.381921 12.7445 0.381921 12.3347 0.347777C8.71548 0.0746248 5.13036 -0.0278072 1.5111 0.00633682C1.34038 0.00633682 1.23795 0.0746248 1.16966 0.177057C0.964793 0.177057 0.725785 0.313633 0.691641 0.518497C0.316058 0.347777 -0.196102 0.72336 0.0770497 1.09894C1.85254 3.52317 3.62802 5.91325 5.71081 8.03017C6.76927 9.39593 7.89602 10.7275 9.05692 11.9909C9.39836 12.3665 9.94466 11.8202 9.60322 11.4446C9.50079 11.308 9.36421 11.1714 9.26178 11.0348C9.50079 11.1373 9.7398 10.9324 9.80808 10.6934C10.0129 10.8983 10.2178 11.1031 10.4227 11.2739C10.8324 11.6836 11.4129 11.069 11.0373 10.6593C9.09106 8.4399 7.14485 6.22054 5.23279 4.00118C5.36937 4.06947 5.54009 4.13776 5.67666 4.1719C8.71548 5.60595 11.2763 7.99603 13.5298 10.4203C16.0564 13.1176 18.1734 16.1906 19.8806 19.4343C22.8511 25.1022 24.4559 31.3847 24.6266 37.7354C24.5924 38.4525 24.5583 39.1695 24.49 39.8865C24.49 39.9889 24.5241 40.0914 24.6266 40.1938C24.6266 40.3987 24.6266 40.6035 24.5924 40.8425C24.5583 41.3206 25.3436 41.4571 25.446 40.945C25.5143 40.6377 25.5826 40.3304 25.6167 40.0231C28.2117 38.4525 27.6654 34.4235 27.3922 31.8627ZM11.4811 1.40624C11.1738 1.3721 10.8665 1.3721 10.5593 1.33795C11.0031 1.33795 11.4811 1.33795 11.925 1.30381C11.9592 1.3721 11.9933 1.40624 12.0274 1.44038C11.8567 1.40624 11.6519 1.40624 11.4811 1.40624ZM8.37404 4.51334C8.0326 4.34262 7.65701 4.13776 7.28143 3.96704C7.69116 4.06947 8.06674 4.1719 8.47647 4.27433C8.40818 4.37677 8.37404 4.44505 8.37404 4.51334ZM10.6958 5.23037C12.9152 6.35712 14.8955 8.06432 16.6369 10.0105C14.8272 8.20089 12.8469 6.59613 10.6958 5.23037ZM20.4951 18.6831C18.6855 15.3028 16.3979 12.1616 13.7346 9.43008C13.4615 9.15692 13.1883 8.88377 12.9152 8.61062C15.7491 10.9666 18.1734 13.8688 20.0171 17.0783C21.5195 19.6733 22.6121 22.4389 23.3632 25.307C22.6121 23.0194 21.656 20.8 20.4951 18.6831ZM21.2805 17.1808C21.656 17.7612 21.9975 18.3417 22.3048 18.9562C23.1242 20.8342 23.8071 22.7804 24.2851 24.7607C23.534 22.1316 22.5438 19.605 21.2805 17.1808ZM25.8899 38.7598C25.924 38.589 25.924 38.4183 25.9582 38.2476C26.163 38.2135 26.3338 38.0769 26.3338 37.8379C26.2996 37.0526 26.2655 36.2331 26.2313 35.4478C26.3679 33.0236 26.2313 30.5993 25.8899 28.2093C25.9923 28.6873 26.0948 29.1312 26.1972 29.6092C26.5045 31.2822 26.7094 32.9894 26.7776 34.7308C26.7776 35.9599 26.7435 37.7013 25.8899 38.7598Z" transform="translate(371.968 4) rotate(44.5796)" fill="white"/>
<path d="M0.738281 4.77148C0.773438 4.66602 0.861328 4.58398 1.00195 4.52539C1.1543 4.45508 1.31836 4.41992 1.49414 4.41992C1.66992 4.41992 1.8457 4.47266 2.02148 4.57812C2.19727 4.67188 2.33203 4.81836 2.42578 5.01758C2.42578 5.2168 2.43164 5.5625 2.44336 6.05469C2.45508 6.54688 2.4668 7.10352 2.47852 7.72461C2.50195 8.33398 2.51953 8.9668 2.53125 9.62305C2.55469 10.2793 2.56641 10.877 2.56641 11.416C2.56641 11.791 2.56055 12.125 2.54883 12.418C2.54883 12.6992 2.54297 12.916 2.53125 13.0684C2.66016 13.0918 2.82422 13.1094 3.02344 13.1211C3.23438 13.1328 3.46289 13.1387 3.70898 13.1387C3.95508 13.1387 4.20703 13.1328 4.46484 13.1211C4.73438 13.0977 4.99805 13.0742 5.25586 13.0508C5.52539 13.0273 5.77734 13.0098 6.01172 12.998C6.24609 12.9746 6.45117 12.9629 6.62695 12.9629C6.79102 12.9629 6.91992 13.0332 7.01367 13.1738C7.11914 13.3145 7.17188 13.4668 7.17188 13.6309C7.17188 13.7598 7.14258 13.877 7.08398 13.9824C7.02539 14.0879 6.9375 14.1582 6.82031 14.1934C6.58594 14.2168 6.32227 14.2402 6.0293 14.2637C5.74805 14.2988 5.45508 14.3281 5.15039 14.3516C4.8457 14.375 4.53516 14.3926 4.21875 14.4043C3.91406 14.416 3.62695 14.4219 3.35742 14.4219C3.05273 14.4219 2.76562 14.4102 2.49609 14.3867C2.22656 14.3633 1.99219 14.3164 1.79297 14.2461C1.60547 14.1875 1.45312 14.0996 1.33594 13.9824C1.23047 13.8652 1.17773 13.7129 1.17773 13.5254C1.17773 13.4551 1.18359 13.2969 1.19531 13.0508C1.21875 12.793 1.23047 12.4121 1.23047 11.9082C1.23047 11.416 1.22461 10.8535 1.21289 10.2207C1.20117 9.58789 1.18945 8.97266 1.17773 8.375C1.16602 7.77734 1.1543 7.24414 1.14258 6.77539C1.13086 6.29492 1.125 5.9668 1.125 5.79102C1.03125 5.66211 0.9375 5.52734 0.84375 5.38672C0.761719 5.23438 0.720703 5.07617 0.720703 4.91211C0.720703 4.85352 0.726562 4.80664 0.738281 4.77148ZM14.8008 9.13086C15.1641 9.63477 15.3457 10.0742 15.3457 10.4492C15.3457 10.8477 15.1406 11.1113 14.7305 11.2402L11.0566 12.3301C11.209 12.5645 11.4023 12.7461 11.6367 12.875C11.8828 13.0039 12.1289 13.0684 12.375 13.0684C12.7617 13.0684 13.125 13.0098 13.4648 12.8926C13.8164 12.7637 14.1445 12.541 14.4492 12.2246C14.5312 12.1426 14.625 12.1016 14.7305 12.1016C14.8711 12.1016 15.0117 12.1719 15.1523 12.3125C15.3047 12.4414 15.3809 12.5879 15.3809 12.752C15.3809 12.916 15.2988 13.0859 15.1348 13.2617C14.9824 13.4375 14.7773 13.6074 14.5195 13.7715C14.2617 13.9238 13.9688 14.0469 13.6406 14.1406C13.3125 14.2461 12.9785 14.2988 12.6387 14.2988C12.2988 14.2988 11.9355 14.2461 11.5488 14.1406C11.1738 14.0352 10.8223 13.8711 10.4941 13.6484C10.166 13.4141 9.89648 13.1152 9.68555 12.752C9.47461 12.3887 9.36914 11.9434 9.36914 11.416C9.36914 10.8535 9.55078 10.209 9.91406 9.48242C10.1484 9.02539 10.5059 8.69141 10.9863 8.48047C11.4785 8.25781 11.9941 8.14648 12.5332 8.14648C12.9785 8.14648 13.4004 8.22852 13.7988 8.39258C14.209 8.55664 14.543 8.80273 14.8008 9.13086ZM10.7578 11.1523L13.957 10.2207C13.8984 9.91602 13.7402 9.69336 13.4824 9.55273C13.2363 9.40039 12.9609 9.32422 12.6562 9.32422C12.3164 9.32422 12.0234 9.38867 11.7773 9.51758C11.543 9.63477 11.3496 9.78711 11.1973 9.97461C11.0449 10.1621 10.9336 10.3613 10.8633 10.5723C10.793 10.7832 10.7578 10.9766 10.7578 11.1523ZM18 12.0488C18.0117 11.8145 18.0176 11.5859 18.0176 11.3633C18.0176 11.1406 18.0234 10.9238 18.0352 10.7129L18.0879 9.48242H17.5078C17.3438 9.48242 17.1973 9.48242 17.0684 9.48242C16.9512 9.4707 16.8457 9.44727 16.752 9.41211C16.6582 9.36523 16.5879 9.29492 16.541 9.20117C16.4941 9.10742 16.4707 8.97266 16.4707 8.79688C16.4707 8.65625 16.5 8.5332 16.5586 8.42773C16.6289 8.31055 16.7344 8.25195 16.875 8.25195C17.0156 8.25195 17.1914 8.25781 17.4023 8.26953C17.625 8.28125 17.8711 8.28125 18.1406 8.26953C18.1406 7.625 18.1289 6.98633 18.1055 6.35352C18.082 5.7207 18.0703 5.04688 18.0703 4.33203C18.0703 4.13281 18.1406 3.99219 18.2812 3.91016C18.4219 3.81641 18.5742 3.76953 18.7383 3.76953C18.9844 3.76953 19.1602 3.86328 19.2656 4.05078C19.3711 4.22656 19.4414 4.44336 19.4766 4.70117C19.5117 4.95898 19.5176 5.22852 19.4941 5.50977C19.4824 5.7793 19.4766 6.00195 19.4766 6.17773C19.4766 6.91602 19.459 7.60742 19.4238 8.25195C19.9863 8.25195 20.5195 8.24609 21.0234 8.23438C21.5391 8.21094 21.9375 8.18164 22.2188 8.14648C22.3594 8.16992 22.459 8.24609 22.5176 8.375C22.5879 8.49219 22.623 8.62109 22.623 8.76172C22.623 8.96094 22.5762 9.10742 22.4824 9.20117C22.4004 9.29492 22.2363 9.36523 21.9902 9.41211C21.7559 9.45898 21.4277 9.48242 21.0059 9.48242C20.5957 9.48242 20.0566 9.48242 19.3887 9.48242C19.3652 9.86914 19.3477 10.2676 19.3359 10.6777C19.3359 11.0879 19.3359 11.5215 19.3359 11.9785C19.3359 12.4355 19.418 12.7871 19.582 13.0332C19.7461 13.2676 19.957 13.3848 20.2148 13.3848C20.4961 13.3848 20.748 13.2852 20.9707 13.0859C21.1934 12.875 21.4102 12.5996 21.6211 12.2598C21.6914 12.1426 21.8086 12.084 21.9727 12.084C22.1367 12.084 22.2832 12.1426 22.4121 12.2598C22.5527 12.377 22.623 12.5176 22.623 12.6816C22.623 12.916 22.541 13.1504 22.377 13.3848C22.2129 13.6074 22.002 13.8125 21.7441 14C21.4863 14.1875 21.1992 14.3398 20.8828 14.457C20.5664 14.5742 20.2617 14.6328 19.9688 14.6328C19.6055 14.6328 19.2949 14.5566 19.0371 14.4043C18.791 14.252 18.5918 14.0527 18.4395 13.8066C18.2871 13.5605 18.1758 13.2852 18.1055 12.9805C18.0352 12.6641 18 12.3535 18 12.0488ZM25.4531 3.1543C25.4883 2.86133 25.5938 2.64453 25.7695 2.50391C25.9453 2.35156 26.168 2.27539 26.4375 2.27539C26.543 2.27539 26.6602 2.29297 26.7891 2.32812C26.9297 2.36328 27.0586 2.42773 27.1758 2.52148C27.3047 2.60352 27.4102 2.71484 27.4922 2.85547C27.5859 2.98438 27.6328 3.14844 27.6328 3.34766C27.6328 3.57031 27.6094 3.81055 27.5625 4.06836C27.5156 4.31445 27.4453 4.56055 27.3516 4.80664C27.2578 5.05273 27.1348 5.28711 26.9824 5.50977C26.8418 5.73242 26.6719 5.93164 26.4727 6.10742C26.3672 6.22461 26.25 6.2832 26.1211 6.2832C25.9922 6.2832 25.8691 6.23047 25.752 6.125C25.6465 6.01953 25.5938 5.89648 25.5938 5.75586C25.5938 5.67383 25.6172 5.60352 25.6641 5.54492C25.8398 5.3457 25.9805 5.1582 26.0859 4.98242C26.2031 4.79492 26.2969 4.5957 26.3672 4.38477C26.0508 4.38477 25.8164 4.2793 25.6641 4.06836C25.5117 3.8457 25.4355 3.60547 25.4355 3.34766C25.4355 3.26563 25.4414 3.20117 25.4531 3.1543ZM29.7773 10.2559C29.6602 10.0918 29.6016 9.86328 29.6016 9.57031C29.6016 9.24219 29.6602 8.9375 29.7773 8.65625C29.8945 8.36328 30.0645 8.11133 30.2871 7.90039C30.5098 7.68945 30.7852 7.52539 31.1133 7.4082C31.4414 7.2793 31.8223 7.21484 32.2559 7.21484C32.5254 7.21484 32.8066 7.25586 33.0996 7.33789C33.3926 7.4082 33.6562 7.50195 33.8906 7.61914C34.1367 7.73633 34.3359 7.87109 34.4883 8.02344C34.6406 8.16406 34.7168 8.30469 34.7168 8.44531C34.7168 8.64453 34.6406 8.80273 34.4883 8.91992C34.3359 9.03711 34.1953 9.0957 34.0664 9.0957C34.0195 9.0957 33.9609 9.08398 33.8906 9.06055C33.4922 8.86133 33.1406 8.7207 32.8359 8.63867C32.5312 8.55664 32.2617 8.51562 32.0273 8.51562C31.6523 8.51562 31.3711 8.62109 31.1836 8.83203C31.0078 9.03125 30.9199 9.2832 30.9199 9.58789C30.9199 9.86914 31.0195 10.0859 31.2188 10.2383C31.418 10.3789 31.6641 10.502 31.957 10.6074C32.2617 10.7012 32.5898 10.7949 32.9414 10.8887C33.293 10.9707 33.6152 11.0938 33.9082 11.2578C34.2129 11.4219 34.4648 11.6387 34.6641 11.9082C34.8633 12.166 34.9629 12.5234 34.9629 12.9805C34.9629 13.6016 34.7344 14.0586 34.2773 14.3516C33.832 14.6562 33.2227 14.8086 32.4492 14.8086C32.1328 14.8086 31.8047 14.791 31.4648 14.7559C31.125 14.7207 30.8145 14.6621 30.5332 14.5801C30.2637 14.5098 30.041 14.4102 29.8652 14.2812C29.6895 14.1523 29.6016 13.9883 29.6016 13.7891C29.6016 13.6367 29.6426 13.4961 29.7246 13.3672C29.8184 13.2266 29.9414 13.1562 30.0938 13.1562C30.1172 13.1562 30.1348 13.1621 30.1465 13.1738C30.1582 13.1738 30.1758 13.1738 30.1992 13.1738C30.6094 13.3613 30.9961 13.4902 31.3594 13.5605C31.7227 13.6191 32.0391 13.6484 32.3086 13.6484C32.8359 13.6484 33.2051 13.584 33.416 13.4551C33.627 13.3262 33.7324 13.1445 33.7324 12.9102C33.7324 12.7227 33.6562 12.5645 33.5039 12.4355C33.3633 12.2949 33.1816 12.1836 32.959 12.1016C32.748 12.0078 32.5137 11.9258 32.2559 11.8555C32.0098 11.7852 31.7812 11.7148 31.5703 11.6445C31.2422 11.5391 30.9199 11.3867 30.6035 11.1875C30.2988 10.9883 30.0234 10.6777 29.7773 10.2559ZM43.6992 16.4434H43.8047C44.2148 16.4434 44.5664 16.3203 44.8594 16.0742C45.1641 15.8398 45.3164 15.5176 45.3164 15.1074C45.3164 14.8262 45.2695 14.5918 45.1758 14.4043C45.082 14.2168 44.9648 14.0703 44.8242 13.9648C44.6836 13.8477 44.5371 13.7715 44.3848 13.7363C44.2441 13.6895 44.1211 13.666 44.0156 13.666C43.582 13.6895 43.207 13.8242 42.8906 14.0703C42.5859 14.3281 42.4336 14.6973 42.4336 15.1777C42.4336 15.5176 42.5449 15.8105 42.7676 16.0566C43.002 16.3027 43.3125 16.4316 43.6992 16.4434ZM43.7695 17.6035C43.7227 17.6035 43.6758 17.6035 43.6289 17.6035C43.5938 17.6152 43.5586 17.6211 43.5234 17.6211C43.1602 17.6211 42.8262 17.5566 42.5215 17.4277C42.2285 17.2988 41.9707 17.123 41.748 16.9004C41.5371 16.6895 41.373 16.4375 41.2559 16.1445C41.1387 15.8516 41.0801 15.5469 41.0801 15.2305C41.0801 14.9023 41.1328 14.5977 41.2383 14.3164C41.3438 14.0469 41.4844 13.8008 41.6602 13.5781C41.8359 13.3438 42.0352 13.1445 42.2578 12.9805C42.4922 12.8164 42.7324 12.6875 42.9785 12.5938C42.8965 12.4414 42.832 12.2773 42.7852 12.1016C42.7383 11.9258 42.7148 11.7383 42.7148 11.5391C42.7148 11.457 42.7207 11.3809 42.7324 11.3105C42.7441 11.2285 42.7617 11.1406 42.7852 11.0469C42.3984 10.8945 42.0703 10.6543 41.8008 10.3262C41.5312 9.99805 41.3965 9.59375 41.3965 9.11328C41.3965 8.82031 41.4551 8.50977 41.5723 8.18164C41.7012 7.8418 41.8945 7.53711 42.1523 7.26758C42.3047 7.11523 42.4395 6.95117 42.5566 6.77539C42.6738 6.59961 42.7266 6.3125 42.7148 5.91406V5.54492C42.7148 5.39258 42.7734 5.28125 42.8906 5.21094C43.0078 5.12891 43.1484 5.08789 43.3125 5.08789C43.6172 5.08789 43.8223 5.16992 43.9277 5.33398C44.0332 5.48633 44.0859 5.69727 44.0859 5.9668C44.0859 6.23633 44.0566 6.47656 43.998 6.6875C44.2793 6.72266 44.543 6.81641 44.7891 6.96875C45.0469 7.10938 45.2695 7.28516 45.457 7.49609C45.6445 7.69531 45.791 7.91797 45.8965 8.16406C46.0137 8.41016 46.0723 8.65625 46.0723 8.90234C46.0723 9.23047 46.0137 9.5293 45.8965 9.79883C45.7793 10.0684 45.627 10.3027 45.4395 10.502C45.252 10.6895 45.041 10.8477 44.8066 10.9766C44.5723 11.0938 44.3379 11.1699 44.1035 11.2051C44.0918 11.2637 44.0801 11.3223 44.0684 11.3809C44.0684 11.4277 44.0684 11.4805 44.0684 11.5391C44.0684 11.7031 44.0918 11.8613 44.1387 12.0137C44.1855 12.1543 44.25 12.2891 44.332 12.418C44.5898 12.4531 44.8535 12.5293 45.123 12.6465C45.3926 12.7637 45.6387 12.9277 45.8613 13.1387C46.0957 13.3379 46.2832 13.584 46.4238 13.877C46.5762 14.1699 46.6523 14.5098 46.6523 14.8965C46.6523 15.3535 46.582 15.7461 46.4414 16.0742C46.3008 16.4023 46.1016 16.6719 45.8438 16.8828C45.5859 17.0938 45.2812 17.2578 44.9297 17.375C44.5781 17.4922 44.1914 17.5684 43.7695 17.6035ZM43.4355 7.75977L43.0312 8.2168C42.9375 8.33398 42.873 8.46289 42.8379 8.60352C42.8027 8.74414 42.7852 8.9082 42.7852 9.0957C42.7852 9.33008 42.8789 9.54102 43.0664 9.72852C43.2539 9.91602 43.5234 10.0098 43.875 10.0098C43.957 10.0098 44.0449 9.98633 44.1387 9.93945C44.2324 9.88086 44.3203 9.81055 44.4023 9.72852C44.4844 9.63477 44.5547 9.53516 44.6133 9.42969C44.6719 9.3125 44.7012 9.18945 44.7012 9.06055C44.7012 8.68555 44.5898 8.39844 44.3672 8.19922C44.1562 8 43.8457 7.85352 43.4355 7.75977ZM53.7188 9.13086C54.082 9.63477 54.2637 10.0742 54.2637 10.4492C54.2637 10.8477 54.0586 11.1113 53.6484 11.2402L49.9746 12.3301C50.127 12.5645 50.3203 12.7461 50.5547 12.875C50.8008 13.0039 51.0469 13.0684 51.293 13.0684C51.6797 13.0684 52.043 13.0098 52.3828 12.8926C52.7344 12.7637 53.0625 12.541 53.3672 12.2246C53.4492 12.1426 53.543 12.1016 53.6484 12.1016C53.7891 12.1016 53.9297 12.1719 54.0703 12.3125C54.2227 12.4414 54.2988 12.5879 54.2988 12.752C54.2988 12.916 54.2168 13.0859 54.0527 13.2617C53.9004 13.4375 53.6953 13.6074 53.4375 13.7715C53.1797 13.9238 52.8867 14.0469 52.5586 14.1406C52.2305 14.2461 51.8965 14.2988 51.5566 14.2988C51.2168 14.2988 50.8535 14.2461 50.4668 14.1406C50.0918 14.0352 49.7402 13.8711 49.4121 13.6484C49.084 13.4141 48.8145 13.1152 48.6035 12.752C48.3926 12.3887 48.2871 11.9434 48.2871 11.416C48.2871 10.8535 48.4688 10.209 48.832 9.48242C49.0664 9.02539 49.4238 8.69141 49.9043 8.48047C50.3965 8.25781 50.9121 8.14648 51.4512 8.14648C51.8965 8.14648 52.3184 8.22852 52.7168 8.39258C53.127 8.55664 53.4609 8.80273 53.7188 9.13086ZM49.6758 11.1523L52.875 10.2207C52.8164 9.91602 52.6582 9.69336 52.4004 9.55273C52.1543 9.40039 51.8789 9.32422 51.5742 9.32422C51.2344 9.32422 50.9414 9.38867 50.6953 9.51758C50.4609 9.63477 50.2676 9.78711 50.1152 9.97461C49.9629 10.1621 49.8516 10.3613 49.7812 10.5723C49.7109 10.7832 49.6758 10.9766 49.6758 11.1523ZM56.918 12.0488C56.9297 11.8145 56.9355 11.5859 56.9355 11.3633C56.9355 11.1406 56.9414 10.9238 56.9531 10.7129L57.0059 9.48242H56.4258C56.2617 9.48242 56.1152 9.48242 55.9863 9.48242C55.8691 9.4707 55.7637 9.44727 55.6699 9.41211C55.5762 9.36523 55.5059 9.29492 55.459 9.20117C55.4121 9.10742 55.3887 8.97266 55.3887 8.79688C55.3887 8.65625 55.418 8.5332 55.4766 8.42773C55.5469 8.31055 55.6523 8.25195 55.793 8.25195C55.9336 8.25195 56.1094 8.25781 56.3203 8.26953C56.543 8.28125 56.7891 8.28125 57.0586 8.26953C57.0586 7.625 57.0469 6.98633 57.0234 6.35352C57 5.7207 56.9883 5.04688 56.9883 4.33203C56.9883 4.13281 57.0586 3.99219 57.1992 3.91016C57.3398 3.81641 57.4922 3.76953 57.6562 3.76953C57.9023 3.76953 58.0781 3.86328 58.1836 4.05078C58.2891 4.22656 58.3594 4.44336 58.3945 4.70117C58.4297 4.95898 58.4355 5.22852 58.4121 5.50977C58.4004 5.7793 58.3945 6.00195 58.3945 6.17773C58.3945 6.91602 58.377 7.60742 58.3418 8.25195C58.9043 8.25195 59.4375 8.24609 59.9414 8.23438C60.457 8.21094 60.8555 8.18164 61.1367 8.14648C61.2773 8.16992 61.377 8.24609 61.4355 8.375C61.5059 8.49219 61.541 8.62109 61.541 8.76172C61.541 8.96094 61.4941 9.10742 61.4004 9.20117C61.3184 9.29492 61.1543 9.36523 60.9082 9.41211C60.6738 9.45898 60.3457 9.48242 59.9238 9.48242C59.5137 9.48242 58.9746 9.48242 58.3066 9.48242C58.2832 9.86914 58.2656 10.2676 58.2539 10.6777C58.2539 11.0879 58.2539 11.5215 58.2539 11.9785C58.2539 12.4355 58.3359 12.7871 58.5 13.0332C58.6641 13.2676 58.875 13.3848 59.1328 13.3848C59.4141 13.3848 59.666 13.2852 59.8887 13.0859C60.1113 12.875 60.3281 12.5996 60.5391 12.2598C60.6094 12.1426 60.7266 12.084 60.8906 12.084C61.0547 12.084 61.2012 12.1426 61.3301 12.2598C61.4707 12.377 61.541 12.5176 61.541 12.6816C61.541 12.916 61.459 13.1504 61.2949 13.3848C61.1309 13.6074 60.9199 13.8125 60.6621 14C60.4043 14.1875 60.1172 14.3398 59.8008 14.457C59.4844 14.5742 59.1797 14.6328 58.8867 14.6328C58.5234 14.6328 58.2129 14.5566 57.9551 14.4043C57.709 14.252 57.5098 14.0527 57.3574 13.8066C57.2051 13.5605 57.0938 13.2852 57.0234 12.9805C56.9531 12.6641 56.918 12.3535 56.918 12.0488ZM68.4141 13.7715C68.4727 13.3145 68.5137 12.8398 68.5371 12.3477C68.5723 11.8555 68.5898 11.3633 68.5898 10.8711V8.56836C68.5898 8.42773 68.6543 8.32227 68.7832 8.25195C68.9121 8.16992 69.0586 8.12891 69.2227 8.12891C69.3633 8.12891 69.498 8.1582 69.627 8.2168C69.7559 8.27539 69.8438 8.36914 69.8906 8.49805C69.9023 8.82617 69.9082 9.20703 69.9082 9.64062C69.9199 10.0742 69.9258 10.5254 69.9258 10.9941C69.9258 11.4863 69.9082 11.9844 69.873 12.4883C69.8379 12.9805 69.8086 13.4551 69.7852 13.9121C69.75 14.1113 69.668 14.2578 69.5391 14.3516C69.4102 14.457 69.2695 14.5098 69.1172 14.5098C68.9531 14.5098 68.7949 14.457 68.6426 14.3516C68.4902 14.2461 68.4141 14.082 68.4141 13.8594V13.7715ZM70.207 5.68555C70.1484 5.97852 70.0312 6.20117 69.8555 6.35352C69.6797 6.50586 69.4688 6.58203 69.2227 6.58203C69.1289 6.58203 69.0176 6.57031 68.8887 6.54688C68.7598 6.51172 68.6367 6.45898 68.5195 6.38867C68.4141 6.30664 68.3203 6.20117 68.2383 6.07227C68.1562 5.93164 68.1152 5.75586 68.1152 5.54492C68.1152 5.16992 68.2207 4.90039 68.4316 4.73633C68.6426 4.56055 68.918 4.47266 69.2578 4.47266C69.5977 4.47266 69.8438 4.57812 69.9961 4.78906C70.1484 5 70.2246 5.24023 70.2246 5.50977C70.2246 5.5332 70.2188 5.5625 70.207 5.59766C70.207 5.63281 70.207 5.66211 70.207 5.68555ZM71.9297 8.84961C71.8359 8.7207 71.7891 8.60352 71.7891 8.49805C71.7891 8.32227 71.8711 8.16992 72.0352 8.04102C72.1992 7.91211 72.3691 7.84766 72.5449 7.84766C72.6621 7.84766 72.7734 7.88867 72.8789 7.9707C72.9844 8.04102 73.0723 8.12891 73.1426 8.23438C73.2246 8.33984 73.2949 8.45703 73.3535 8.58594C73.4238 8.70312 73.4824 8.80859 73.5293 8.90234C73.752 8.82031 74.0156 8.75 74.3203 8.69141C74.6367 8.62109 74.9707 8.58594 75.3223 8.58594C75.4746 8.58594 75.6621 8.59766 75.8848 8.62109C76.1074 8.63281 76.3242 8.69141 76.5352 8.79688C76.7578 8.89062 76.957 9.04883 77.1328 9.27148C77.3203 9.48242 77.4609 9.78711 77.5547 10.1855C77.6016 10.3965 77.625 10.6543 77.625 10.959C77.6367 11.2637 77.6484 11.5801 77.6602 11.9082C77.6484 12.1895 77.6426 12.4766 77.6426 12.7695C77.6426 13.0508 77.6191 13.3086 77.5723 13.543C77.5371 13.7656 77.4727 13.9473 77.3789 14.0879C77.2852 14.2285 77.1445 14.2988 76.957 14.2988C76.7578 14.2988 76.5879 14.2402 76.4473 14.123C76.3184 14.0059 76.2539 13.8535 76.2539 13.666C76.2539 13.3262 76.2715 12.9395 76.3066 12.5059C76.3418 12.0723 76.3594 11.6797 76.3594 11.3281C76.3594 11.0117 76.3301 10.7539 76.2715 10.5547C76.2246 10.3555 76.1543 10.2031 76.0605 10.0977C75.9668 9.98047 75.8438 9.9043 75.6914 9.86914C75.5391 9.83398 75.3691 9.81641 75.1816 9.81641C74.9824 9.81641 74.7773 9.8457 74.5664 9.9043C74.3672 9.95117 74.168 10.0039 73.9688 10.0625C73.9805 10.2852 73.9863 10.5137 73.9863 10.748C73.998 10.9824 74.0039 11.2285 74.0039 11.4863C74.0039 11.8965 74.0039 12.2773 74.0039 12.6289C74.0039 12.9688 73.9805 13.2676 73.9336 13.5254C73.8984 13.7715 73.8223 13.9648 73.7051 14.1055C73.5879 14.2578 73.418 14.334 73.1953 14.334C73.0312 14.3105 72.8965 14.252 72.791 14.1582C72.6855 14.0645 72.6328 13.9414 72.6328 13.7891C72.6328 13.4375 72.6445 13.0684 72.668 12.6816C72.6914 12.2949 72.7031 11.8789 72.7031 11.4336C72.7031 11.2109 72.6973 11.0117 72.6855 10.8359C72.6855 10.6602 72.6797 10.4902 72.668 10.3262C72.5391 10.127 72.4219 9.9043 72.3164 9.6582C72.2227 9.40039 72.0938 9.13086 71.9297 8.84961ZM85.0781 12.0488C85.0898 11.8145 85.0957 11.5859 85.0957 11.3633C85.0957 11.1406 85.1016 10.9238 85.1133 10.7129L85.166 9.48242H84.5859C84.4219 9.48242 84.2754 9.48242 84.1465 9.48242C84.0293 9.4707 83.9238 9.44727 83.8301 9.41211C83.7363 9.36523 83.666 9.29492 83.6191 9.20117C83.5723 9.10742 83.5488 8.97266 83.5488 8.79688C83.5488 8.65625 83.5781 8.5332 83.6367 8.42773C83.707 8.31055 83.8125 8.25195 83.9531 8.25195C84.0938 8.25195 84.2695 8.25781 84.4805 8.26953C84.7031 8.28125 84.9492 8.28125 85.2188 8.26953C85.2188 7.625 85.207 6.98633 85.1836 6.35352C85.1602 5.7207 85.1484 5.04688 85.1484 4.33203C85.1484 4.13281 85.2188 3.99219 85.3594 3.91016C85.5 3.81641 85.6523 3.76953 85.8164 3.76953C86.0625 3.76953 86.2383 3.86328 86.3438 4.05078C86.4492 4.22656 86.5195 4.44336 86.5547 4.70117C86.5898 4.95898 86.5957 5.22852 86.5723 5.50977C86.5605 5.7793 86.5547 6.00195 86.5547 6.17773C86.5547 6.91602 86.5371 7.60742 86.502 8.25195C87.0645 8.25195 87.5977 8.24609 88.1016 8.23438C88.6172 8.21094 89.0156 8.18164 89.2969 8.14648C89.4375 8.16992 89.5371 8.24609 89.5957 8.375C89.666 8.49219 89.7012 8.62109 89.7012 8.76172C89.7012 8.96094 89.6543 9.10742 89.5605 9.20117C89.4785 9.29492 89.3145 9.36523 89.0684 9.41211C88.834 9.45898 88.5059 9.48242 88.084 9.48242C87.6738 9.48242 87.1348 9.48242 86.4668 9.48242C86.4434 9.86914 86.4258 10.2676 86.4141 10.6777C86.4141 11.0879 86.4141 11.5215 86.4141 11.9785C86.4141 12.4355 86.4961 12.7871 86.6602 13.0332C86.8242 13.2676 87.0352 13.3848 87.293 13.3848C87.5742 13.3848 87.8262 13.2852 88.0488 13.0859C88.2715 12.875 88.4883 12.5996 88.6992 12.2598C88.7695 12.1426 88.8867 12.084 89.0508 12.084C89.2148 12.084 89.3613 12.1426 89.4902 12.2598C89.6309 12.377 89.7012 12.5176 89.7012 12.6816C89.7012 12.916 89.6191 13.1504 89.4551 13.3848C89.291 13.6074 89.0801 13.8125 88.8223 14C88.5645 14.1875 88.2773 14.3398 87.9609 14.457C87.6445 14.5742 87.3398 14.6328 87.0469 14.6328C86.6836 14.6328 86.373 14.5566 86.1152 14.4043C85.8691 14.252 85.6699 14.0527 85.5176 13.8066C85.3652 13.5605 85.2539 13.2852 85.1836 12.9805C85.1133 12.6641 85.0781 12.3535 85.0781 12.0488ZM94.2188 8.5332C94.2656 8.49805 94.3184 8.46875 94.377 8.44531C94.4355 8.41016 94.5 8.39258 94.5703 8.39258C94.875 8.41602 95.1914 8.49805 95.5195 8.63867C95.8477 8.7793 96.1465 8.97852 96.416 9.23633C96.6855 9.49414 96.9082 9.80469 97.084 10.168C97.2598 10.5312 97.3477 10.9473 97.3477 11.416C97.3359 11.9082 97.248 12.3418 97.084 12.7168C96.9316 13.0801 96.7207 13.3848 96.4512 13.6309C96.1934 13.877 95.8828 14.0586 95.5195 14.1758C95.168 14.3047 94.7812 14.3691 94.3594 14.3691C94.0312 14.3691 93.6973 14.3047 93.3574 14.1758C93.0176 14.0586 92.7129 13.8828 92.4434 13.6484C92.1738 13.4023 91.9512 13.1094 91.7754 12.7695C91.5996 12.4297 91.5117 12.0371 91.5117 11.5918C91.5117 11.1934 91.5879 10.8066 91.7402 10.4316C91.8926 10.0449 92.0801 9.70508 92.3027 9.41211C92.5371 9.11914 92.7891 8.88477 93.0586 8.70898C93.3398 8.5332 93.6035 8.44531 93.8496 8.44531C93.9785 8.44531 94.1016 8.47461 94.2188 8.5332ZM94.3242 9.57031C94.1133 9.67578 93.9199 9.78711 93.7441 9.9043C93.5801 10.0098 93.4336 10.1387 93.3047 10.291C93.1875 10.4434 93.0938 10.6309 93.0234 10.8535C92.9648 11.0762 92.9355 11.3516 92.9355 11.6797C92.9355 11.9727 92.9824 12.2129 93.0762 12.4004C93.1816 12.5879 93.3105 12.7402 93.4629 12.8574C93.627 12.9629 93.8027 13.0391 93.9902 13.0859C94.1895 13.1211 94.3828 13.1387 94.5703 13.1387C94.9688 13.1387 95.3027 12.9805 95.5723 12.6641C95.8418 12.3477 95.9766 11.9609 95.9766 11.5039C95.9766 11.1523 95.9238 10.8652 95.8184 10.6426C95.7246 10.4199 95.5957 10.2441 95.4316 10.1152C95.2793 9.97461 95.1035 9.86914 94.9043 9.79883C94.7051 9.7168 94.5117 9.64062 94.3242 9.57031ZM98.8945 12.0488C98.8945 11.6504 98.8945 11.293 98.8945 10.9766C98.9062 10.6484 98.9121 10.3379 98.9121 10.0449C98.9238 9.74023 98.9297 9.42969 98.9297 9.11328C98.9414 8.78516 98.9531 8.41602 98.9648 8.00586C98.9648 7.77148 99.0469 7.60156 99.2109 7.49609C99.3867 7.37891 99.5684 7.32031 99.7559 7.32031C99.8965 7.32031 100.02 7.37305 100.125 7.47852C100.242 7.57227 100.301 7.71289 100.301 7.90039C100.301 8.31055 100.295 8.68555 100.283 9.02539C100.283 9.35352 100.277 9.68164 100.266 10.0098C100.254 10.3262 100.242 10.6484 100.23 10.9766C100.23 11.3047 100.23 11.668 100.23 12.0664C100.23 12.2773 100.266 12.459 100.336 12.6113C100.418 12.7637 100.518 12.8926 100.635 12.998C100.764 13.1035 100.898 13.1797 101.039 13.2266C101.18 13.2734 101.314 13.2969 101.443 13.2969C101.689 13.2969 101.965 13.2031 102.27 13.0156C102.586 12.8164 102.855 12.5645 103.078 12.2598C103.055 11.8262 103.037 11.4336 103.025 11.082C103.014 10.7188 103.008 10.3848 103.008 10.0801C103.008 9.76367 103.008 9.43555 103.008 9.0957C103.008 8.75586 103.031 8.45117 103.078 8.18164C103.125 7.90039 103.207 7.67188 103.324 7.49609C103.441 7.32031 103.623 7.23242 103.869 7.23242C104.021 7.25586 104.162 7.32031 104.291 7.42578C104.42 7.51953 104.484 7.6543 104.484 7.83008C104.449 8.25195 104.414 8.70898 104.379 9.20117C104.344 9.68164 104.326 10.1973 104.326 10.748C104.326 11.0293 104.332 11.3281 104.344 11.6445C104.355 11.9492 104.379 12.2598 104.414 12.5762C104.461 12.6934 104.531 12.834 104.625 12.998C104.73 13.1621 104.83 13.3262 104.924 13.4902C105.029 13.6543 105.117 13.8125 105.188 13.9648C105.258 14.1055 105.293 14.2168 105.293 14.2988C105.293 14.4863 105.217 14.6445 105.064 14.7734C104.912 14.9023 104.748 14.9668 104.572 14.9668C104.467 14.9668 104.355 14.9199 104.238 14.8262C104.133 14.7441 104.033 14.6387 103.939 14.5098C103.846 14.3809 103.758 14.2461 103.676 14.1055C103.605 13.9766 103.553 13.8594 103.518 13.7539C103.213 14.0117 102.861 14.2227 102.463 14.3867C102.064 14.5508 101.648 14.6328 101.215 14.6328C100.84 14.6328 100.506 14.5566 100.213 14.4043C99.9316 14.252 99.6914 14.0527 99.4922 13.8066C99.293 13.5605 99.1406 13.2852 99.0352 12.9805C98.9414 12.6641 98.8945 12.3535 98.8945 12.0488ZM111.234 8.11133C111.422 8.16992 111.557 8.26953 111.639 8.41016C111.721 8.55078 111.762 8.69727 111.762 8.84961C111.762 9.00195 111.709 9.14258 111.604 9.27148C111.498 9.38867 111.375 9.44727 111.234 9.44727C111.105 9.44727 110.971 9.44141 110.83 9.42969C110.689 9.41797 110.543 9.41211 110.391 9.41211C110.051 9.41211 109.723 9.45898 109.406 9.55273C109.102 9.64648 108.855 9.8457 108.668 10.1504C108.516 10.3848 108.41 10.6133 108.352 10.8359C108.293 11.0469 108.264 11.2461 108.264 11.4336C108.264 11.9023 108.422 12.2773 108.738 12.5586C109.055 12.8281 109.418 12.9629 109.828 12.9629C110.215 12.9629 110.531 12.9043 110.777 12.7871C111.035 12.6582 111.316 12.4355 111.621 12.1191C111.703 12.0371 111.797 11.9961 111.902 11.9961C112.043 11.9961 112.184 12.0664 112.324 12.207C112.477 12.3359 112.553 12.4824 112.553 12.6465C112.553 12.7988 112.482 12.9688 112.342 13.1562C112.201 13.3438 112.008 13.5195 111.762 13.6836C111.527 13.8359 111.258 13.9648 110.953 14.0703C110.66 14.1758 110.355 14.2285 110.039 14.2285C109.711 14.2285 109.359 14.1758 108.984 14.0703C108.609 13.9766 108.264 13.8184 107.947 13.5957C107.631 13.3613 107.367 13.0684 107.156 12.7168C106.945 12.3652 106.84 11.9316 106.84 11.416C106.84 10.8301 107.027 10.1973 107.402 9.51758C107.566 9.22461 107.766 8.98438 108 8.79688C108.246 8.60938 108.504 8.46289 108.773 8.35742C109.043 8.24023 109.318 8.16406 109.6 8.12891C109.893 8.08203 110.174 8.05859 110.443 8.05859C110.736 8.05859 111 8.07617 111.234 8.11133ZM113.695 6.10742C113.613 6.01367 113.572 5.89648 113.572 5.75586C113.572 5.58008 113.637 5.42773 113.766 5.29883C113.895 5.1582 114.059 5.08789 114.258 5.08789C114.562 5.08789 114.814 5.23438 115.014 5.52734C115.213 5.80859 115.365 6.14258 115.471 6.5293C115.588 6.91602 115.67 7.31445 115.717 7.72461C115.775 8.13477 115.816 8.46289 115.84 8.70898C116.027 8.66211 116.215 8.62109 116.402 8.58594C116.59 8.55078 116.795 8.5332 117.018 8.5332C117.205 8.5332 117.451 8.55078 117.756 8.58594C118.072 8.60938 118.377 8.7207 118.67 8.91992C118.963 9.10742 119.215 9.41211 119.426 9.83398C119.637 10.2559 119.742 10.8594 119.742 11.6445C119.742 12.0195 119.736 12.377 119.725 12.7168C119.713 13.0566 119.678 13.3613 119.619 13.6309C119.572 13.9004 119.496 14.1113 119.391 14.2637C119.285 14.4277 119.139 14.5098 118.951 14.5098C118.799 14.5098 118.646 14.4629 118.494 14.3691C118.354 14.2754 118.283 14.1465 118.283 13.9824C118.283 13.7832 118.307 13.5312 118.354 13.2266C118.4 12.9102 118.424 12.582 118.424 12.2422C118.424 11.8086 118.412 11.4395 118.389 11.1348C118.365 10.8184 118.307 10.5605 118.213 10.3613C118.119 10.1621 117.973 10.0215 117.773 9.93945C117.574 9.8457 117.299 9.79883 116.947 9.79883C116.889 9.79883 116.83 9.80469 116.771 9.81641C116.713 9.81641 116.654 9.81641 116.596 9.81641L115.893 9.99219C115.893 10.6367 115.881 11.2871 115.857 11.9434C115.834 12.5996 115.793 13.209 115.734 13.7715C115.711 13.9707 115.629 14.123 115.488 14.2285C115.348 14.3457 115.195 14.4043 115.031 14.4043C114.867 14.4043 114.727 14.3574 114.609 14.2637C114.492 14.1816 114.434 14.0527 114.434 13.877C114.434 13.2676 114.451 12.6406 114.486 11.9961C114.533 11.3516 114.557 10.7188 114.557 10.0977C114.557 9.72266 114.557 9.37109 114.557 9.04297C114.568 8.71484 114.551 8.39844 114.504 8.09375C114.457 7.77734 114.369 7.46094 114.24 7.14453C114.123 6.81641 113.941 6.4707 113.695 6.10742ZM123.047 12.084C123.199 12.084 123.41 12.0957 123.68 12.1191C123.949 12.1426 124.213 12.2188 124.471 12.3477C124.729 12.4648 124.951 12.6523 125.139 12.9102C125.326 13.168 125.42 13.5254 125.42 13.9824C125.42 14.4043 125.273 14.7793 124.98 15.1074C124.688 15.4473 124.277 15.6172 123.75 15.6172C123.504 15.6172 123.275 15.5645 123.064 15.459C122.854 15.3535 122.672 15.2188 122.52 15.0547C122.367 14.9023 122.244 14.7266 122.15 14.5273C122.068 14.3398 122.027 14.1582 122.027 13.9824C122.039 13.8184 122.068 13.6602 122.115 13.5078C122.162 13.3555 122.25 13.2324 122.379 13.1387L122.59 12.998C122.531 12.916 122.502 12.8281 122.502 12.7344C122.502 12.5586 122.549 12.4121 122.643 12.2949C122.748 12.166 122.883 12.0957 123.047 12.084ZM123.398 13.209C123.422 13.2441 123.434 13.2969 123.434 13.3672C123.434 13.4609 123.393 13.5723 123.311 13.7012C123.229 13.8301 123.188 13.9297 123.188 14C123.188 14.1289 123.24 14.2344 123.346 14.3164C123.463 14.4102 123.58 14.457 123.697 14.457C123.932 14.457 124.09 14.3984 124.172 14.2812C124.266 14.1641 124.312 14.0645 124.312 13.9824C124.312 13.8066 124.283 13.666 124.225 13.5605C124.178 13.4551 124.107 13.3789 124.014 13.332C123.932 13.2734 123.832 13.2383 123.715 13.2266C123.609 13.2148 123.504 13.209 123.398 13.209ZM123.012 3.64648V3.59375C123.012 3.46484 123.082 3.36523 123.223 3.29492C123.363 3.21289 123.527 3.17188 123.715 3.17188C123.879 3.17188 124.043 3.20117 124.207 3.25977C124.371 3.31836 124.5 3.41211 124.594 3.54102C124.594 3.70508 124.582 3.8457 124.559 3.96289C124.547 4.08008 124.535 4.17969 124.523 4.26172L124.383 4.77148C124.418 5.13477 124.447 5.43359 124.471 5.66797C124.506 5.90234 124.535 6.125 124.559 6.33594C124.582 6.53516 124.6 6.74609 124.611 6.96875C124.623 7.19141 124.629 7.47266 124.629 7.8125C124.629 8.19922 124.617 8.58594 124.594 8.97266C124.57 9.35938 124.523 9.71094 124.453 10.0273C124.395 10.332 124.301 10.584 124.172 10.7832C124.055 10.9707 123.896 11.0645 123.697 11.0645C123.533 11.0645 123.387 11.0176 123.258 10.9238C123.129 10.8184 123.064 10.7012 123.064 10.5723C123.064 10.5254 123.07 10.4902 123.082 10.4668C123.176 10.1504 123.234 9.85742 123.258 9.58789C123.281 9.31836 123.293 9.06641 123.293 8.83203C123.293 8.1875 123.281 7.67188 123.258 7.28516C123.246 6.88672 123.229 6.52344 123.205 6.19531C123.182 5.85547 123.152 5.50391 123.117 5.14062C123.082 4.76562 123.047 4.26758 123.012 3.64648Z" transform="translate(287 58)" fill="white"/>
</svg>
